# MagicaVoxel @ Ephtracy

# group
o 

# material
mtllib Items-5.mtl
usemtl palette

# normals
vn -1 0 0
vn 1 0 0
vn 0 0 1
vn 0 0 -1
vn 0 -1 0
vn 0 1 0

# texcoords
vt 0.845703 0.5
vt 0.943359 0.5
vt 0.982422 0.5

# verts
v 0.8 0 -0.5
v 0.8 0 -0.7
v 0.8 0.2 -0.5
v 0.8 0.2 -0.6
v 0.8 0.2 -0.7
v 0.8 0.3 -0.5
v 0.8 0.3 -0.6
v 0.8 0.3 -0.7
v 0.9 0 -0.4
v 0.9 0 -0.5
v 0.9 0 -0.7
v 0.9 0 -0.8
v 0.9 0.2 -0.4
v 0.9 0.2 -0.5
v 0.9 0.2 -0.7
v 0.9 0.2 -0.8
v 0.9 0.3 -0.4
v 0.9 0.3 -0.5
v 1 0.2 -0.7
v 1 0.2 -0.8
v 1 0.3 -0.7
v 1 0.3 -0.8
v 1.1 0.2 -0.6
v 1.1 0.2 -0.7
v 1.1 0.3 -0.6
v 1.1 0.3 -0.7
v 0.9 0.2 -0.5
v 0.9 0.2 -0.6
v 0.9 0.2 -0.7
v 0.9 0.3 -0.5
v 0.9 0.3 -0.6
v 0.9 0.3 -0.7
v 1.1 0 -0.7
v 1.1 0 -0.8
v 1.1 0.2 -0.4
v 1.1 0.2 -0.5
v 1.1 0.2 -0.7
v 1.1 0.2 -0.8
v 1.1 0.3 -0.4
v 1.1 0.3 -0.5
v 1.1 0.3 -0.7
v 1.1 0.3 -0.8
v 1.2 0 -0.4
v 1.2 0 -0.7
v 1.2 0.2 -0.4
v 1.2 0.2 -0.6
v 1.2 0.2 -0.7
v 1.2 0.3 -0.6
v 1.2 0.3 -0.7
v 0.9 0 -0.4
v 0.9 0.2 -0.4
v 0.9 0.3 -0.4
v 1 0.2 -0.4
v 1 0.3 -0.4
v 1.1 0.2 -0.4
v 1.1 0.3 -0.4
v 1.2 0 -0.4
v 1.2 0.2 -0.4
v 0.8 0 -0.5
v 0.8 0.2 -0.5
v 0.8 0.3 -0.5
v 0.9 0 -0.5
v 0.9 0.2 -0.5
v 0.9 0.3 -0.5
v 1.1 0.2 -0.6
v 1.1 0.3 -0.6
v 1.2 0.2 -0.6
v 1.2 0.3 -0.6
v 1 0.2 -0.7
v 1 0.3 -0.7
v 1.1 0.2 -0.7
v 1.1 0.3 -0.7
v 0.9 0.2 -0.5
v 0.9 0.3 -0.5
v 1 0.2 -0.5
v 1 0.3 -0.5
v 1.1 0.2 -0.5
v 1.1 0.3 -0.5
v 0.8 0 -0.7
v 0.8 0.2 -0.7
v 0.8 0.3 -0.7
v 0.9 0 -0.7
v 0.9 0.2 -0.7
v 0.9 0.3 -0.7
v 1.1 0 -0.7
v 1.1 0.2 -0.7
v 1.1 0.3 -0.7
v 1.2 0 -0.7
v 1.2 0.2 -0.7
v 1.2 0.3 -0.7
v 0.9 0 -0.8
v 0.9 0.2 -0.8
v 1 0.2 -0.8
v 1 0.3 -0.8
v 1.1 0 -0.8
v 1.1 0.2 -0.8
v 1.1 0.3 -0.8
v 0.9 0 -0.4
v 1.2 0 -0.4
v 0.8 0 -0.5
v 0.9 0 -0.5
v 0.8 0 -0.7
v 0.9 0 -0.7
v 1.1 0 -0.7
v 1.2 0 -0.7
v 0.9 0 -0.8
v 1.1 0 -0.8
v 1.1 0.2 -0.4
v 1.2 0.2 -0.4
v 0.9 0.2 -0.5
v 1 0.2 -0.5
v 1.1 0.2 -0.5
v 0.9 0.2 -0.6
v 1.1 0.2 -0.6
v 1.2 0.2 -0.6
v 0.9 0.2 -0.7
v 1 0.2 -0.7
v 1.1 0.2 -0.7
v 0.9 0.2 -0.8
v 1 0.2 -0.8
v 0.9 0.3 -0.4
v 1 0.3 -0.4
v 1.1 0.3 -0.4
v 0.8 0.3 -0.5
v 0.9 0.3 -0.5
v 1 0.3 -0.5
v 1.1 0.3 -0.5
v 0.8 0.3 -0.6
v 0.9 0.3 -0.6
v 1.1 0.3 -0.6
v 1.2 0.3 -0.6
v 0.8 0.3 -0.7
v 0.9 0.3 -0.7
v 1 0.3 -0.7
v 1.1 0.3 -0.7
v 1.2 0.3 -0.7
v 1 0.3 -0.8
v 1.1 0.3 -0.8

# faces
f 3/2/1 2/2/1 1/2/1
f 4/2/1 2/2/1 3/2/1
f 5/2/1 2/2/1 4/2/1
f 6/1/1 4/1/1 3/1/1
f 7/3/1 5/3/1 4/3/1
f 7/1/1 4/1/1 6/1/1
f 8/3/1 5/3/1 7/3/1
f 13/2/1 10/2/1 9/2/1
f 14/2/1 10/2/1 13/2/1
f 15/2/1 12/2/1 11/2/1
f 16/2/1 12/2/1 15/2/1
f 17/3/1 14/3/1 13/3/1
f 18/3/1 14/3/1 17/3/1
f 21/3/1 20/3/1 19/3/1
f 22/3/1 20/3/1 21/3/1
f 25/1/1 24/1/1 23/1/1
f 26/1/1 24/1/1 25/1/1
f 27/1/2 28/1/2 30/1/2
f 28/3/2 29/3/2 31/3/2
f 30/1/2 28/1/2 31/1/2
f 31/3/2 29/3/2 32/3/2
f 33/2/2 34/2/2 37/2/2
f 37/2/2 34/2/2 38/2/2
f 35/1/2 36/1/2 39/1/2
f 39/1/2 36/1/2 40/1/2
f 37/3/2 38/3/2 41/3/2
f 41/3/2 38/3/2 42/3/2
f 43/2/2 44/2/2 45/2/2
f 45/2/2 44/2/2 46/2/2
f 46/2/2 44/2/2 47/2/2
f 46/1/2 47/1/2 48/1/2
f 48/1/2 47/1/2 49/1/2
f 53/2/3 51/2/3 50/2/3
f 53/3/3 52/3/3 51/3/3
f 54/3/3 52/3/3 53/3/3
f 55/2/3 53/2/3 50/2/3
f 55/1/3 54/1/3 53/1/3
f 56/1/3 54/1/3 55/1/3
f 57/2/3 55/2/3 50/2/3
f 58/2/3 55/2/3 57/2/3
f 62/2/3 60/2/3 59/2/3
f 63/1/3 61/1/3 60/1/3
f 63/2/3 60/2/3 62/2/3
f 64/1/3 61/1/3 63/1/3
f 67/1/3 66/1/3 65/1/3
f 68/1/3 66/1/3 67/1/3
f 71/3/3 70/3/3 69/3/3
f 72/3/3 70/3/3 71/3/3
f 73/3/4 74/3/4 75/3/4
f 75/3/4 74/3/4 76/3/4
f 75/1/4 76/1/4 77/1/4
f 77/1/4 76/1/4 78/1/4
f 79/2/4 80/2/4 82/2/4
f 80/3/4 81/3/4 83/3/4
f 82/2/4 80/2/4 83/2/4
f 83/3/4 81/3/4 84/3/4
f 85/2/4 86/2/4 88/2/4
f 86/1/4 87/1/4 89/1/4
f 88/2/4 86/2/4 89/2/4
f 89/1/4 87/1/4 90/1/4
f 91/2/4 92/2/4 93/2/4
f 91/2/4 93/2/4 95/2/4
f 93/3/4 94/3/4 96/3/4
f 95/2/4 93/2/4 96/2/4
f 96/3/4 94/3/4 97/3/4
f 101/2/5 99/2/5 98/2/5
f 102/2/5 101/2/5 100/2/5
f 103/2/5 99/2/5 101/2/5
f 103/2/5 101/2/5 102/2/5
f 104/2/5 99/2/5 103/2/5
f 105/2/5 99/2/5 104/2/5
f 106/2/5 104/2/5 103/2/5
f 107/2/5 104/2/5 106/2/5
f 108/2/6 109/2/6 112/2/6
f 110/1/6 111/1/6 113/1/6
f 111/1/6 112/1/6 113/1/6
f 112/2/6 109/2/6 114/2/6
f 113/1/6 112/1/6 114/1/6
f 114/2/6 109/2/6 115/2/6
f 113/3/6 114/3/6 116/3/6
f 116/3/6 114/3/6 117/3/6
f 117/3/6 114/3/6 118/3/6
f 116/2/6 117/2/6 119/2/6
f 119/2/6 117/2/6 120/2/6
f 121/3/6 122/3/6 125/3/6
f 122/1/6 123/1/6 126/1/6
f 125/3/6 122/3/6 126/3/6
f 126/1/6 123/1/6 127/1/6
f 124/1/6 125/1/6 128/1/6
f 128/1/6 125/1/6 129/1/6
f 128/3/6 129/3/6 132/3/6
f 132/3/6 129/3/6 133/3/6
f 130/1/6 131/1/6 135/1/6
f 135/1/6 131/1/6 136/1/6
f 134/3/6 135/3/6 137/3/6
f 137/3/6 135/3/6 138/3/6
