# MagicaVoxel @ Ephtracy

# group
o 

# material
mtllib Items-9.mtl
usemtl palette

# normals
vn -1 0 0
vn 1 0 0
vn 0 0 1
vn 0 0 -1
vn 0 -1 0
vn 0 1 0

# texcoords
vt 0.306641 0.5
vt 0.814453 0.5
vt 0.982422 0.5

# verts
v -0.8 0 -1.5
v -0.8 0 -2.4
v -0.8 0.1 -1.5
v -0.8 0.1 -2.4
v -0.8 0.2 -1.5
v -0.8 0.2 -2.4
v -0.8 0.3 -1.5
v -0.8 0.3 -2.4
v -0.6 0.1 -1.8
v -0.6 0.1 -2.1
v -0.6 0.2 -1.8
v -0.6 0.2 -1.9
v -0.6 0.2 -2.1
v -0.5 0.1 -1.7
v -0.5 0.1 -1.8
v -0.5 0.1 -2.1
v -0.5 0.1 -2.2
v -0.5 0.2 -1.7
v -0.5 0.2 -1.8
v -0.5 0.2 -2.1
v -0.5 0.2 -2.2
v 0 0.1 -1.6
v 0 0.1 -2.3
v 0 0.2 -1.6
v 0 0.2 -1.7
v 0 0.2 -1.8
v 0 0.2 -2.3
v -0.7 0.1 -1.6
v -0.7 0.1 -2.3
v -0.7 0.2 -1.6
v -0.7 0.2 -1.7
v -0.7 0.2 -1.9
v -0.7 0.2 -2.3
v -0.2 0.1 -1.7
v -0.2 0.1 -1.8
v -0.2 0.1 -2.1
v -0.2 0.1 -2.2
v -0.2 0.2 -1.7
v -0.2 0.2 -1.8
v -0.2 0.2 -2.1
v -0.2 0.2 -2.2
v -0.1 0.1 -1.8
v -0.1 0.1 -2.1
v -0.1 0.2 -1.8
v -0.1 0.2 -2.1
v 0.1 0 -1.5
v 0.1 0 -2.4
v 0.1 0.1 -1.5
v 0.1 0.1 -2.4
v 0.1 0.2 -1.5
v 0.1 0.2 -2.4
v 0.1 0.3 -1.5
v 0.1 0.3 -2.4
v -0.8 0 -1.5
v -0.8 0.1 -1.5
v -0.8 0.2 -1.5
v -0.8 0.3 -1.5
v -0.7 0.1 -1.5
v -0.7 0.2 -1.5
v -0.5 0.1 -1.5
v -0.5 0.2 -1.5
v -0.2 0.1 -1.5
v -0.2 0.2 -1.5
v 0 0.1 -1.5
v 0 0.2 -1.5
v 0.1 0 -1.5
v 0.1 0.1 -1.5
v 0.1 0.2 -1.5
v 0.1 0.3 -1.5
v -0.5 0.1 -1.7
v -0.5 0.2 -1.7
v -0.4 0.2 -1.7
v -0.3 0.2 -1.7
v -0.2 0.1 -1.7
v -0.2 0.2 -1.7
v -0.6 0.1 -1.8
v -0.6 0.2 -1.8
v -0.5 0.1 -1.8
v -0.5 0.2 -1.8
v -0.2 0.1 -1.8
v -0.2 0.2 -1.8
v -0.1 0.1 -1.8
v -0.1 0.2 -1.8
v -0.7 0.1 -2.3
v -0.7 0.2 -2.3
v -0.5 0.1 -2.3
v -0.5 0.2 -2.3
v -0.4 0.2 -2.3
v -0.3 0.2 -2.3
v -0.2 0.1 -2.3
v -0.2 0.2 -2.3
v 0 0.1 -2.3
v 0 0.2 -2.3
v -0.7 0.1 -1.6
v -0.7 0.2 -1.6
v -0.5 0.1 -1.6
v -0.5 0.2 -1.6
v -0.4 0.2 -1.6
v -0.3 0.2 -1.6
v -0.2 0.1 -1.6
v -0.2 0.2 -1.6
v 0 0.1 -1.6
v 0 0.2 -1.6
v -0.6 0.1 -2.1
v -0.6 0.2 -2.1
v -0.5 0.1 -2.1
v -0.5 0.2 -2.1
v -0.2 0.1 -2.1
v -0.2 0.2 -2.1
v -0.1 0.1 -2.1
v -0.1 0.2 -2.1
v -0.5 0.1 -2.2
v -0.5 0.2 -2.2
v -0.4 0.2 -2.2
v -0.3 0.2 -2.2
v -0.2 0.1 -2.2
v -0.2 0.2 -2.2
v -0.8 0 -2.4
v -0.8 0.1 -2.4
v -0.8 0.2 -2.4
v -0.8 0.3 -2.4
v -0.7 0.1 -2.4
v -0.7 0.2 -2.4
v -0.5 0.1 -2.4
v -0.5 0.2 -2.4
v -0.2 0.1 -2.4
v -0.2 0.2 -2.4
v 0 0.1 -2.4
v 0 0.2 -2.4
v 0.1 0 -2.4
v 0.1 0.1 -2.4
v 0.1 0.2 -2.4
v 0.1 0.3 -2.4
v -0.8 0 -1.5
v 0.1 0 -1.5
v -0.8 0 -2.4
v 0.1 0 -2.4
v -0.7 0.2 -1.6
v -0.5 0.2 -1.6
v -0.4 0.2 -1.6
v -0.3 0.2 -1.6
v -0.2 0.2 -1.6
v 0 0.2 -1.6
v -0.7 0.2 -1.7
v -0.6 0.2 -1.7
v -0.5 0.2 -1.7
v -0.4 0.2 -1.7
v -0.3 0.2 -1.7
v -0.2 0.2 -1.7
v -0.1 0.2 -1.7
v 0 0.2 -1.7
v -0.6 0.2 -1.8
v -0.5 0.2 -1.8
v -0.2 0.2 -1.8
v -0.1 0.2 -1.8
v 0 0.2 -1.8
v -0.7 0.2 -1.9
v -0.6 0.2 -1.9
v -0.6 0.2 -2.1
v -0.5 0.2 -2.1
v -0.2 0.2 -2.1
v -0.1 0.2 -2.1
v -0.5 0.2 -2.2
v -0.4 0.2 -2.2
v -0.3 0.2 -2.2
v -0.2 0.2 -2.2
v -0.1 0.2 -2.2
v -0.7 0.2 -2.3
v -0.5 0.2 -2.3
v -0.4 0.2 -2.3
v -0.3 0.2 -2.3
v -0.2 0.2 -2.3
v 0 0.2 -2.3
v -0.7 0.1 -1.6
v -0.5 0.1 -1.6
v -0.2 0.1 -1.6
v 0 0.1 -1.6
v -0.5 0.1 -1.7
v -0.2 0.1 -1.7
v -0.6 0.1 -1.8
v -0.5 0.1 -1.8
v -0.2 0.1 -1.8
v -0.1 0.1 -1.8
v -0.6 0.1 -2.1
v -0.5 0.1 -2.1
v -0.2 0.1 -2.1
v -0.1 0.1 -2.1
v -0.5 0.1 -2.2
v -0.2 0.1 -2.2
v -0.7 0.1 -2.3
v -0.5 0.1 -2.3
v -0.2 0.1 -2.3
v 0 0.1 -2.3
v -0.8 0.3 -1.5
v 0.1 0.3 -1.5
v -0.7 0.3 -1.6
v -0.4 0.3 -1.6
v -0.3 0.3 -1.6
v 0 0.3 -1.6
v -0.7 0.3 -1.7
v -0.6 0.3 -1.7
v -0.5 0.3 -1.7
v -0.4 0.3 -1.7
v -0.3 0.3 -1.7
v -0.2 0.3 -1.7
v -0.1 0.3 -1.7
v 0 0.3 -1.7
v -0.6 0.3 -1.8
v -0.5 0.3 -1.8
v -0.4 0.3 -1.8
v -0.2 0.3 -1.8
v -0.1 0.3 -1.8
v 0 0.3 -1.8
v -0.7 0.3 -1.9
v -0.5 0.3 -1.9
v -0.3 0.3 -1.9
v -0.1 0.3 -1.9
v -0.6 0.3 -2
v -0.4 0.3 -2
v -0.3 0.3 -2
v -0.2 0.3 -2
v -0.6 0.3 -2.1
v -0.5 0.3 -2.1
v -0.2 0.3 -2.1
v -0.1 0.3 -2.1
v -0.2 0.3 -2.2
v -0.1 0.3 -2.2
v -0.7 0.3 -2.3
v -0.5 0.3 -2.3
v -0.4 0.3 -2.3
v -0.3 0.3 -2.3
v -0.2 0.3 -2.3
v 0 0.3 -2.3
v -0.8 0.3 -2.4
v 0.1 0.3 -2.4

# faces
f 3/1/1 2/1/1 1/1/1
f 4/1/1 2/1/1 3/1/1
f 5/2/1 4/2/1 3/2/1
f 6/2/1 4/2/1 5/2/1
f 7/1/1 6/1/1 5/1/1
f 8/1/1 6/1/1 7/1/1
f 11/3/1 10/3/1 9/3/1
f 12/3/1 10/3/1 11/3/1
f 13/3/1 10/3/1 12/3/1
f 18/3/1 15/3/1 14/3/1
f 19/3/1 15/3/1 18/3/1
f 20/3/1 17/3/1 16/3/1
f 21/3/1 17/3/1 20/3/1
f 24/2/1 23/2/1 22/2/1
f 25/2/1 23/2/1 24/2/1
f 26/2/1 23/2/1 25/2/1
f 27/2/1 23/2/1 26/2/1
f 28/2/2 29/2/2 30/2/2
f 30/2/2 29/2/2 31/2/2
f 31/2/2 29/2/2 32/2/2
f 32/2/2 29/2/2 33/2/2
f 34/3/2 35/3/2 38/3/2
f 38/3/2 35/3/2 39/3/2
f 36/3/2 37/3/2 40/3/2
f 40/3/2 37/3/2 41/3/2
f 42/3/2 43/3/2 44/3/2
f 44/3/2 43/3/2 45/3/2
f 46/1/2 47/1/2 48/1/2
f 48/1/2 47/1/2 49/1/2
f 48/2/2 49/2/2 50/2/2
f 50/2/2 49/2/2 51/2/2
f 50/1/2 51/1/2 52/1/2
f 52/1/2 51/1/2 53/1/2
f 58/1/3 55/1/3 54/1/3
f 58/2/3 56/2/3 55/2/3
f 59/1/3 57/1/3 56/1/3
f 59/2/3 56/2/3 58/2/3
f 60/1/3 58/1/3 54/1/3
f 60/1/3 59/1/3 58/1/3
f 61/1/3 57/1/3 59/1/3
f 61/1/3 59/1/3 60/1/3
f 62/1/3 60/1/3 54/1/3
f 62/2/3 61/2/3 60/2/3
f 63/1/3 57/1/3 61/1/3
f 63/2/3 61/2/3 62/2/3
f 64/1/3 62/1/3 54/1/3
f 64/1/3 63/1/3 62/1/3
f 65/1/3 57/1/3 63/1/3
f 65/1/3 63/1/3 64/1/3
f 66/1/3 64/1/3 54/1/3
f 67/2/3 65/2/3 64/2/3
f 67/1/3 64/1/3 66/1/3
f 68/1/3 57/1/3 65/1/3
f 68/2/3 65/2/3 67/2/3
f 69/1/3 57/1/3 68/1/3
f 72/3/3 71/3/3 70/3/3
f 73/3/3 72/3/3 70/3/3
f 74/3/3 73/3/3 70/3/3
f 75/3/3 73/3/3 74/3/3
f 78/3/3 77/3/3 76/3/3
f 79/3/3 77/3/3 78/3/3
f 82/3/3 81/3/3 80/3/3
f 83/3/3 81/3/3 82/3/3
f 86/1/3 85/1/3 84/1/3
f 87/1/3 85/1/3 86/1/3
f 88/2/3 87/2/3 86/2/3
f 89/2/3 88/2/3 86/2/3
f 90/2/3 89/2/3 86/2/3
f 91/2/3 89/2/3 90/2/3
f 92/1/3 91/1/3 90/1/3
f 93/1/3 91/1/3 92/1/3
f 94/1/4 95/1/4 96/1/4
f 96/1/4 95/1/4 97/1/4
f 96/2/4 97/2/4 98/2/4
f 96/2/4 98/2/4 99/2/4
f 96/2/4 99/2/4 100/2/4
f 100/2/4 99/2/4 101/2/4
f 100/1/4 101/1/4 102/1/4
f 102/1/4 101/1/4 103/1/4
f 104/3/4 105/3/4 106/3/4
f 106/3/4 105/3/4 107/3/4
f 108/3/4 109/3/4 110/3/4
f 110/3/4 109/3/4 111/3/4
f 112/3/4 113/3/4 114/3/4
f 112/3/4 114/3/4 115/3/4
f 112/3/4 115/3/4 116/3/4
f 116/3/4 115/3/4 117/3/4
f 118/1/4 119/1/4 122/1/4
f 119/2/4 120/2/4 122/2/4
f 120/1/4 121/1/4 123/1/4
f 122/2/4 120/2/4 123/2/4
f 118/1/4 122/1/4 124/1/4
f 122/1/4 123/1/4 124/1/4
f 123/1/4 121/1/4 125/1/4
f 124/1/4 123/1/4 125/1/4
f 118/1/4 124/1/4 126/1/4
f 124/2/4 125/2/4 126/2/4
f 125/1/4 121/1/4 127/1/4
f 126/2/4 125/2/4 127/2/4
f 118/1/4 126/1/4 128/1/4
f 126/1/4 127/1/4 128/1/4
f 127/1/4 121/1/4 129/1/4
f 128/1/4 127/1/4 129/1/4
f 118/1/4 128/1/4 130/1/4
f 128/2/4 129/2/4 131/2/4
f 130/1/4 128/1/4 131/1/4
f 129/1/4 121/1/4 132/1/4
f 131/2/4 129/2/4 132/2/4
f 132/1/4 121/1/4 133/1/4
f 136/1/5 135/1/5 134/1/5
f 137/1/5 135/1/5 136/1/5
f 144/2/5 139/2/5 138/2/5
f 144/2/5 140/2/5 139/2/5
f 145/2/5 140/2/5 144/2/5
f 146/2/5 140/2/5 145/2/5
f 147/1/5 141/1/5 140/1/5
f 147/2/5 140/2/5 146/2/5
f 148/2/5 143/2/5 142/2/5
f 148/1/5 141/1/5 147/1/5
f 148/2/5 142/2/5 141/2/5
f 149/2/5 143/2/5 148/2/5
f 150/2/5 143/2/5 149/2/5
f 151/2/5 143/2/5 150/2/5
f 152/1/5 145/1/5 144/1/5
f 152/2/5 146/2/5 145/2/5
f 153/2/5 146/2/5 152/2/5
f 154/2/5 150/2/5 149/2/5
f 155/1/5 151/1/5 150/1/5
f 155/2/5 150/2/5 154/2/5
f 156/1/5 151/1/5 155/1/5
f 157/1/5 152/1/5 144/1/5
f 158/1/5 152/1/5 157/1/5
f 159/2/5 158/2/5 157/2/5
f 162/2/5 156/2/5 155/2/5
f 163/2/5 160/2/5 159/2/5
f 166/1/5 162/1/5 161/1/5
f 167/2/5 156/2/5 162/2/5
f 167/1/5 162/1/5 166/1/5
f 168/2/5 159/2/5 157/2/5
f 168/2/5 163/2/5 159/2/5
f 169/1/5 164/1/5 163/1/5
f 169/2/5 163/2/5 168/2/5
f 170/2/5 165/2/5 164/2/5
f 170/1/5 164/1/5 169/1/5
f 171/1/5 166/1/5 165/1/5
f 171/2/5 165/2/5 170/2/5
f 172/2/5 167/2/5 166/2/5
f 172/1/5 166/1/5 171/1/5
f 173/2/5 156/2/5 167/2/5
f 173/2/5 167/2/5 172/2/5
f 174/1/6 175/1/6 178/1/6
f 176/1/6 177/1/6 178/1/6
f 175/1/6 176/1/6 178/1/6
f 178/1/6 177/1/6 179/1/6
f 174/1/6 178/1/6 180/1/6
f 180/1/6 178/1/6 181/1/6
f 179/1/6 177/1/6 182/1/6
f 182/1/6 177/1/6 183/1/6
f 174/1/6 180/1/6 184/1/6
f 183/1/6 177/1/6 187/1/6
f 184/1/6 185/1/6 188/1/6
f 186/1/6 187/1/6 189/1/6
f 184/1/6 188/1/6 190/1/6
f 188/1/6 189/1/6 190/1/6
f 174/1/6 184/1/6 190/1/6
f 190/1/6 189/1/6 191/1/6
f 189/1/6 187/1/6 192/1/6
f 191/1/6 189/1/6 192/1/6
f 187/1/6 177/1/6 193/1/6
f 192/1/6 187/1/6 193/1/6
f 194/1/6 195/1/6 196/1/6
f 196/1/6 195/1/6 197/1/6
f 197/1/6 195/1/6 198/1/6
f 198/1/6 195/1/6 199/1/6
f 194/1/6 196/1/6 200/1/6
f 196/2/6 197/2/6 200/2/6
f 200/2/6 197/2/6 201/2/6
f 201/2/6 197/2/6 202/2/6
f 197/1/6 198/1/6 203/1/6
f 202/2/6 197/2/6 203/2/6
f 198/2/6 199/2/6 204/2/6
f 203/1/6 198/1/6 204/1/6
f 204/2/6 199/2/6 205/2/6
f 205/2/6 199/2/6 206/2/6
f 199/1/6 195/1/6 207/1/6
f 206/2/6 199/2/6 207/2/6
f 201/2/6 202/2/6 208/2/6
f 200/1/6 201/1/6 208/1/6
f 202/1/6 203/1/6 209/1/6
f 208/2/6 202/2/6 209/2/6
f 203/1/6 204/1/6 209/1/6
f 204/1/6 205/1/6 209/1/6
f 209/1/6 205/1/6 210/1/6
f 205/2/6 206/2/6 211/2/6
f 210/1/6 205/1/6 211/1/6
f 206/1/6 207/1/6 212/1/6
f 211/2/6 206/2/6 212/2/6
f 207/1/6 195/1/6 213/1/6
f 212/1/6 207/1/6 213/1/6
f 200/1/6 208/1/6 214/1/6
f 194/1/6 200/1/6 214/1/6
f 208/1/6 209/1/6 214/1/6
f 209/2/6 210/2/6 215/2/6
f 214/1/6 209/1/6 215/1/6
f 211/1/6 212/1/6 216/1/6
f 210/1/6 211/1/6 216/1/6
f 212/2/6 213/2/6 217/2/6
f 216/1/6 212/1/6 217/1/6
f 214/2/6 215/2/6 218/2/6
f 215/2/6 210/2/6 219/2/6
f 218/2/6 215/2/6 219/2/6
f 210/1/6 216/1/6 219/1/6
f 216/2/6 217/2/6 220/2/6
f 219/1/6 216/1/6 220/1/6
f 220/2/6 217/2/6 221/2/6
f 214/2/6 218/2/6 222/2/6
f 218/1/6 219/1/6 222/1/6
f 222/1/6 219/1/6 223/1/6
f 221/2/6 217/2/6 224/2/6
f 220/1/6 221/1/6 224/1/6
f 217/2/6 213/2/6 225/2/6
f 224/2/6 217/2/6 225/2/6
f 220/1/6 224/1/6 226/1/6
f 224/1/6 225/1/6 226/1/6
f 225/2/6 213/2/6 227/2/6
f 226/1/6 225/1/6 227/1/6
f 194/1/6 214/1/6 228/1/6
f 222/2/6 223/2/6 228/2/6
f 214/2/6 222/2/6 228/2/6
f 223/1/6 219/1/6 229/1/6
f 228/2/6 223/2/6 229/2/6
f 219/2/6 220/2/6 230/2/6
f 229/1/6 219/1/6 230/1/6
f 220/1/6 226/1/6 231/1/6
f 230/2/6 220/2/6 231/2/6
f 226/2/6 227/2/6 232/2/6
f 231/1/6 226/1/6 232/1/6
f 227/2/6 213/2/6 233/2/6
f 232/2/6 227/2/6 233/2/6
f 213/1/6 195/1/6 233/1/6
f 231/1/6 232/1/6 234/1/6
f 228/1/6 229/1/6 234/1/6
f 232/1/6 233/1/6 234/1/6
f 229/1/6 230/1/6 234/1/6
f 230/1/6 231/1/6 234/1/6
f 194/1/6 228/1/6 234/1/6
f 233/1/6 195/1/6 235/1/6
f 234/1/6 233/1/6 235/1/6
