# MagicaVoxel @ Ephtracy

# group
o 

# material
mtllib Items-8.mtl
usemtl palette

# normals
vn -1 0 0
vn 1 0 0
vn 0 0 1
vn 0 0 -1
vn 0 -1 0
vn 0 1 0

# texcoords
vt 0.814453 0.5
vt 0.845703 0.5
vt 0.982422 0.5

# verts
v 1.5 0 0.2
v 1.5 0 0
v 1.5 0 -0.1
v 1.5 0.1 0.2
v 1.5 0.1 0
v 1.5 0.1 -0.1
v 1.6 0 0.3
v 1.6 0 0.2
v 1.6 0 -0.1
v 1.6 0 -0.2
v 1.6 0.1 0.3
v 1.6 0.1 0.2
v 1.6 0.1 0
v 1.6 0.1 -0.1
v 1.6 0.1 -0.2
v 1.6 0.2 0.2
v 1.6 0.2 -0.1
v 1.7 0 0.4
v 1.7 0 0.3
v 1.7 0 -0.2
v 1.7 0 -0.3
v 1.7 0.1 0.4
v 1.7 0.1 0.3
v 1.7 0.1 0.2
v 1.7 0.1 -0.1
v 1.7 0.1 -0.2
v 1.7 0.1 -0.3
v 1.7 0.2 0.3
v 1.7 0.2 0.2
v 1.7 0.2 -0.1
v 1.7 0.2 -0.2
v 2 0 0.4
v 2 0 0.3
v 2 0 -0.2
v 2 0 -0.3
v 2 0.1 0.4
v 2 0.1 0.3
v 2 0.1 0.2
v 2 0.1 -0.1
v 2 0.1 -0.2
v 2 0.1 -0.3
v 2 0.2 0.3
v 2 0.2 0.2
v 2 0.2 -0.1
v 2 0.2 -0.2
v 2.1 0 0.3
v 2.1 0 0.2
v 2.1 0 -0.1
v 2.1 0 -0.2
v 2.1 0.1 0.3
v 2.1 0.1 0.2
v 2.1 0.1 0.1
v 2.1 0.1 0
v 2.1 0.1 -0.1
v 2.1 0.1 -0.2
v 2.1 0.2 0.2
v 2.1 0.2 -0.1
v 2.2 0 0.2
v 2.2 0 0.1
v 2.2 0 0
v 2.2 0 -0.1
v 2.2 0.1 0.2
v 2.2 0.1 0.1
v 2.2 0.1 0
v 2.2 0.1 -0.1
v 1.7 0 0.4
v 1.7 0.1 0.4
v 2 0 0.4
v 2 0.1 0.4
v 1.6 0 0.3
v 1.6 0.1 0.3
v 1.7 0 0.3
v 1.7 0.1 0.3
v 1.7 0.2 0.3
v 2 0 0.3
v 2 0.1 0.3
v 2 0.2 0.3
v 2.1 0 0.3
v 2.1 0.1 0.3
v 1.5 0 0.2
v 1.5 0.1 0.2
v 1.6 0 0.2
v 1.6 0.1 0.2
v 1.6 0.2 0.2
v 1.7 0.1 0.2
v 1.7 0.2 0.2
v 2 0.1 0.2
v 2 0.2 0.2
v 2.1 0 0.2
v 2.1 0.1 0.2
v 2.1 0.2 0.2
v 2.2 0 0.2
v 2.2 0.1 0.2
v 1.5 0 -0.1
v 1.5 0.1 -0.1
v 1.6 0 -0.1
v 1.6 0.1 -0.1
v 1.6 0.2 -0.1
v 1.7 0.1 -0.1
v 1.7 0.2 -0.1
v 2 0.1 -0.1
v 2 0.2 -0.1
v 2.1 0 -0.1
v 2.1 0.1 -0.1
v 2.1 0.2 -0.1
v 2.2 0 -0.1
v 2.2 0.1 -0.1
v 1.6 0 -0.2
v 1.6 0.1 -0.2
v 1.7 0 -0.2
v 1.7 0.1 -0.2
v 1.7 0.2 -0.2
v 1.8 0.1 -0.2
v 1.9 0.1 -0.2
v 2 0 -0.2
v 2 0.1 -0.2
v 2 0.2 -0.2
v 2.1 0 -0.2
v 2.1 0.1 -0.2
v 1.7 0 -0.3
v 1.7 0.1 -0.3
v 1.8 0 -0.3
v 1.8 0.1 -0.3
v 1.9 0 -0.3
v 1.9 0.1 -0.3
v 2 0 -0.3
v 2 0.1 -0.3
v 1.7 0 0.4
v 2 0 0.4
v 1.6 0 0.3
v 1.7 0 0.3
v 2 0 0.3
v 2.1 0 0.3
v 1.5 0 0.2
v 1.6 0 0.2
v 1.7 0 0.2
v 2.1 0 0.2
v 2.2 0 0.2
v 2.1 0 0.1
v 2.2 0 0.1
v 1.5 0 0
v 1.6 0 0
v 2.1 0 0
v 2.2 0 0
v 1.5 0 -0.1
v 1.6 0 -0.1
v 2.1 0 -0.1
v 2.2 0 -0.1
v 1.6 0 -0.2
v 1.7 0 -0.2
v 1.8 0 -0.2
v 1.9 0 -0.2
v 2 0 -0.2
v 2.1 0 -0.2
v 1.7 0 -0.3
v 1.8 0 -0.3
v 1.9 0 -0.3
v 2 0 -0.3
v 1.7 0.1 0.4
v 2 0.1 0.4
v 1.6 0.1 0.3
v 1.7 0.1 0.3
v 2 0.1 0.3
v 2.1 0.1 0.3
v 1.5 0.1 0.2
v 1.6 0.1 0.2
v 1.7 0.1 0.2
v 2 0.1 0.2
v 2.1 0.1 0.2
v 2.2 0.1 0.2
v 2.1 0.1 0.1
v 2.2 0.1 0.1
v 1.5 0.1 0
v 1.6 0.1 0
v 2.1 0.1 0
v 2.2 0.1 0
v 1.5 0.1 -0.1
v 1.6 0.1 -0.1
v 1.7 0.1 -0.1
v 2 0.1 -0.1
v 2.1 0.1 -0.1
v 2.2 0.1 -0.1
v 1.6 0.1 -0.2
v 1.7 0.1 -0.2
v 1.8 0.1 -0.2
v 1.9 0.1 -0.2
v 2 0.1 -0.2
v 2.1 0.1 -0.2
v 1.7 0.1 -0.3
v 1.8 0.1 -0.3
v 1.9 0.1 -0.3
v 2 0.1 -0.3
v 1.7 0.2 0.3
v 2 0.2 0.3
v 1.6 0.2 0.2
v 1.7 0.2 0.2
v 2 0.2 0.2
v 2.1 0.2 0.2
v 1.7 0.2 0.1
v 1.8 0.2 0.1
v 1.7 0.2 0
v 1.8 0.2 0
v 1.9 0.2 0
v 2 0.2 0
v 1.6 0.2 -0.1
v 1.7 0.2 -0.1
v 1.9 0.2 -0.1
v 2 0.2 -0.1
v 2.1 0.2 -0.1
v 1.7 0.2 -0.2
v 2 0.2 -0.2

# faces
f 4/3/1 2/3/1 1/3/1
f 5/2/1 3/2/1 2/2/1
f 5/3/1 2/3/1 4/3/1
f 6/2/1 3/2/1 5/2/1
f 11/2/1 8/2/1 7/2/1
f 12/2/1 8/2/1 11/2/1
f 14/3/1 10/3/1 9/3/1
f 15/3/1 10/3/1 14/3/1
f 16/1/1 13/1/1 12/1/1
f 16/1/1 14/1/1 13/1/1
f 17/1/1 14/1/1 16/1/1
f 22/3/1 19/3/1 18/3/1
f 23/3/1 19/3/1 22/3/1
f 26/3/1 21/3/1 20/3/1
f 27/3/1 21/3/1 26/3/1
f 28/1/1 24/1/1 23/1/1
f 29/1/1 24/1/1 28/1/1
f 30/1/1 26/1/1 25/1/1
f 31/1/1 26/1/1 30/1/1
f 32/3/2 33/3/2 36/3/2
f 36/3/2 33/3/2 37/3/2
f 34/3/2 35/3/2 40/3/2
f 40/3/2 35/3/2 41/3/2
f 37/1/2 38/1/2 42/1/2
f 42/1/2 38/1/2 43/1/2
f 39/1/2 40/1/2 44/1/2
f 44/1/2 40/1/2 45/1/2
f 46/3/2 47/3/2 50/3/2
f 50/3/2 47/3/2 51/3/2
f 48/3/2 49/3/2 54/3/2
f 54/3/2 49/3/2 55/3/2
f 52/1/2 53/1/2 56/1/2
f 53/1/2 54/1/2 56/1/2
f 51/1/2 52/1/2 56/1/2
f 56/1/2 54/1/2 57/1/2
f 58/3/2 59/3/2 62/3/2
f 59/2/2 60/2/2 63/2/2
f 62/3/2 59/3/2 63/3/2
f 60/3/2 61/3/2 64/3/2
f 63/2/2 60/2/2 64/2/2
f 64/3/2 61/3/2 65/3/2
f 68/3/3 67/3/3 66/3/3
f 69/3/3 67/3/3 68/3/3
f 72/2/3 71/2/3 70/2/3
f 73/2/3 71/2/3 72/2/3
f 76/1/3 74/1/3 73/1/3
f 77/1/3 74/1/3 76/1/3
f 78/3/3 76/3/3 75/3/3
f 79/3/3 76/3/3 78/3/3
f 82/3/3 81/3/3 80/3/3
f 83/3/3 81/3/3 82/3/3
f 85/1/3 84/1/3 83/1/3
f 86/1/3 84/1/3 85/1/3
f 90/1/3 88/1/3 87/1/3
f 91/1/3 88/1/3 90/1/3
f 92/3/3 90/3/3 89/3/3
f 93/3/3 90/3/3 92/3/3
f 94/2/4 95/2/4 96/2/4
f 96/2/4 95/2/4 97/2/4
f 97/1/4 98/1/4 99/1/4
f 99/1/4 98/1/4 100/1/4
f 101/1/4 102/1/4 104/1/4
f 104/1/4 102/1/4 105/1/4
f 103/3/4 104/3/4 106/3/4
f 106/3/4 104/3/4 107/3/4
f 108/3/4 109/3/4 110/3/4
f 110/3/4 109/3/4 111/3/4
f 111/1/4 112/1/4 113/1/4
f 113/1/4 112/1/4 114/1/4
f 114/1/4 112/1/4 116/1/4
f 116/1/4 112/1/4 117/1/4
f 115/3/4 116/3/4 118/3/4
f 118/3/4 116/3/4 119/3/4
f 120/3/4 121/3/4 122/3/4
f 122/3/4 121/3/4 123/3/4
f 122/2/4 123/2/4 124/2/4
f 124/2/4 123/2/4 125/2/4
f 124/3/4 125/3/4 126/3/4
f 126/3/4 125/3/4 127/3/4
f 131/3/5 129/3/5 128/3/5
f 132/3/5 129/3/5 131/3/5
f 135/2/5 131/2/5 130/2/5
f 136/3/5 133/3/5 132/3/5
f 136/3/5 132/3/5 131/3/5
f 136/2/5 131/2/5 135/2/5
f 137/3/5 133/3/5 136/3/5
f 139/3/5 135/3/5 134/3/5
f 139/3/5 138/3/5 137/3/5
f 139/3/5 137/3/5 136/3/5
f 139/3/5 136/3/5 135/3/5
f 140/3/5 138/3/5 139/3/5
f 141/3/5 139/3/5 134/3/5
f 142/3/5 139/3/5 141/3/5
f 143/2/5 140/2/5 139/2/5
f 143/3/5 139/3/5 142/3/5
f 144/2/5 140/2/5 143/2/5
f 145/2/5 142/2/5 141/2/5
f 146/3/5 143/3/5 142/3/5
f 146/2/5 142/2/5 145/2/5
f 146/3/5 144/3/5 143/3/5
f 147/3/5 144/3/5 146/3/5
f 148/3/5 144/3/5 147/3/5
f 149/3/5 147/3/5 146/3/5
f 150/3/5 147/3/5 149/3/5
f 151/3/5 147/3/5 150/3/5
f 152/3/5 147/3/5 151/3/5
f 153/3/5 147/3/5 152/3/5
f 154/3/5 147/3/5 153/3/5
f 155/3/5 151/3/5 150/3/5
f 156/2/5 152/2/5 151/2/5
f 156/3/5 151/3/5 155/3/5
f 157/3/5 153/3/5 152/3/5
f 157/2/5 152/2/5 156/2/5
f 158/3/5 153/3/5 157/3/5
f 159/3/6 160/3/6 162/3/6
f 162/3/6 160/3/6 163/3/6
f 161/2/6 162/2/6 166/2/6
f 166/2/6 162/2/6 167/2/6
f 163/3/6 164/3/6 168/3/6
f 168/3/6 164/3/6 169/3/6
f 169/3/6 170/3/6 171/3/6
f 171/3/6 170/3/6 172/3/6
f 165/3/6 166/3/6 173/3/6
f 173/3/6 166/3/6 174/3/6
f 171/2/6 172/2/6 175/2/6
f 175/2/6 172/2/6 176/2/6
f 173/2/6 174/2/6 177/2/6
f 177/2/6 174/2/6 178/2/6
f 175/3/6 176/3/6 181/3/6
f 181/3/6 176/3/6 182/3/6
f 178/3/6 179/3/6 183/3/6
f 183/3/6 179/3/6 184/3/6
f 180/3/6 181/3/6 187/3/6
f 187/3/6 181/3/6 188/3/6
f 184/3/6 185/3/6 189/3/6
f 185/2/6 186/2/6 190/2/6
f 189/3/6 185/3/6 190/3/6
f 186/3/6 187/3/6 191/3/6
f 190/2/6 186/2/6 191/2/6
f 191/3/6 187/3/6 192/3/6
f 193/1/6 194/1/6 196/1/6
f 196/1/6 194/1/6 197/1/6
f 195/1/6 196/1/6 199/1/6
f 197/1/6 198/1/6 199/1/6
f 196/1/6 197/1/6 199/1/6
f 199/1/6 198/1/6 200/1/6
f 195/1/6 199/1/6 201/1/6
f 199/2/6 200/2/6 201/2/6
f 200/1/6 198/1/6 202/1/6
f 201/2/6 200/2/6 202/2/6
f 202/1/6 198/1/6 203/1/6
f 203/1/6 198/1/6 204/1/6
f 195/1/6 201/1/6 205/1/6
f 201/1/6 202/1/6 205/1/6
f 202/1/6 203/1/6 205/1/6
f 205/1/6 203/1/6 206/1/6
f 203/2/6 204/2/6 207/2/6
f 206/1/6 203/1/6 207/1/6
f 204/1/6 198/1/6 208/1/6
f 207/2/6 204/2/6 208/2/6
f 208/1/6 198/1/6 209/1/6
f 206/1/6 207/1/6 210/1/6
f 207/1/6 208/1/6 210/1/6
f 210/1/6 208/1/6 211/1/6
