# MagicaVoxel @ Ephtracy

# group
o 

# material
mtllib Items-2.mtl
usemtl palette

# normals
vn -1 0 0
vn 1 0 0
vn 0 0 1
vn 0 0 -1
vn 0 -1 0
vn 0 1 0

# texcoords
vt 0.353516 0.5
vt 0.947266 0.5

# verts
v -0.2 0.1 2
v -0.2 0.1 1.9
v -0.2 0.5 2
v -0.2 0.5 1.9
v -0.1 0 2
v -0.1 0 1.9
v -0.1 0.1 2.1
v -0.1 0.1 2
v -0.1 0.1 1.9
v -0.1 0.1 1.8
v -0.1 0.5 2.1
v -0.1 0.5 2
v -0.1 0.5 1.9
v -0.1 0.5 1.8
v -0.1 0.6 2
v -0.1 0.6 1.9
v -0.1 0.7 2
v -0.1 0.7 1.9
v 0 0.1 2
v 0 0.1 1.9
v 0 0.5 2
v 0 0.5 1.9
v -0.1 0.1 2
v -0.1 0.1 1.9
v -0.1 0.5 2
v -0.1 0.5 1.9
v 0 0 2
v 0 0 1.9
v 0 0.1 2.1
v 0 0.1 2
v 0 0.1 1.9
v 0 0.1 1.8
v 0 0.5 2.1
v 0 0.5 2
v 0 0.5 1.9
v 0 0.5 1.8
v 0 0.6 2
v 0 0.6 1.9
v 0 0.7 2
v 0 0.7 1.9
v 0.1 0.1 2
v 0.1 0.1 1.9
v 0.1 0.5 2
v 0.1 0.5 1.9
v -0.1 0.1 2.1
v -0.1 0.5 2.1
v 0 0.1 2.1
v 0 0.5 2.1
v -0.2 0.1 2
v -0.2 0.5 2
v -0.1 0 2
v -0.1 0.1 2
v -0.1 0.5 2
v -0.1 0.6 2
v -0.1 0.7 2
v 0 0 2
v 0 0.1 2
v 0 0.5 2
v 0 0.6 2
v 0 0.7 2
v 0.1 0.1 2
v 0.1 0.5 2
v -0.1 0.1 1.9
v -0.1 0.5 1.9
v 0 0.1 1.9
v 0 0.5 1.9
v -0.1 0.1 2
v -0.1 0.5 2
v 0 0.1 2
v 0 0.5 2
v -0.2 0.1 1.9
v -0.2 0.5 1.9
v -0.1 0 1.9
v -0.1 0.1 1.9
v -0.1 0.5 1.9
v -0.1 0.6 1.9
v -0.1 0.7 1.9
v 0 0 1.9
v 0 0.1 1.9
v 0 0.5 1.9
v 0 0.6 1.9
v 0 0.7 1.9
v 0.1 0.1 1.9
v 0.1 0.5 1.9
v -0.1 0.1 1.8
v -0.1 0.5 1.8
v 0 0.1 1.8
v 0 0.5 1.8
v -0.1 0 2
v 0 0 2
v -0.1 0 1.9
v 0 0 1.9
v -0.1 0.1 2.1
v 0 0.1 2.1
v -0.2 0.1 2
v -0.1 0.1 2
v 0 0.1 2
v 0.1 0.1 2
v -0.2 0.1 1.9
v -0.1 0.1 1.9
v 0 0.1 1.9
v 0.1 0.1 1.9
v -0.1 0.1 1.8
v 0 0.1 1.8
v -0.1 0.5 2
v 0 0.5 2
v -0.1 0.5 1.9
v 0 0.5 1.9
v -0.1 0.1 2
v 0 0.1 2
v -0.1 0.1 1.9
v 0 0.1 1.9
v -0.1 0.5 2.1
v 0 0.5 2.1
v -0.2 0.5 2
v -0.1 0.5 2
v 0 0.5 2
v 0.1 0.5 2
v -0.2 0.5 1.9
v -0.1 0.5 1.9
v 0 0.5 1.9
v 0.1 0.5 1.9
v -0.1 0.5 1.8
v 0 0.5 1.8
v -0.1 0.7 2
v 0 0.7 2
v -0.1 0.7 1.9
v 0 0.7 1.9

# faces
f 3/1/1 2/1/1 1/1/1
f 4/1/1 2/1/1 3/1/1
f 8/1/1 6/1/1 5/1/1
f 9/1/1 6/1/1 8/1/1
f 11/1/1 8/1/1 7/1/1
f 12/1/1 8/1/1 11/1/1
f 13/1/1 10/1/1 9/1/1
f 14/1/1 10/1/1 13/1/1
f 15/1/1 13/1/1 12/1/1
f 16/1/1 13/1/1 15/1/1
f 17/2/1 16/2/1 15/2/1
f 18/2/1 16/2/1 17/2/1
f 21/1/1 20/1/1 19/1/1
f 22/1/1 20/1/1 21/1/1
f 23/1/2 24/1/2 25/1/2
f 25/1/2 24/1/2 26/1/2
f 27/1/2 28/1/2 30/1/2
f 30/1/2 28/1/2 31/1/2
f 29/1/2 30/1/2 33/1/2
f 33/1/2 30/1/2 34/1/2
f 31/1/2 32/1/2 35/1/2
f 35/1/2 32/1/2 36/1/2
f 34/1/2 35/1/2 37/1/2
f 37/1/2 35/1/2 38/1/2
f 37/2/2 38/2/2 39/2/2
f 39/2/2 38/2/2 40/2/2
f 41/1/2 42/1/2 43/1/2
f 43/1/2 42/1/2 44/1/2
f 47/1/3 46/1/3 45/1/3
f 48/1/3 46/1/3 47/1/3
f 52/1/3 50/1/3 49/1/3
f 53/1/3 50/1/3 52/1/3
f 56/1/3 52/1/3 51/1/3
f 57/1/3 52/1/3 56/1/3
f 58/1/3 54/1/3 53/1/3
f 59/2/3 55/2/3 54/2/3
f 59/1/3 54/1/3 58/1/3
f 60/2/3 55/2/3 59/2/3
f 61/1/3 58/1/3 57/1/3
f 62/1/3 58/1/3 61/1/3
f 65/1/3 64/1/3 63/1/3
f 66/1/3 64/1/3 65/1/3
f 67/1/4 68/1/4 69/1/4
f 69/1/4 68/1/4 70/1/4
f 71/1/4 72/1/4 74/1/4
f 74/1/4 72/1/4 75/1/4
f 73/1/4 74/1/4 78/1/4
f 78/1/4 74/1/4 79/1/4
f 75/1/4 76/1/4 80/1/4
f 76/2/4 77/2/4 81/2/4
f 80/1/4 76/1/4 81/1/4
f 81/2/4 77/2/4 82/2/4
f 79/1/4 80/1/4 83/1/4
f 83/1/4 80/1/4 84/1/4
f 85/1/4 86/1/4 87/1/4
f 87/1/4 86/1/4 88/1/4
f 91/1/5 90/1/5 89/1/5
f 92/1/5 90/1/5 91/1/5
f 96/1/5 94/1/5 93/1/5
f 97/1/5 94/1/5 96/1/5
f 99/1/5 96/1/5 95/1/5
f 100/1/5 96/1/5 99/1/5
f 101/1/5 98/1/5 97/1/5
f 102/1/5 98/1/5 101/1/5
f 103/1/5 101/1/5 100/1/5
f 104/1/5 101/1/5 103/1/5
f 107/1/5 106/1/5 105/1/5
f 108/1/5 106/1/5 107/1/5
f 109/1/6 110/1/6 111/1/6
f 111/1/6 110/1/6 112/1/6
f 113/1/6 114/1/6 116/1/6
f 116/1/6 114/1/6 117/1/6
f 115/1/6 116/1/6 119/1/6
f 119/1/6 116/1/6 120/1/6
f 117/1/6 118/1/6 121/1/6
f 121/1/6 118/1/6 122/1/6
f 120/1/6 121/1/6 123/1/6
f 123/1/6 121/1/6 124/1/6
f 125/2/6 126/2/6 127/2/6
f 127/2/6 126/2/6 128/2/6
