# MagicaVoxel @ Ephtracy

# group
o 

# material
mtllib FathersCouch-3.mtl
usemtl palette

# normals
vn -1 0 0
vn 1 0 0
vn 0 0 1
vn 0 0 -1
vn 0 -1 0
vn 0 1 0

# texcoords
vt 0.849609 0.5
vt 0.880859 0.5
vt 0.994141 0.5

# verts
v -1.5 0.2 -1.1
v -1.5 0.2 -2.3
v -1.5 0.3 -1.3
v -1.5 0.3 -2.2
v -1.5 0.4 -1.3
v -1.5 0.4 -2.2
v -1.5 0.5 -1.1
v -1.5 0.5 -1.2
v -1.5 0.5 -1.4
v -1.5 0.5 -2.2
v -1.5 0.6 -1.4
v -1.5 0.6 -2.2
v -1.5 0.7 -1.2
v -1.5 0.7 -1.3
v -1.5 0.8 -1.3
v -1.5 0.8 -2.3
v -1.4 0.1 -1.1
v -1.4 0.1 -1.4
v -1.4 0.1 -2
v -1.4 0.1 -2.3
v -1.4 0.2 -1.1
v -1.4 0.2 -1.4
v -1.4 0.2 -2
v -1.4 0.2 -2.3
v -1.4 0.2 -2.4
v -1.4 0.3 -1.3
v -1.4 0.3 -2.2
v -1.4 0.4 -1.3
v -1.4 0.4 -2.2
v -1.4 0.5 -1.4
v -1.4 0.5 -2.2
v -1.4 0.6 -1.4
v -1.4 0.6 -2.2
v -1.4 0.8 -2.3
v -1.4 0.8 -2.4
v -1.3 0.8 -2.3
v -1.3 0.8 -2.4
v -1.3 0.9 -2.3
v -1.3 0.9 -2.4
v -1.2 0.5 -1.1
v -1.2 0.5 -1.2
v -1.2 0.6 -1.1
v -1.2 0.6 -1.2
v -1.2 0.8 -2.2
v -1.2 0.8 -2.3
v -1.2 0.9 -2.2
v -1.2 0.9 -2.3
v -1.2 0.9 -2.4
v -1.2 1 -2.3
v -1.2 1 -2.4
v -1.1 0.9 -2.2
v -1.1 0.9 -2.3
v -1.1 1 -2.2
v -1.1 1 -2.3
v 0.2 0.9 -2.2
v 0.2 0.9 -2.3
v 0.2 1 -2.2
v 0.2 1 -2.3
v 0.9 0.1 -1.1
v 0.9 0.1 -1.4
v 0.9 0.1 -2
v 0.9 0.1 -2.3
v 0.9 0.2 -1.1
v 0.9 0.2 -1.4
v 0.9 0.2 -2
v 0.9 0.2 -2.3
v 1 0.6 -1.2
v 1 0.6 -2.1
v 1 0.7 -1.2
v 1 0.7 -1.3
v 1 0.8 -1.3
v 1 0.8 -2.1
v -1.2 0.6 -1.2
v -1.2 0.6 -2.1
v -1.2 0.7 -1.2
v -1.2 0.7 -1.3
v -1.2 0.8 -1.3
v -1.2 0.8 -2.1
v -1.1 0.1 -1.1
v -1.1 0.1 -1.4
v -1.1 0.1 -2
v -1.1 0.1 -2.3
v -1.1 0.2 -1.1
v -1.1 0.2 -1.4
v -1.1 0.2 -2
v -1.1 0.2 -2.3
v -0.4 0.9 -2.2
v -0.4 0.9 -2.3
v -0.4 1 -2.2
v -0.4 1 -2.3
v 0.9 0.9 -2.2
v 0.9 0.9 -2.3
v 0.9 1 -2.2
v 0.9 1 -2.3
v 1 0.5 -1.1
v 1 0.5 -1.2
v 1 0.6 -1.1
v 1 0.6 -1.2
v 1 0.8 -2.2
v 1 0.8 -2.3
v 1 0.9 -2.2
v 1 0.9 -2.3
v 1 0.9 -2.4
v 1 1 -2.3
v 1 1 -2.4
v 1.1 0.8 -2.3
v 1.1 0.8 -2.4
v 1.1 0.9 -2.3
v 1.1 0.9 -2.4
v 1.2 0.1 -1.1
v 1.2 0.1 -1.4
v 1.2 0.1 -2
v 1.2 0.1 -2.3
v 1.2 0.2 -1.1
v 1.2 0.2 -1.4
v 1.2 0.2 -2
v 1.2 0.2 -2.3
v 1.2 0.2 -2.4
v 1.2 0.3 -1.3
v 1.2 0.3 -2.2
v 1.2 0.4 -1.3
v 1.2 0.4 -2.2
v 1.2 0.5 -1.4
v 1.2 0.5 -2.2
v 1.2 0.6 -1.4
v 1.2 0.6 -2.2
v 1.2 0.8 -2.3
v 1.2 0.8 -2.4
v 1.3 0.2 -1.1
v 1.3 0.2 -2.3
v 1.3 0.3 -1.3
v 1.3 0.3 -2.2
v 1.3 0.4 -1.3
v 1.3 0.4 -2.2
v 1.3 0.5 -1.1
v 1.3 0.5 -1.2
v 1.3 0.5 -1.4
v 1.3 0.5 -2.2
v 1.3 0.6 -1.4
v 1.3 0.6 -2.2
v 1.3 0.7 -1.2
v 1.3 0.7 -1.3
v 1.3 0.8 -1.3
v 1.3 0.8 -2.3
v -1.5 0.2 -1.1
v -1.5 0.5 -1.1
v -1.4 0.1 -1.1
v -1.4 0.2 -1.1
v -1.2 0.4 -1.1
v -1.2 0.5 -1.1
v -1.2 0.6 -1.1
v -1.1 0.1 -1.1
v -1.1 0.2 -1.1
v 0.9 0.1 -1.1
v 0.9 0.2 -1.1
v 1 0.4 -1.1
v 1 0.5 -1.1
v 1 0.6 -1.1
v 1.2 0.1 -1.1
v 1.2 0.2 -1.1
v 1.3 0.2 -1.1
v 1.3 0.5 -1.1
v -1.5 0.5 -1.2
v -1.5 0.7 -1.2
v -1.2 0.5 -1.2
v -1.2 0.6 -1.2
v -1.2 0.7 -1.2
v 1 0.5 -1.2
v 1 0.6 -1.2
v 1 0.7 -1.2
v 1.3 0.5 -1.2
v 1.3 0.7 -1.2
v -1.5 0.7 -1.3
v -1.5 0.8 -1.3
v -1.2 0.7 -1.3
v -1.2 0.8 -1.3
v 1 0.7 -1.3
v 1 0.8 -1.3
v 1.3 0.7 -1.3
v 1.3 0.8 -1.3
v -1.4 0.1 -2
v -1.4 0.2 -2
v -1.1 0.1 -2
v -1.1 0.2 -2
v 0.9 0.1 -2
v 0.9 0.2 -2
v 1.2 0.1 -2
v 1.2 0.2 -2
v -1.2 0.6 -2.1
v -1.2 0.8 -2.1
v 1 0.6 -2.1
v 1 0.8 -2.1
v -1.5 0.3 -2.2
v -1.5 0.4 -2.2
v -1.5 0.5 -2.2
v -1.5 0.6 -2.2
v -1.4 0.3 -2.2
v -1.4 0.4 -2.2
v -1.4 0.5 -2.2
v -1.4 0.6 -2.2
v -1.2 0.8 -2.2
v -1.2 0.9 -2.2
v -1.1 0.9 -2.2
v -1.1 1 -2.2
v -0.4 0.9 -2.2
v -0.4 1 -2.2
v 0.2 0.9 -2.2
v 0.2 1 -2.2
v 0.9 0.9 -2.2
v 0.9 1 -2.2
v 1 0.8 -2.2
v 1 0.9 -2.2
v 1.2 0.3 -2.2
v 1.2 0.4 -2.2
v 1.2 0.5 -2.2
v 1.2 0.6 -2.2
v 1.3 0.3 -2.2
v 1.3 0.4 -2.2
v 1.3 0.5 -2.2
v 1.3 0.6 -2.2
v -1.3 0.8 -2.3
v -1.3 0.9 -2.3
v -1.2 0.8 -2.3
v -1.2 0.9 -2.3
v -1.2 1 -2.3
v -1.1 0.9 -2.3
v -1.1 1 -2.3
v -0.4 0.9 -2.3
v -0.4 1 -2.3
v 0.2 0.9 -2.3
v 0.2 1 -2.3
v 0.9 0.9 -2.3
v 0.9 1 -2.3
v 1 0.8 -2.3
v 1 0.9 -2.3
v 1 1 -2.3
v 1.1 0.8 -2.3
v 1.1 0.9 -2.3
v -1.5 0.3 -1.3
v -1.5 0.4 -1.3
v -1.4 0.3 -1.3
v -1.4 0.4 -1.3
v 1.2 0.3 -1.3
v 1.2 0.4 -1.3
v 1.3 0.3 -1.3
v 1.3 0.4 -1.3
v -1.5 0.5 -1.4
v -1.5 0.6 -1.4
v -1.4 0.1 -1.4
v -1.4 0.2 -1.4
v -1.4 0.5 -1.4
v -1.4 0.6 -1.4
v -1.1 0.1 -1.4
v -1.1 0.2 -1.4
v 0.9 0.1 -1.4
v 0.9 0.2 -1.4
v 1.2 0.1 -1.4
v 1.2 0.2 -1.4
v 1.2 0.5 -1.4
v 1.2 0.6 -1.4
v 1.3 0.5 -1.4
v 1.3 0.6 -1.4
v -1.5 0.2 -2.3
v -1.5 0.8 -2.3
v -1.4 0.1 -2.3
v -1.4 0.2 -2.3
v -1.4 0.8 -2.3
v -1.1 0.1 -2.3
v -1.1 0.2 -2.3
v 0.9 0.1 -2.3
v 0.9 0.2 -2.3
v 1.2 0.1 -2.3
v 1.2 0.2 -2.3
v 1.2 0.8 -2.3
v 1.3 0.2 -2.3
v 1.3 0.8 -2.3
v -1.4 0.2 -2.4
v -1.4 0.8 -2.4
v -1.3 0.8 -2.4
v -1.3 0.9 -2.4
v -1.2 0.9 -2.4
v -1.2 1 -2.4
v 1 0.9 -2.4
v 1 1 -2.4
v 1.1 0.8 -2.4
v 1.1 0.9 -2.4
v 1.2 0.2 -2.4
v 1.2 0.8 -2.4
v -1.4 0.1 -1.1
v -1.1 0.1 -1.1
v 0.9 0.1 -1.1
v 1.2 0.1 -1.1
v -1.4 0.1 -1.4
v -1.1 0.1 -1.4
v 0.9 0.1 -1.4
v 1.2 0.1 -1.4
v -1.4 0.1 -2
v -1.1 0.1 -2
v 0.9 0.1 -2
v 1.2 0.1 -2
v -1.4 0.1 -2.3
v -1.1 0.1 -2.3
v 0.9 0.1 -2.3
v 1.2 0.1 -2.3
v -1.5 0.2 -1.1
v -1.4 0.2 -1.1
v -1.1 0.2 -1.1
v 0.9 0.2 -1.1
v 1.2 0.2 -1.1
v 1.3 0.2 -1.1
v -1.4 0.2 -1.4
v -1.1 0.2 -1.4
v 0.9 0.2 -1.4
v 1.2 0.2 -1.4
v -1.4 0.2 -2
v -1.1 0.2 -2
v 0.9 0.2 -2
v 1.2 0.2 -2
v -1.5 0.2 -2.3
v -1.4 0.2 -2.3
v -1.1 0.2 -2.3
v 0.9 0.2 -2.3
v 1.2 0.2 -2.3
v 1.3 0.2 -2.3
v -1.4 0.2 -2.4
v 1.2 0.2 -2.4
v -1.5 0.4 -1.3
v -1.4 0.4 -1.3
v 1.2 0.4 -1.3
v 1.3 0.4 -1.3
v -1.5 0.4 -2.2
v -1.4 0.4 -2.2
v 1.2 0.4 -2.2
v 1.3 0.4 -2.2
v -1.5 0.6 -1.4
v -1.4 0.6 -1.4
v 1.2 0.6 -1.4
v 1.3 0.6 -1.4
v -1.5 0.6 -2.2
v -1.4 0.6 -2.2
v 1.2 0.6 -2.2
v 1.3 0.6 -2.2
v -1.5 0.3 -1.3
v -1.4 0.3 -1.3
v 1.2 0.3 -1.3
v 1.3 0.3 -1.3
v -1.5 0.3 -2.2
v -1.4 0.3 -2.2
v 1.2 0.3 -2.2
v 1.3 0.3 -2.2
v -1.5 0.5 -1.1
v -1.2 0.5 -1.1
v 1 0.5 -1.1
v 1.3 0.5 -1.1
v -1.5 0.5 -1.2
v -1.2 0.5 -1.2
v 1 0.5 -1.2
v 1.3 0.5 -1.2
v -1.5 0.5 -1.4
v -1.4 0.5 -1.4
v 1.2 0.5 -1.4
v 1.3 0.5 -1.4
v -1.5 0.5 -2.2
v -1.4 0.5 -2.2
v 1.2 0.5 -2.2
v 1.3 0.5 -2.2
v -1.2 0.6 -1.1
v 1 0.6 -1.1
v -1.2 0.6 -1.2
v 1 0.6 -1.2
v -1.2 0.6 -2.1
v 1 0.6 -2.1
v -1.5 0.7 -1.2
v -1.2 0.7 -1.2
v 1 0.7 -1.2
v 1.3 0.7 -1.2
v -1.5 0.7 -1.3
v -1.2 0.7 -1.3
v 1 0.7 -1.3
v 1.3 0.7 -1.3
v -1.5 0.8 -1.3
v -1.2 0.8 -1.3
v 1 0.8 -1.3
v 1.3 0.8 -1.3
v -1.2 0.8 -2.1
v 1 0.8 -2.1
v -1.2 0.8 -2.2
v 1 0.8 -2.2
v -1.5 0.8 -2.3
v -1.4 0.8 -2.3
v -1.3 0.8 -2.3
v -1.2 0.8 -2.3
v 1 0.8 -2.3
v 1.1 0.8 -2.3
v 1.2 0.8 -2.3
v 1.3 0.8 -2.3
v -1.4 0.8 -2.4
v -1.3 0.8 -2.4
v 1.1 0.8 -2.4
v 1.2 0.8 -2.4
v -1.2 0.9 -2.2
v -1.1 0.9 -2.2
v -0.4 0.9 -2.2
v 0.2 0.9 -2.2
v 0.9 0.9 -2.2
v 1 0.9 -2.2
v -1.3 0.9 -2.3
v -1.2 0.9 -2.3
v -1.1 0.9 -2.3
v -0.4 0.9 -2.3
v 0.2 0.9 -2.3
v 0.9 0.9 -2.3
v 1 0.9 -2.3
v 1.1 0.9 -2.3
v -1.3 0.9 -2.4
v -1.2 0.9 -2.4
v 1 0.9 -2.4
v 1.1 0.9 -2.4
v -1.1 1 -2.2
v -0.4 1 -2.2
v 0.2 1 -2.2
v 0.9 1 -2.2
v -1.2 1 -2.3
v -1.1 1 -2.3
v -0.4 1 -2.3
v 0.2 1 -2.3
v 0.9 1 -2.3
v 1 1 -2.3
v -1.2 1 -2.4
v 1 1 -2.4

# faces
f 3/1/1 2/1/1 1/1/1
f 4/1/1 2/1/1 3/1/1
f 5/1/1 3/1/1 1/1/1
f 6/1/1 2/1/1 4/1/1
f 7/1/1 5/1/1 1/1/1
f 7/1/1 6/1/1 5/1/1
f 8/1/1 6/1/1 7/1/1
f 9/1/1 6/1/1 8/1/1
f 10/1/1 2/1/1 6/1/1
f 10/1/1 6/1/1 9/1/1
f 11/1/1 9/1/1 8/1/1
f 12/1/1 2/1/1 10/1/1
f 13/1/1 11/1/1 8/1/1
f 13/1/1 12/1/1 11/1/1
f 14/1/1 12/1/1 13/1/1
f 15/1/1 12/1/1 14/1/1
f 16/1/1 2/1/1 12/1/1
f 16/1/1 12/1/1 15/1/1
f 21/3/1 18/3/1 17/3/1
f 22/3/1 18/3/1 21/3/1
f 23/3/1 20/3/1 19/3/1
f 24/3/1 20/3/1 23/3/1
f 28/1/1 27/1/1 26/1/1
f 29/1/1 27/1/1 28/1/1
f 32/1/1 31/1/1 30/1/1
f 33/1/1 31/1/1 32/1/1
f 34/1/1 25/1/1 24/1/1
f 35/1/1 25/1/1 34/1/1
f 38/1/1 37/1/1 36/1/1
f 39/1/1 37/1/1 38/1/1
f 42/2/1 41/2/1 40/2/1
f 43/2/1 41/2/1 42/2/1
f 46/2/1 45/2/1 44/2/1
f 47/2/1 45/2/1 46/2/1
f 49/1/1 48/1/1 47/1/1
f 50/1/1 48/1/1 49/1/1
f 53/2/1 52/2/1 51/2/1
f 54/2/1 52/2/1 53/2/1
f 57/2/1 56/2/1 55/2/1
f 58/2/1 56/2/1 57/2/1
f 63/3/1 60/3/1 59/3/1
f 64/3/1 60/3/1 63/3/1
f 65/3/1 62/3/1 61/3/1
f 66/3/1 62/3/1 65/3/1
f 69/1/1 68/1/1 67/1/1
f 70/1/1 68/1/1 69/1/1
f 71/1/1 68/1/1 70/1/1
f 72/1/1 68/1/1 71/1/1
f 73/1/2 74/1/2 75/1/2
f 75/1/2 74/1/2 76/1/2
f 76/1/2 74/1/2 77/1/2
f 77/1/2 74/1/2 78/1/2
f 79/3/2 80/3/2 83/3/2
f 83/3/2 80/3/2 84/3/2
f 81/3/2 82/3/2 85/3/2
f 85/3/2 82/3/2 86/3/2
f 87/2/2 88/2/2 89/2/2
f 89/2/2 88/2/2 90/2/2
f 91/2/2 92/2/2 93/2/2
f 93/2/2 92/2/2 94/2/2
f 95/2/2 96/2/2 97/2/2
f 97/2/2 96/2/2 98/2/2
f 99/2/2 100/2/2 101/2/2
f 101/2/2 100/2/2 102/2/2
f 102/1/2 103/1/2 104/1/2
f 104/1/2 103/1/2 105/1/2
f 106/1/2 107/1/2 108/1/2
f 108/1/2 107/1/2 109/1/2
f 110/3/2 111/3/2 114/3/2
f 114/3/2 111/3/2 115/3/2
f 112/3/2 113/3/2 116/3/2
f 116/3/2 113/3/2 117/3/2
f 119/1/2 120/1/2 121/1/2
f 121/1/2 120/1/2 122/1/2
f 123/1/2 124/1/2 125/1/2
f 125/1/2 124/1/2 126/1/2
f 117/1/2 118/1/2 127/1/2
f 127/1/2 118/1/2 128/1/2
f 129/1/2 130/1/2 131/1/2
f 131/1/2 130/1/2 132/1/2
f 129/1/2 131/1/2 133/1/2
f 132/1/2 130/1/2 134/1/2
f 129/1/2 133/1/2 135/1/2
f 133/1/2 134/1/2 135/1/2
f 135/1/2 134/1/2 136/1/2
f 136/1/2 134/1/2 137/1/2
f 134/1/2 130/1/2 138/1/2
f 137/1/2 134/1/2 138/1/2
f 136/1/2 137/1/2 139/1/2
f 138/1/2 130/1/2 140/1/2
f 136/1/2 139/1/2 141/1/2
f 139/1/2 140/1/2 141/1/2
f 141/1/2 140/1/2 142/1/2
f 142/1/2 140/1/2 143/1/2
f 140/1/2 130/1/2 144/1/2
f 143/1/2 140/1/2 144/1/2
f 148/1/3 146/1/3 145/1/3
f 149/1/3 146/1/3 148/1/3
f 150/1/3 146/1/3 149/1/3
f 152/3/3 148/3/3 147/3/3
f 153/1/3 149/1/3 148/1/3
f 153/3/3 148/3/3 152/3/3
f 155/1/3 149/1/3 153/1/3
f 156/2/3 151/2/3 150/2/3
f 156/2/3 150/2/3 149/2/3
f 156/1/3 149/1/3 155/1/3
f 157/2/3 151/2/3 156/2/3
f 158/2/3 151/2/3 157/2/3
f 159/3/3 155/3/3 154/3/3
f 160/1/3 156/1/3 155/1/3
f 160/3/3 155/3/3 159/3/3
f 160/1/3 157/1/3 156/1/3
f 161/1/3 157/1/3 160/1/3
f 162/1/3 157/1/3 161/1/3
f 165/1/3 164/1/3 163/1/3
f 166/1/3 164/1/3 165/1/3
f 167/1/3 164/1/3 166/1/3
f 171/1/3 169/1/3 168/1/3
f 171/1/3 170/1/3 169/1/3
f 172/1/3 170/1/3 171/1/3
f 175/1/3 174/1/3 173/1/3
f 176/1/3 174/1/3 175/1/3
f 179/1/3 178/1/3 177/1/3
f 180/1/3 178/1/3 179/1/3
f 183/3/3 182/3/3 181/3/3
f 184/3/3 182/3/3 183/3/3
f 187/3/3 186/3/3 185/3/3
f 188/3/3 186/3/3 187/3/3
f 191/2/3 190/2/3 189/2/3
f 192/2/3 190/2/3 191/2/3
f 197/1/3 194/1/3 193/1/3
f 198/1/3 194/1/3 197/1/3
f 199/1/3 196/1/3 195/1/3
f 200/1/3 196/1/3 199/1/3
f 203/2/3 202/2/3 201/2/3
f 205/2/3 203/2/3 201/2/3
f 205/2/3 204/2/3 203/2/3
f 206/2/3 204/2/3 205/2/3
f 207/2/3 205/2/3 201/2/3
f 209/2/3 207/2/3 201/2/3
f 209/2/3 208/2/3 207/2/3
f 210/2/3 208/2/3 209/2/3
f 211/2/3 209/2/3 201/2/3
f 212/2/3 209/2/3 211/2/3
f 217/1/3 214/1/3 213/1/3
f 218/1/3 214/1/3 217/1/3
f 219/1/3 216/1/3 215/1/3
f 220/1/3 216/1/3 219/1/3
f 223/1/3 222/1/3 221/1/3
f 224/1/3 222/1/3 223/1/3
f 226/1/3 225/1/3 224/1/3
f 227/1/3 225/1/3 226/1/3
f 230/1/3 229/1/3 228/1/3
f 231/1/3 229/1/3 230/1/3
f 235/1/3 233/1/3 232/1/3
f 236/1/3 233/1/3 235/1/3
f 237/1/3 235/1/3 234/1/3
f 238/1/3 235/1/3 237/1/3
f 239/1/4 240/1/4 241/1/4
f 241/1/4 240/1/4 242/1/4
f 243/1/4 244/1/4 245/1/4
f 245/1/4 244/1/4 246/1/4
f 247/1/4 248/1/4 251/1/4
f 251/1/4 248/1/4 252/1/4
f 249/3/4 250/3/4 253/3/4
f 253/3/4 250/3/4 254/3/4
f 255/3/4 256/3/4 257/3/4
f 257/3/4 256/3/4 258/3/4
f 259/1/4 260/1/4 261/1/4
f 261/1/4 260/1/4 262/1/4
f 263/1/4 264/1/4 266/1/4
f 266/1/4 264/1/4 267/1/4
f 265/3/4 266/3/4 268/3/4
f 268/3/4 266/3/4 269/3/4
f 270/3/4 271/3/4 272/3/4
f 272/3/4 271/3/4 273/3/4
f 273/1/4 274/1/4 275/1/4
f 275/1/4 274/1/4 276/1/4
f 277/1/4 278/1/4 279/1/4
f 279/1/4 280/1/4 281/1/4
f 279/1/4 281/1/4 283/1/4
f 281/1/4 282/1/4 283/1/4
f 283/1/4 282/1/4 284/1/4
f 277/1/4 279/1/4 285/1/4
f 279/1/4 283/1/4 285/1/4
f 285/1/4 283/1/4 286/1/4
f 277/1/4 285/1/4 287/1/4
f 287/1/4 285/1/4 288/1/4
f 293/3/5 290/3/5 289/3/5
f 294/3/5 290/3/5 293/3/5
f 295/3/5 292/3/5 291/3/5
f 296/3/5 292/3/5 295/3/5
f 301/3/5 298/3/5 297/3/5
f 302/3/5 298/3/5 301/3/5
f 303/3/5 300/3/5 299/3/5
f 304/3/5 300/3/5 303/3/5
f 311/1/5 306/1/5 305/1/5
f 312/1/5 308/1/5 307/1/5
f 313/1/5 308/1/5 312/1/5
f 314/1/5 310/1/5 309/1/5
f 315/1/5 313/1/5 312/1/5
f 315/1/5 314/1/5 313/1/5
f 315/1/5 311/1/5 305/1/5
f 315/1/5 312/1/5 311/1/5
f 316/1/5 314/1/5 315/1/5
f 317/1/5 314/1/5 316/1/5
f 318/1/5 310/1/5 314/1/5
f 318/1/5 314/1/5 317/1/5
f 319/1/5 315/1/5 305/1/5
f 320/1/5 315/1/5 319/1/5
f 321/1/5 317/1/5 316/1/5
f 322/1/5 317/1/5 321/1/5
f 323/1/5 310/1/5 318/1/5
f 324/1/5 310/1/5 323/1/5
f 325/1/5 322/1/5 321/1/5
f 325/1/5 323/1/5 322/1/5
f 325/1/5 321/1/5 320/1/5
f 326/1/5 323/1/5 325/1/5
f 331/1/5 328/1/5 327/1/5
f 332/1/5 328/1/5 331/1/5
f 333/1/5 330/1/5 329/1/5
f 334/1/5 330/1/5 333/1/5
f 339/1/5 336/1/5 335/1/5
f 340/1/5 336/1/5 339/1/5
f 341/1/5 338/1/5 337/1/5
f 342/1/5 338/1/5 341/1/5
f 343/1/6 344/1/6 347/1/6
f 347/1/6 344/1/6 348/1/6
f 345/1/6 346/1/6 349/1/6
f 349/1/6 346/1/6 350/1/6
f 351/1/6 352/1/6 355/1/6
f 355/1/6 352/1/6 356/1/6
f 353/1/6 354/1/6 357/1/6
f 357/1/6 354/1/6 358/1/6
f 359/1/6 360/1/6 363/1/6
f 363/1/6 360/1/6 364/1/6
f 361/1/6 362/1/6 365/1/6
f 365/1/6 362/1/6 366/1/6
f 367/2/6 368/2/6 369/2/6
f 369/2/6 368/2/6 370/2/6
f 369/2/6 370/2/6 371/2/6
f 371/2/6 370/2/6 372/2/6
f 373/1/6 374/1/6 377/1/6
f 377/1/6 374/1/6 378/1/6
f 375/1/6 376/1/6 379/1/6
f 379/1/6 376/1/6 380/1/6
f 381/1/6 382/1/6 385/1/6
f 383/1/6 384/1/6 386/1/6
f 381/1/6 385/1/6 387/1/6
f 385/2/6 386/2/6 387/2/6
f 386/1/6 384/1/6 388/1/6
f 387/2/6 386/2/6 388/2/6
f 381/1/6 387/1/6 389/1/6
f 389/1/6 387/1/6 390/1/6
f 390/1/6 387/1/6 391/1/6
f 391/1/6 387/1/6 392/1/6
f 388/1/6 384/1/6 393/1/6
f 393/1/6 384/1/6 394/1/6
f 394/1/6 384/1/6 395/1/6
f 395/1/6 384/1/6 396/1/6
f 390/1/6 391/1/6 397/1/6
f 397/1/6 391/1/6 398/1/6
f 394/1/6 395/1/6 399/1/6
f 399/1/6 395/1/6 400/1/6
f 401/2/6 402/2/6 408/2/6
f 408/2/6 402/2/6 409/2/6
f 403/2/6 404/2/6 410/2/6
f 410/2/6 404/2/6 411/2/6
f 405/2/6 406/2/6 412/2/6
f 412/2/6 406/2/6 413/2/6
f 407/1/6 408/1/6 415/1/6
f 415/1/6 408/1/6 416/1/6
f 413/1/6 414/1/6 417/1/6
f 417/1/6 414/1/6 418/1/6
f 419/2/6 420/2/6 424/2/6
f 424/2/6 420/2/6 425/2/6
f 421/2/6 422/2/6 426/2/6
f 426/2/6 422/2/6 427/2/6
f 424/1/6 425/1/6 429/1/6
f 427/1/6 428/1/6 429/1/6
f 426/1/6 427/1/6 429/1/6
f 425/1/6 426/1/6 429/1/6
f 423/1/6 424/1/6 429/1/6
f 429/1/6 428/1/6 430/1/6
