# MagicaVoxel @ Ephtracy

# group
o 

# material
mtllib BedroomandMainRoom-16.mtl
usemtl palette

# normals
vn 0 0 -1
vn 0 0 1
vn -1 0 0
vn 1 0 0
vn 0 -1 0
vn 0 1 0

# texcoords
vt 0.306641 0.5
vt 0.908203 0.5
vt 0.943359 0.5
vt 0.974609 0.5

# verts
v 18 0.7 2.4
v 19.9 0.7 2.4
v 18 1.1 2.4
v 19.9 1.1 2.4
v 18.1 0.5 2.5
v 19.9 0.5 2.5
v 18.1 0.6 2.5
v 19.9 0.6 2.5
v 18.1 0.7 2.5
v 19.9 0.7 2.5
v 18 1.1 4.4
v 18.3 1.1 4.4
v 18 1.2 4.4
v 18.3 1.2 4.4
v 18.3 1.1 4.5
v 18.4 1.1 4.5
v 18.3 1.2 4.5
v 18.4 1.2 4.5
v 18.4 1.1 4.6
v 18.5 1.1 4.6
v 18.4 1.2 4.6
v 18.5 1.2 4.6
v 18.5 1.1 4.8
v 18.6 1.1 4.8
v 18.5 1.2 4.8
v 18.6 1.2 4.8
v 18.6 1.1 5
v 18.7 1.1 5
v 18.6 1.2 5
v 18.7 1.2 5
v 18.4 1 5.3
v 19.6 1 5.3
v 18.4 1.2 5.3
v 19.6 1.2 5.3
v 18 0.7 4.3
v 18.1 0.7 4.3
v 18 0.8 4.3
v 18.1 0.8 4.3
v 18 0.8 4.4
v 18.1 0.8 4.4
v 18 0.9 4.4
v 18.1 0.9 4.4
v 18 0.9 4.5
v 18.1 0.9 4.5
v 18.1 1 4.5
v 18 1.2 4.5
v 18.1 1.2 4.5
v 18.1 1 4.6
v 18.2 1 4.6
v 18.1 1.2 4.6
v 18.2 1.2 4.6
v 18.2 1 4.7
v 18.3 1 4.7
v 18.2 1.2 4.7
v 18.3 1.2 4.7
v 18.3 1 4.8
v 18.4 1 4.8
v 18.3 1.2 4.8
v 18.4 1.2 4.8
v 18.4 1 5
v 18.5 1 5
v 18.5 1.1 5
v 18.6 1.1 5
v 18.4 1.2 5
v 18.6 1.2 5
v 18.5 1 5.1
v 19.9 1 5.1
v 18.5 1.1 5.1
v 18.6 1.1 5.1
v 18.7 1.1 5.1
v 19.9 1.1 5.1
v 18.6 1.2 5.1
v 18.7 1.2 5.1
v 18.4 1 6.1
v 19.6 1 6.1
v 18.4 1.2 6.1
v 19.6 1.2 6.1
v 18.1 0.5 6.3
v 19.9 0.5 6.3
v 18.1 0.6 6.3
v 19.9 0.6 6.3
v 18.1 1 6.3
v 19.9 1 6.3
v 18 0.7 2.4
v 18 1.1 2.4
v 18 0.7 4.3
v 18 0.8 4.3
v 18 0.8 4.4
v 18 0.9 4.4
v 18 1.1 4.4
v 18 1.2 4.4
v 18 0.9 4.5
v 18 1.2 4.5
v 18.1 0.5 2.5
v 18.1 0.6 2.5
v 18.1 0.7 2.5
v 18.1 0.7 4.3
v 18.1 0.8 4.3
v 18.1 0.8 4.4
v 18.1 0.9 4.4
v 18.1 0.9 4.5
v 18.1 1 4.5
v 18.1 1.2 4.5
v 18.1 1 4.6
v 18.1 1.2 4.6
v 18.1 0.5 6.3
v 18.1 0.6 6.3
v 18.1 1 6.3
v 18.2 1 4.6
v 18.2 1.2 4.6
v 18.2 1 4.7
v 18.2 1.2 4.7
v 18.3 1 4.7
v 18.3 1.2 4.7
v 18.3 1 4.8
v 18.3 1.2 4.8
v 18.4 1 4.8
v 18.4 1.2 4.8
v 18.4 1 5
v 18.4 1.2 5
v 18.4 1 5.3
v 18.4 1.2 5.3
v 18.4 1 6.1
v 18.4 1.2 6.1
v 18.5 1 5
v 18.5 1.1 5
v 18.5 1 5.1
v 18.5 1.1 5.1
v 18.6 1.1 5
v 18.6 1.2 5
v 18.6 1.1 5.1
v 18.6 1.2 5.1
v 18.3 1.1 4.4
v 18.3 1.2 4.4
v 18.3 1.1 4.5
v 18.3 1.2 4.5
v 18.4 1.1 4.5
v 18.4 1.2 4.5
v 18.4 1.1 4.6
v 18.4 1.2 4.6
v 18.5 1.1 4.6
v 18.5 1.2 4.6
v 18.5 1.1 4.8
v 18.5 1.2 4.8
v 18.6 1.1 4.8
v 18.6 1.2 4.8
v 18.6 1.1 5
v 18.6 1.2 5
v 18.7 1.1 5
v 18.7 1.2 5
v 18.7 1.1 5.1
v 18.7 1.2 5.1
v 19.6 1 5.3
v 19.6 1.2 5.3
v 19.6 1 6.1
v 19.6 1.2 6.1
v 19.9 0.7 2.4
v 19.9 1.1 2.4
v 19.9 0.5 2.5
v 19.9 0.6 2.5
v 19.9 0.7 2.5
v 19.9 1 2.5
v 19.9 1 5.1
v 19.9 1.1 5.1
v 19.9 0.5 6.3
v 19.9 0.6 6.3
v 19.9 1 6.3
v 18.1 0.5 2.5
v 18.1 0.5 6.3
v 19.9 0.5 2.5
v 19.9 0.5 6.3
v 18 0.7 2.4
v 18 0.7 4.3
v 18.1 0.7 2.5
v 18.1 0.7 4.3
v 19.9 0.7 2.4
v 19.9 0.7 2.5
v 18 0.8 4.3
v 18 0.8 4.4
v 18.1 0.8 4.3
v 18.1 0.8 4.4
v 18 0.9 4.4
v 18 0.9 4.5
v 18.1 0.9 4.4
v 18.1 0.9 4.5
v 18.1 1 4.6
v 18.1 1 6.3
v 18.2 1 4.6
v 18.2 1 4.7
v 18.3 1 4.7
v 18.3 1 4.8
v 18.4 1 4.8
v 18.4 1 5
v 18.4 1 5.3
v 18.4 1 6.1
v 18.5 1 5
v 18.5 1 5.1
v 19.6 1 5.3
v 19.6 1 6.1
v 19.9 1 5.1
v 19.9 1 6.3
v 18 1.1 2.4
v 18 1.1 4.4
v 18.3 1.1 4.4
v 18.3 1.1 4.5
v 18.4 1.1 4.5
v 18.4 1.1 4.6
v 18.5 1.1 4.6
v 18.5 1.1 4.8
v 18.5 1.1 5
v 18.5 1.1 5.1
v 18.6 1.1 4.8
v 18.6 1.1 5
v 18.6 1.1 5.1
v 18.7 1.1 5
v 18.7 1.1 5.1
v 19.9 1.1 2.4
v 19.9 1.1 5.1
v 18 1.2 4.4
v 18 1.2 4.5
v 18.1 1.2 4.5
v 18.1 1.2 4.6
v 18.2 1.2 4.6
v 18.2 1.2 4.7
v 18.3 1.2 4.4
v 18.3 1.2 4.5
v 18.3 1.2 4.7
v 18.3 1.2 4.8
v 18.4 1.2 4.5
v 18.4 1.2 4.6
v 18.4 1.2 4.8
v 18.4 1.2 5
v 18.4 1.2 5.3
v 18.4 1.2 6.1
v 18.5 1.2 4.6
v 18.5 1.2 4.8
v 18.6 1.2 4.8
v 18.6 1.2 5
v 18.6 1.2 5.1
v 18.7 1.2 5
v 18.7 1.2 5.1
v 19.6 1.2 5.3
v 19.6 1.2 6.1

# faces
f 3/2/1 2/2/1 1/2/1
f 4/2/1 2/2/1 3/2/1
f 7/1/1 6/1/1 5/1/1
f 8/1/1 6/1/1 7/1/1
f 9/3/1 8/3/1 7/3/1
f 10/3/1 8/3/1 9/3/1
f 13/2/1 12/2/1 11/2/1
f 14/2/1 12/2/1 13/2/1
f 17/2/1 16/2/1 15/2/1
f 18/2/1 16/2/1 17/2/1
f 21/2/1 20/2/1 19/2/1
f 22/2/1 20/2/1 21/2/1
f 25/2/1 24/2/1 23/2/1
f 26/2/1 24/2/1 25/2/1
f 29/2/1 28/2/1 27/2/1
f 30/2/1 28/2/1 29/2/1
f 33/4/1 32/4/1 31/4/1
f 34/4/1 32/4/1 33/4/1
f 35/2/2 36/2/2 37/2/2
f 37/2/2 36/2/2 38/2/2
f 39/2/2 40/2/2 41/2/2
f 41/2/2 40/2/2 42/2/2
f 43/2/2 44/2/2 45/2/2
f 43/2/2 45/2/2 46/2/2
f 46/2/2 45/2/2 47/2/2
f 48/2/2 49/2/2 50/2/2
f 50/2/2 49/2/2 51/2/2
f 52/2/2 53/2/2 54/2/2
f 54/2/2 53/2/2 55/2/2
f 56/2/2 57/2/2 58/2/2
f 58/2/2 57/2/2 59/2/2
f 60/2/2 61/2/2 62/2/2
f 60/2/2 62/2/2 64/2/2
f 62/2/2 63/2/2 64/2/2
f 64/2/2 63/2/2 65/2/2
f 66/2/2 67/2/2 68/2/2
f 68/2/2 67/2/2 69/2/2
f 69/2/2 67/2/2 70/2/2
f 70/2/2 67/2/2 71/2/2
f 69/2/2 70/2/2 72/2/2
f 72/2/2 70/2/2 73/2/2
f 74/4/2 75/4/2 76/4/2
f 76/4/2 75/4/2 77/4/2
f 78/1/2 79/1/2 80/1/2
f 80/1/2 79/1/2 81/1/2
f 80/3/2 81/3/2 82/3/2
f 82/3/2 81/3/2 83/3/2
f 86/2/3 85/2/3 84/2/3
f 87/2/3 85/2/3 86/2/3
f 88/2/3 85/2/3 87/2/3
f 89/2/3 85/2/3 88/2/3
f 90/2/3 85/2/3 89/2/3
f 92/2/3 91/2/3 90/2/3
f 92/2/3 90/2/3 89/2/3
f 93/2/3 91/2/3 92/2/3
f 97/3/3 96/3/3 95/3/3
f 99/3/3 98/3/3 97/3/3
f 101/3/3 100/3/3 99/3/3
f 104/3/3 102/3/3 101/3/3
f 104/2/3 103/2/3 102/2/3
f 105/2/3 103/2/3 104/2/3
f 106/1/3 95/1/3 94/1/3
f 107/3/3 97/3/3 95/3/3
f 107/1/3 95/1/3 106/1/3
f 107/3/3 99/3/3 97/3/3
f 107/3/3 104/3/3 101/3/3
f 107/3/3 101/3/3 99/3/3
f 108/3/3 104/3/3 107/3/3
f 111/2/3 110/2/3 109/2/3
f 112/2/3 110/2/3 111/2/3
f 115/2/3 114/2/3 113/2/3
f 116/2/3 114/2/3 115/2/3
f 119/2/3 118/2/3 117/2/3
f 120/2/3 118/2/3 119/2/3
f 123/4/3 122/4/3 121/4/3
f 124/4/3 122/4/3 123/4/3
f 127/2/3 126/2/3 125/2/3
f 128/2/3 126/2/3 127/2/3
f 131/2/3 130/2/3 129/2/3
f 132/2/3 130/2/3 131/2/3
f 133/2/4 134/2/4 135/2/4
f 135/2/4 134/2/4 136/2/4
f 137/2/4 138/2/4 139/2/4
f 139/2/4 138/2/4 140/2/4
f 141/2/4 142/2/4 143/2/4
f 143/2/4 142/2/4 144/2/4
f 145/2/4 146/2/4 147/2/4
f 147/2/4 146/2/4 148/2/4
f 149/2/4 150/2/4 151/2/4
f 151/2/4 150/2/4 152/2/4
f 153/4/4 154/4/4 155/4/4
f 155/4/4 154/4/4 156/4/4
f 157/2/4 158/2/4 161/2/4
f 161/2/4 158/2/4 162/2/4
f 160/3/4 161/3/4 163/3/4
f 162/2/4 158/2/4 163/2/4
f 161/3/4 162/3/4 163/3/4
f 163/2/4 158/2/4 164/2/4
f 159/1/4 160/1/4 165/1/4
f 160/3/4 163/3/4 166/3/4
f 165/1/4 160/1/4 166/1/4
f 166/3/4 163/3/4 167/3/4
f 170/1/5 169/1/5 168/1/5
f 171/1/5 169/1/5 170/1/5
f 174/2/5 173/2/5 172/2/5
f 175/2/5 173/2/5 174/2/5
f 176/2/5 174/2/5 172/2/5
f 177/2/5 174/2/5 176/2/5
f 180/2/5 179/2/5 178/2/5
f 181/2/5 179/2/5 180/2/5
f 184/2/5 183/2/5 182/2/5
f 185/2/5 183/2/5 184/2/5
f 186/3/6 187/3/6 188/3/6
f 188/3/6 187/3/6 189/3/6
f 189/3/6 187/3/6 190/3/6
f 190/3/6 187/3/6 191/3/6
f 191/3/6 187/3/6 192/3/6
f 192/3/6 187/3/6 193/3/6
f 193/3/6 187/3/6 194/3/6
f 194/3/6 187/3/6 195/3/6
f 193/3/6 194/3/6 196/3/6
f 196/3/6 194/3/6 197/3/6
f 197/3/6 194/3/6 198/3/6
f 195/3/6 187/3/6 199/3/6
f 197/3/6 198/3/6 200/3/6
f 198/3/6 199/3/6 200/3/6
f 199/3/6 187/3/6 201/3/6
f 200/3/6 199/3/6 201/3/6
f 202/2/6 203/2/6 204/2/6
f 204/2/6 205/2/6 206/2/6
f 206/2/6 207/2/6 208/2/6
f 208/2/6 209/2/6 212/2/6
f 210/2/6 211/2/6 213/2/6
f 213/2/6 211/2/6 214/2/6
f 212/2/6 213/2/6 215/2/6
f 202/2/6 204/2/6 217/2/6
f 215/2/6 216/2/6 217/2/6
f 212/2/6 215/2/6 217/2/6
f 204/2/6 206/2/6 217/2/6
f 206/2/6 208/2/6 217/2/6
f 208/2/6 212/2/6 217/2/6
f 217/2/6 216/2/6 218/2/6
f 219/2/6 220/2/6 221/2/6
f 221/2/6 222/2/6 223/2/6
f 219/2/6 221/2/6 225/2/6
f 223/2/6 224/2/6 225/2/6
f 221/2/6 223/2/6 225/2/6
f 225/2/6 224/2/6 226/2/6
f 226/2/6 224/2/6 227/2/6
f 227/2/6 228/2/6 229/2/6
f 226/2/6 227/2/6 229/2/6
f 229/2/6 228/2/6 230/2/6
f 230/2/6 228/2/6 231/2/6
f 230/2/6 231/2/6 235/2/6
f 231/2/6 232/2/6 235/2/6
f 235/2/6 232/2/6 236/2/6
f 236/2/6 232/2/6 237/2/6
f 237/2/6 232/2/6 238/2/6
f 238/2/6 239/2/6 240/2/6
f 240/2/6 239/2/6 241/2/6
f 233/4/6 234/4/6 242/4/6
f 242/4/6 234/4/6 243/4/6
