# MagicaVoxel @ Ephtracy

# group
o 

# material
mtllib BedroomandMainRoom-4.mtl
usemtl palette

# normals
vn -1 0 0
vn 1 0 0
vn 0 0 1
vn 0 0 -1
vn 0 -1 0
vn 0 1 0

# texcoords
vt 0.935547 0.5
vt 0.962891 0.5
vt 0.966797 0.5
vt 0.994141 0.5

# verts
v 6.2 0.5 -2.5
v 6.2 0.5 -4.4
v 6.2 0.6 -2.5
v 6.2 0.6 -2.9
v 6.2 0.6 -3
v 6.2 0.6 -4.4
v 6.2 0.7 -2.9
v 6.2 0.7 -3
v 6.3 0 -2.6
v 6.3 0 -2.8
v 6.3 0 -4.1
v 6.3 0 -4.3
v 6.3 0.5 -2.6
v 6.3 0.5 -2.8
v 6.3 0.5 -4.1
v 6.3 0.5 -4.3
v 6.3 0.6 -3
v 6.3 0.6 -3.3
v 6.3 0.7 -3
v 6.3 0.7 -3.2
v 6.3 0.9 -3.2
v 6.3 0.9 -3.3
v 6.5 0.6 -3
v 6.5 0.6 -3.9
v 6.5 0.7 -3.1
v 6.5 0.7 -3.8
v 6.5 1.2 -3.1
v 6.5 1.2 -3.8
v 6.5 1.3 -3
v 6.5 1.3 -3.9
v 6.6 0.6 -2.9
v 6.6 0.6 -3
v 6.6 0.6 -3.9
v 6.6 0.6 -4
v 6.6 0.7 -3.1
v 6.6 0.7 -3.8
v 6.6 0.8 -3.2
v 6.6 0.8 -3.3
v 6.6 0.9 -3.2
v 6.6 0.9 -3.3
v 6.6 1 -2.9
v 6.6 1 -3
v 6.6 1 -3.9
v 6.6 1 -4
v 6.6 1.2 -3.1
v 6.6 1.2 -3.8
v 6.6 1.3 -3
v 6.6 1.3 -3.9
v 6.6 1.4 -3
v 6.6 1.4 -3.1
v 6.6 1.4 -3.8
v 6.6 1.4 -3.9
v 6.6 1.5 -3.1
v 6.6 1.5 -3.8
v 6.7 1 -2.9
v 6.7 1 -3
v 6.7 1 -3.9
v 6.7 1 -4
v 6.7 1.1 -2.9
v 6.7 1.1 -3
v 6.7 1.1 -3.9
v 6.7 1.1 -4
v 6.8 1.1 -2.9
v 6.8 1.1 -3
v 6.8 1.1 -3.9
v 6.8 1.1 -4
v 6.8 1.2 -2.9
v 6.8 1.2 -3
v 6.8 1.2 -3.9
v 6.8 1.2 -4
v 6.9 1.2 -2.9
v 6.9 1.2 -3
v 6.9 1.2 -3.9
v 6.9 1.2 -4
v 6.9 1.3 -2.9
v 6.9 1.3 -3
v 6.9 1.3 -3.9
v 6.9 1.3 -4
v 7 0.9 -2.9
v 7 0.9 -3
v 7 1 -2.9
v 7 1 -3
v 7 1.3 -2.9
v 7 1.3 -3
v 7 1.3 -3.9
v 7 1.3 -4
v 7 1.4 -2.9
v 7 1.4 -3
v 7 1.4 -3.9
v 7 1.4 -4
v 7.1 0.8 -2.9
v 7.1 0.8 -3
v 7.1 0.8 -3.9
v 7.1 0.8 -4
v 7.1 0.9 -2.9
v 7.1 0.9 -3
v 7.1 0.9 -3.9
v 7.1 0.9 -4
v 7.1 1 -2.9
v 7.1 1 -3
v 7.1 1.1 -2.9
v 7.1 1.1 -3
v 7.1 1.4 -3
v 7.1 1.4 -3.1
v 7.1 1.4 -3.8
v 7.1 1.4 -3.9
v 7.1 1.5 -3
v 7.1 1.5 -3.1
v 7.1 1.5 -3.8
v 7.1 1.5 -3.9
v 7.2 0.7 -3.9
v 7.2 0.7 -4
v 7.2 0.8 -3.9
v 7.2 0.8 -4
v 7.2 0.9 -2.9
v 7.2 0.9 -3
v 7.2 0.9 -3.9
v 7.2 0.9 -4
v 7.2 1 -2.9
v 7.2 1 -3
v 7.2 1 -3.9
v 7.2 1 -4
v 7.2 1.4 -2.9
v 7.2 1.4 -3
v 7.2 1.4 -3.9
v 7.2 1.4 -4
v 7.2 1.5 -2.9
v 7.2 1.5 -3
v 7.2 1.5 -3.9
v 7.2 1.5 -4
v 7.3 0 -2.6
v 7.3 0 -2.8
v 7.3 0 -4.1
v 7.3 0 -4.3
v 7.3 0.5 -2.6
v 7.3 0.5 -2.8
v 7.3 0.5 -4.1
v 7.3 0.5 -4.3
v 7.3 0.8 -3.9
v 7.3 0.8 -4
v 7.3 0.9 -3.9
v 7.3 0.9 -4
v 6.4 0.6 -2.9
v 6.4 0.6 -3.3
v 6.4 0.7 -2.9
v 6.4 0.7 -3.2
v 6.4 0.8 -3.2
v 6.4 0.8 -3.3
v 6.5 0 -2.6
v 6.5 0 -2.8
v 6.5 0 -4.1
v 6.5 0 -4.3
v 6.5 0.5 -2.6
v 6.5 0.5 -2.8
v 6.5 0.5 -4.1
v 6.5 0.5 -4.3
v 6.9 0.9 -2.9
v 6.9 0.9 -3
v 6.9 1 -2.9
v 6.9 1 -3
v 7 0.8 -2.9
v 7 0.8 -3
v 7 0.8 -3.9
v 7 0.8 -4
v 7 0.9 -2.9
v 7 0.9 -3
v 7 0.9 -3.9
v 7 0.9 -4
v 7 1 -2.9
v 7 1 -3
v 7 1.1 -2.9
v 7 1.1 -3
v 7.1 0.7 -3.9
v 7.1 0.7 -4
v 7.1 0.8 -3.9
v 7.1 0.8 -4
v 7.1 0.9 -2.9
v 7.1 0.9 -3
v 7.1 0.9 -3.9
v 7.1 0.9 -4
v 7.1 1 -2.9
v 7.1 1 -3
v 7.1 1 -3.9
v 7.1 1 -4
v 7.2 0.8 -3.9
v 7.2 0.8 -4
v 7.2 0.9 -3.9
v 7.2 0.9 -4
v 7.4 0.7 -3
v 7.4 0.7 -3.9
v 7.4 1.4 -3
v 7.4 1.4 -3.9
v 7.5 0 -2.6
v 7.5 0 -2.8
v 7.5 0 -4.1
v 7.5 0 -4.3
v 7.5 0.5 -2.6
v 7.5 0.5 -2.8
v 7.5 0.5 -4.1
v 7.5 0.5 -4.3
v 7.5 0.6 -2.9
v 7.5 0.6 -4
v 7.5 0.7 -3
v 7.5 0.7 -3.9
v 7.5 1.4 -3
v 7.5 1.4 -3.9
v 7.5 1.5 -2.9
v 7.5 1.5 -4
v 7.6 0.5 -2.5
v 7.6 0.5 -4.4
v 7.6 0.6 -2.5
v 7.6 0.6 -4.4
v 6.2 0.5 -2.5
v 6.2 0.6 -2.5
v 7.6 0.5 -2.5
v 7.6 0.6 -2.5
v 6.3 0 -2.6
v 6.3 0.5 -2.6
v 6.5 0 -2.6
v 6.5 0.5 -2.6
v 7.3 0 -2.6
v 7.3 0.5 -2.6
v 7.5 0 -2.6
v 7.5 0.5 -2.6
v 6.2 0.6 -2.9
v 6.2 0.7 -2.9
v 6.4 0.6 -2.9
v 6.4 0.7 -2.9
v 6.6 0.6 -2.9
v 6.6 1 -2.9
v 6.7 1 -2.9
v 6.7 1.1 -2.9
v 6.8 1.1 -2.9
v 6.8 1.2 -2.9
v 6.9 0.9 -2.9
v 6.9 1 -2.9
v 6.9 1.2 -2.9
v 6.9 1.3 -2.9
v 7 0.8 -2.9
v 7 0.9 -2.9
v 7 1 -2.9
v 7 1.1 -2.9
v 7 1.3 -2.9
v 7 1.4 -2.9
v 7.1 0.8 -2.9
v 7.1 0.9 -2.9
v 7.1 1 -2.9
v 7.1 1.1 -2.9
v 7.2 0.9 -2.9
v 7.2 1 -2.9
v 7.2 1.4 -2.9
v 7.2 1.5 -2.9
v 7.5 0.6 -2.9
v 7.5 1.5 -2.9
v 6.5 0.6 -3
v 6.5 1.3 -3
v 6.6 0.6 -3
v 6.6 1 -3
v 6.6 1.3 -3
v 6.6 1.4 -3
v 6.7 1 -3
v 6.7 1.1 -3
v 6.8 1.1 -3
v 6.8 1.2 -3
v 6.9 0.9 -3
v 6.9 1 -3
v 6.9 1.2 -3
v 6.9 1.3 -3
v 7 0.8 -3
v 7 0.9 -3
v 7 1 -3
v 7 1.1 -3
v 7 1.3 -3
v 7 1.4 -3
v 7.1 0.8 -3
v 7.1 0.9 -3
v 7.1 1 -3
v 7.1 1.1 -3
v 7.1 1.4 -3
v 7.1 1.5 -3
v 7.2 0.9 -3
v 7.2 1 -3
v 7.2 1.4 -3
v 7.2 1.5 -3
v 6.6 1.4 -3.1
v 6.6 1.5 -3.1
v 7.1 1.4 -3.1
v 7.1 1.5 -3.1
v 6.3 0.7 -3.2
v 6.3 0.9 -3.2
v 6.4 0.7 -3.2
v 6.4 0.8 -3.2
v 6.6 0.8 -3.2
v 6.6 0.9 -3.2
v 6.5 0.7 -3.8
v 6.5 1.2 -3.8
v 6.6 0.7 -3.8
v 6.6 1.2 -3.8
v 7.4 0.7 -3.9
v 7.4 1.4 -3.9
v 7.5 0.7 -3.9
v 7.5 1.4 -3.9
v 6.3 0 -4.1
v 6.3 0.5 -4.1
v 6.5 0 -4.1
v 6.5 0.5 -4.1
v 7.3 0 -4.1
v 7.3 0.5 -4.1
v 7.5 0 -4.1
v 7.5 0.5 -4.1
v 6.3 0 -2.8
v 6.3 0.5 -2.8
v 6.5 0 -2.8
v 6.5 0.5 -2.8
v 7.3 0 -2.8
v 7.3 0.5 -2.8
v 7.5 0 -2.8
v 7.5 0.5 -2.8
v 6.2 0.6 -3
v 6.2 0.7 -3
v 6.3 0.6 -3
v 6.3 0.7 -3
v 7.4 0.7 -3
v 7.4 1.4 -3
v 7.5 0.7 -3
v 7.5 1.4 -3
v 6.5 0.7 -3.1
v 6.5 1.2 -3.1
v 6.6 0.7 -3.1
v 6.6 1.2 -3.1
v 6.3 0.6 -3.3
v 6.3 0.9 -3.3
v 6.4 0.6 -3.3
v 6.4 0.8 -3.3
v 6.6 0.8 -3.3
v 6.6 0.9 -3.3
v 6.6 1.4 -3.8
v 6.6 1.5 -3.8
v 7.1 1.4 -3.8
v 7.1 1.5 -3.8
v 6.5 0.6 -3.9
v 6.5 1.3 -3.9
v 6.6 0.6 -3.9
v 6.6 1 -3.9
v 6.6 1.3 -3.9
v 6.6 1.4 -3.9
v 6.7 1 -3.9
v 6.7 1.1 -3.9
v 6.8 1.1 -3.9
v 6.8 1.2 -3.9
v 6.9 1.2 -3.9
v 6.9 1.3 -3.9
v 7 0.8 -3.9
v 7 0.9 -3.9
v 7 1.3 -3.9
v 7 1.4 -3.9
v 7.1 0.7 -3.9
v 7.1 0.8 -3.9
v 7.1 0.9 -3.9
v 7.1 1 -3.9
v 7.1 1.4 -3.9
v 7.1 1.5 -3.9
v 7.2 0.7 -3.9
v 7.2 0.8 -3.9
v 7.2 0.9 -3.9
v 7.2 1 -3.9
v 7.2 1.4 -3.9
v 7.2 1.5 -3.9
v 7.3 0.8 -3.9
v 7.3 0.9 -3.9
v 6.6 0.6 -4
v 6.6 1 -4
v 6.7 1 -4
v 6.7 1.1 -4
v 6.8 1.1 -4
v 6.8 1.2 -4
v 6.9 1.2 -4
v 6.9 1.3 -4
v 7 0.8 -4
v 7 0.9 -4
v 7 1.3 -4
v 7 1.4 -4
v 7.1 0.7 -4
v 7.1 0.8 -4
v 7.1 0.9 -4
v 7.1 1 -4
v 7.2 0.7 -4
v 7.2 0.8 -4
v 7.2 0.9 -4
v 7.2 1 -4
v 7.2 1.4 -4
v 7.2 1.5 -4
v 7.3 0.8 -4
v 7.3 0.9 -4
v 7.5 0.6 -4
v 7.5 1.5 -4
v 6.3 0 -4.3
v 6.3 0.5 -4.3
v 6.5 0 -4.3
v 6.5 0.5 -4.3
v 7.3 0 -4.3
v 7.3 0.5 -4.3
v 7.5 0 -4.3
v 7.5 0.5 -4.3
v 6.2 0.5 -4.4
v 6.2 0.6 -4.4
v 7.6 0.5 -4.4
v 7.6 0.6 -4.4
v 6.3 0 -2.6
v 6.5 0 -2.6
v 7.3 0 -2.6
v 7.5 0 -2.6
v 6.3 0 -2.8
v 6.5 0 -2.8
v 7.3 0 -2.8
v 7.5 0 -2.8
v 6.3 0 -4.1
v 6.5 0 -4.1
v 7.3 0 -4.1
v 7.5 0 -4.1
v 6.3 0 -4.3
v 6.5 0 -4.3
v 7.3 0 -4.3
v 7.5 0 -4.3
v 6.2 0.5 -2.5
v 7.6 0.5 -2.5
v 6.3 0.5 -2.6
v 6.5 0.5 -2.6
v 7.3 0.5 -2.6
v 7.5 0.5 -2.6
v 6.3 0.5 -2.8
v 6.5 0.5 -2.8
v 7.3 0.5 -2.8
v 7.5 0.5 -2.8
v 6.3 0.5 -4.1
v 6.5 0.5 -4.1
v 7.3 0.5 -4.1
v 7.5 0.5 -4.1
v 6.3 0.5 -4.3
v 6.5 0.5 -4.3
v 7.3 0.5 -4.3
v 7.5 0.5 -4.3
v 6.2 0.5 -4.4
v 7.6 0.5 -4.4
v 6.4 0.8 -3.2
v 6.6 0.8 -3.2
v 6.4 0.8 -3.3
v 6.6 0.8 -3.3
v 7.1 0.8 -3.9
v 7.2 0.8 -3.9
v 7.1 0.8 -4
v 7.2 0.8 -4
v 7 0.9 -2.9
v 7.1 0.9 -2.9
v 7 0.9 -3
v 7.1 0.9 -3
v 7 0.9 -3.9
v 7.1 0.9 -3.9
v 7.2 0.9 -3.9
v 7.3 0.9 -3.9
v 7 0.9 -4
v 7.1 0.9 -4
v 7.2 0.9 -4
v 7.3 0.9 -4
v 6.9 1 -2.9
v 7 1 -2.9
v 7.1 1 -2.9
v 7.2 1 -2.9
v 6.9 1 -3
v 7 1 -3
v 7.1 1 -3
v 7.2 1 -3
v 7.1 1 -3.9
v 7.2 1 -3.9
v 7.1 1 -4
v 7.2 1 -4
v 7 1.1 -2.9
v 7.1 1.1 -2.9
v 7 1.1 -3
v 7.1 1.1 -3
v 6.5 1.2 -3.1
v 6.6 1.2 -3.1
v 6.5 1.2 -3.8
v 6.6 1.2 -3.8
v 7.4 1.4 -3
v 7.5 1.4 -3
v 7.4 1.4 -3.9
v 7.5 1.4 -3.9
v 6.2 0.6 -2.5
v 7.6 0.6 -2.5
v 6.2 0.6 -2.9
v 6.4 0.6 -2.9
v 6.6 0.6 -2.9
v 7.5 0.6 -2.9
v 6.2 0.6 -3
v 6.3 0.6 -3
v 6.5 0.6 -3
v 6.6 0.6 -3
v 6.3 0.6 -3.3
v 6.4 0.6 -3.3
v 6.5 0.6 -3.9
v 6.6 0.6 -3.9
v 6.6 0.6 -4
v 7.5 0.6 -4
v 6.2 0.6 -4.4
v 7.6 0.6 -4.4
v 6.2 0.7 -2.9
v 6.4 0.7 -2.9
v 6.2 0.7 -3
v 6.3 0.7 -3
v 7.4 0.7 -3
v 7.5 0.7 -3
v 6.5 0.7 -3.1
v 6.6 0.7 -3.1
v 6.3 0.7 -3.2
v 6.4 0.7 -3.2
v 6.5 0.7 -3.8
v 6.6 0.7 -3.8
v 7.1 0.7 -3.9
v 7.2 0.7 -3.9
v 7.4 0.7 -3.9
v 7.5 0.7 -3.9
v 7.1 0.7 -4
v 7.2 0.7 -4
v 7 0.8 -2.9
v 7.1 0.8 -2.9
v 7 0.8 -3
v 7.1 0.8 -3
v 7 0.8 -3.9
v 7.1 0.8 -3.9
v 7.2 0.8 -3.9
v 7.3 0.8 -3.9
v 7 0.8 -4
v 7.1 0.8 -4
v 7.2 0.8 -4
v 7.3 0.8 -4
v 6.9 0.9 -2.9
v 7 0.9 -2.9
v 7.1 0.9 -2.9
v 7.2 0.9 -2.9
v 6.9 0.9 -3
v 7 0.9 -3
v 7.1 0.9 -3
v 7.2 0.9 -3
v 6.3 0.9 -3.2
v 6.6 0.9 -3.2
v 6.3 0.9 -3.3
v 6.6 0.9 -3.3
v 7.1 0.9 -3.9
v 7.2 0.9 -3.9
v 7.1 0.9 -4
v 7.2 0.9 -4
v 6.6 1 -2.9
v 6.7 1 -2.9
v 7 1 -2.9
v 7.1 1 -2.9
v 6.6 1 -3
v 6.7 1 -3
v 7 1 -3
v 7.1 1 -3
v 6.6 1 -3.9
v 6.7 1 -3.9
v 6.6 1 -4
v 6.7 1 -4
v 6.7 1.1 -2.9
v 6.8 1.1 -2.9
v 6.7 1.1 -3
v 6.8 1.1 -3
v 6.7 1.1 -3.9
v 6.8 1.1 -3.9
v 6.7 1.1 -4
v 6.8 1.1 -4
v 6.8 1.2 -2.9
v 6.9 1.2 -2.9
v 6.8 1.2 -3
v 6.9 1.2 -3
v 6.8 1.2 -3.9
v 6.9 1.2 -3.9
v 6.8 1.2 -4
v 6.9 1.2 -4
v 6.9 1.3 -2.9
v 7 1.3 -2.9
v 6.5 1.3 -3
v 6.6 1.3 -3
v 6.9 1.3 -3
v 7 1.3 -3
v 6.5 1.3 -3.9
v 6.6 1.3 -3.9
v 6.9 1.3 -3.9
v 7 1.3 -3.9
v 6.9 1.3 -4
v 7 1.3 -4
v 7 1.4 -2.9
v 7.2 1.4 -2.9
v 6.6 1.4 -3
v 7 1.4 -3
v 7.1 1.4 -3
v 7.2 1.4 -3
v 6.6 1.4 -3.1
v 7.1 1.4 -3.1
v 6.6 1.4 -3.8
v 7.1 1.4 -3.8
v 6.6 1.4 -3.9
v 7 1.4 -3.9
v 7.1 1.4 -3.9
v 7.2 1.4 -3.9
v 7 1.4 -4
v 7.2 1.4 -4
v 7.2 1.5 -2.9
v 7.5 1.5 -2.9
v 7.1 1.5 -3
v 7.2 1.5 -3
v 6.6 1.5 -3.1
v 7.1 1.5 -3.1
v 6.6 1.5 -3.8
v 7.1 1.5 -3.8
v 7.1 1.5 -3.9
v 7.2 1.5 -3.9
v 7.2 1.5 -4
v 7.5 1.5 -4

# faces
f 3/2/1 2/2/1 1/2/1
f 4/2/1 2/2/1 3/2/1
f 5/2/1 2/2/1 4/2/1
f 6/2/1 2/2/1 5/2/1
f 7/1/1 5/1/1 4/1/1
f 8/1/1 5/1/1 7/1/1
f 13/4/1 10/4/1 9/4/1
f 14/4/1 10/4/1 13/4/1
f 15/4/1 12/4/1 11/4/1
f 16/4/1 12/4/1 15/4/1
f 19/1/1 18/1/1 17/1/1
f 20/1/1 18/1/1 19/1/1
f 21/1/1 18/1/1 20/1/1
f 22/1/1 18/1/1 21/1/1
f 25/3/1 24/3/1 23/3/1
f 26/3/1 24/3/1 25/3/1
f 27/3/1 25/3/1 23/3/1
f 28/3/1 24/3/1 26/3/1
f 29/3/1 27/3/1 23/3/1
f 29/3/1 28/3/1 27/3/1
f 30/3/1 24/3/1 28/3/1
f 30/3/1 28/3/1 29/3/1
f 37/3/1 36/3/1 35/3/1
f 38/3/1 36/3/1 37/3/1
f 39/3/1 37/3/1 35/3/1
f 40/3/1 36/3/1 38/3/1
f 41/3/1 32/3/1 31/3/1
f 42/3/1 32/3/1 41/3/1
f 43/3/1 34/3/1 33/3/1
f 44/3/1 34/3/1 43/3/1
f 45/3/1 40/3/1 39/3/1
f 45/3/1 39/3/1 35/3/1
f 46/3/1 36/3/1 40/3/1
f 46/3/1 40/3/1 45/3/1
f 49/3/1 48/3/1 47/3/1
f 50/3/1 48/3/1 49/3/1
f 51/3/1 48/3/1 50/3/1
f 52/3/1 48/3/1 51/3/1
f 53/3/1 51/3/1 50/3/1
f 54/3/1 51/3/1 53/3/1
f 59/3/1 56/3/1 55/3/1
f 60/3/1 56/3/1 59/3/1
f 61/3/1 58/3/1 57/3/1
f 62/3/1 58/3/1 61/3/1
f 67/3/1 64/3/1 63/3/1
f 68/3/1 64/3/1 67/3/1
f 69/3/1 66/3/1 65/3/1
f 70/3/1 66/3/1 69/3/1
f 75/3/1 72/3/1 71/3/1
f 76/3/1 72/3/1 75/3/1
f 77/3/1 74/3/1 73/3/1
f 78/3/1 74/3/1 77/3/1
f 81/3/1 80/3/1 79/3/1
f 82/3/1 80/3/1 81/3/1
f 87/3/1 84/3/1 83/3/1
f 88/3/1 84/3/1 87/3/1
f 89/3/1 86/3/1 85/3/1
f 90/3/1 86/3/1 89/3/1
f 95/3/1 92/3/1 91/3/1
f 96/3/1 92/3/1 95/3/1
f 97/3/1 94/3/1 93/3/1
f 98/3/1 94/3/1 97/3/1
f 101/3/1 100/3/1 99/3/1
f 102/3/1 100/3/1 101/3/1
f 107/3/1 104/3/1 103/3/1
f 108/3/1 104/3/1 107/3/1
f 109/3/1 106/3/1 105/3/1
f 110/3/1 106/3/1 109/3/1
f 113/3/1 112/3/1 111/3/1
f 114/3/1 112/3/1 113/3/1
f 119/3/1 116/3/1 115/3/1
f 120/3/1 116/3/1 119/3/1
f 121/3/1 118/3/1 117/3/1
f 122/3/1 118/3/1 121/3/1
f 127/3/1 124/3/1 123/3/1
f 128/3/1 124/3/1 127/3/1
f 129/3/1 126/3/1 125/3/1
f 130/3/1 126/3/1 129/3/1
f 135/4/1 132/4/1 131/4/1
f 136/4/1 132/4/1 135/4/1
f 137/4/1 134/4/1 133/4/1
f 138/4/1 134/4/1 137/4/1
f 141/3/1 140/3/1 139/3/1
f 142/3/1 140/3/1 141/3/1
f 143/1/2 144/1/2 145/1/2
f 145/1/2 144/1/2 146/1/2
f 146/1/2 144/1/2 147/1/2
f 147/1/2 144/1/2 148/1/2
f 149/4/2 150/4/2 153/4/2
f 153/4/2 150/4/2 154/4/2
f 151/4/2 152/4/2 155/4/2
f 155/4/2 152/4/2 156/4/2
f 157/3/2 158/3/2 159/3/2
f 159/3/2 158/3/2 160/3/2
f 161/3/2 162/3/2 165/3/2
f 165/3/2 162/3/2 166/3/2
f 163/3/2 164/3/2 167/3/2
f 167/3/2 164/3/2 168/3/2
f 169/3/2 170/3/2 171/3/2
f 171/3/2 170/3/2 172/3/2
f 173/3/2 174/3/2 175/3/2
f 175/3/2 174/3/2 176/3/2
f 177/3/2 178/3/2 181/3/2
f 181/3/2 178/3/2 182/3/2
f 179/3/2 180/3/2 183/3/2
f 183/3/2 180/3/2 184/3/2
f 185/3/2 186/3/2 187/3/2
f 187/3/2 186/3/2 188/3/2
f 189/3/2 190/3/2 191/3/2
f 191/3/2 190/3/2 192/3/2
f 193/4/2 194/4/2 197/4/2
f 197/4/2 194/4/2 198/4/2
f 195/4/2 196/4/2 199/4/2
f 199/4/2 196/4/2 200/4/2
f 201/3/2 202/3/2 203/3/2
f 203/3/2 202/3/2 204/3/2
f 201/3/2 203/3/2 205/3/2
f 204/3/2 202/3/2 206/3/2
f 201/3/2 205/3/2 207/3/2
f 205/3/2 206/3/2 207/3/2
f 206/3/2 202/3/2 208/3/2
f 207/3/2 206/3/2 208/3/2
f 209/2/2 210/2/2 211/2/2
f 211/2/2 210/2/2 212/2/2
f 215/2/3 214/2/3 213/2/3
f 216/2/3 214/2/3 215/2/3
f 219/4/3 218/4/3 217/4/3
f 220/4/3 218/4/3 219/4/3
f 223/4/3 222/4/3 221/4/3
f 224/4/3 222/4/3 223/4/3
f 227/1/3 226/1/3 225/1/3
f 228/1/3 226/1/3 227/1/3
f 231/3/3 230/3/3 229/3/3
f 233/3/3 232/3/3 231/3/3
f 235/3/3 231/3/3 229/3/3
f 235/3/3 234/3/3 233/3/3
f 235/3/3 233/3/3 231/3/3
f 236/3/3 234/3/3 235/3/3
f 237/3/3 234/3/3 236/3/3
f 239/3/3 235/3/3 229/3/3
f 240/3/3 235/3/3 239/3/3
f 241/3/3 238/3/3 237/3/3
f 241/3/3 237/3/3 236/3/3
f 242/3/3 238/3/3 241/3/3
f 243/3/3 238/3/3 242/3/3
f 245/3/3 239/3/3 229/3/3
f 246/3/3 241/3/3 240/3/3
f 247/3/3 241/3/3 246/3/3
f 248/3/3 244/3/3 243/3/3
f 248/3/3 243/3/3 242/3/3
f 249/3/3 246/3/3 245/3/3
f 250/3/3 248/3/3 247/3/3
f 251/3/3 244/3/3 248/3/3
f 251/3/3 248/3/3 250/3/3
f 253/3/3 249/3/3 245/3/3
f 253/3/3 252/3/3 251/3/3
f 253/3/3 251/3/3 250/3/3
f 253/3/3 250/3/3 249/3/3
f 253/3/3 245/3/3 229/3/3
f 254/3/3 252/3/3 253/3/3
f 257/3/3 256/3/3 255/3/3
f 258/3/3 256/3/3 257/3/3
f 259/3/3 256/3/3 258/3/3
f 261/3/3 260/3/3 259/3/3
f 261/3/3 259/3/3 258/3/3
f 262/3/3 260/3/3 261/3/3
f 263/3/3 260/3/3 262/3/3
f 264/3/3 260/3/3 263/3/3
f 267/3/3 260/3/3 264/3/3
f 268/3/3 260/3/3 267/3/3
f 270/3/3 266/3/3 265/3/3
f 271/3/3 266/3/3 270/3/3
f 273/3/3 260/3/3 268/3/3
f 274/3/3 260/3/3 273/3/3
f 275/3/3 270/3/3 269/3/3
f 276/3/3 270/3/3 275/3/3
f 277/3/3 272/3/3 271/3/3
f 278/3/3 272/3/3 277/3/3
f 281/3/3 277/3/3 276/3/3
f 282/3/3 277/3/3 281/3/3
f 283/3/3 280/3/3 279/3/3
f 284/3/3 280/3/3 283/3/3
f 287/3/3 286/3/3 285/3/3
f 288/3/3 286/3/3 287/3/3
f 291/1/3 290/1/3 289/1/3
f 292/1/3 290/1/3 291/1/3
f 293/1/3 290/1/3 292/1/3
f 294/1/3 290/1/3 293/1/3
f 297/3/3 296/3/3 295/3/3
f 298/3/3 296/3/3 297/3/3
f 301/3/3 300/3/3 299/3/3
f 302/3/3 300/3/3 301/3/3
f 305/4/3 304/4/3 303/4/3
f 306/4/3 304/4/3 305/4/3
f 309/4/3 308/4/3 307/4/3
f 310/4/3 308/4/3 309/4/3
f 311/4/4 312/4/4 313/4/4
f 313/4/4 312/4/4 314/4/4
f 315/4/4 316/4/4 317/4/4
f 317/4/4 316/4/4 318/4/4
f 319/1/4 320/1/4 321/1/4
f 321/1/4 320/1/4 322/1/4
f 323/3/4 324/3/4 325/3/4
f 325/3/4 324/3/4 326/3/4
f 327/3/4 328/3/4 329/3/4
f 329/3/4 328/3/4 330/3/4
f 331/1/4 332/1/4 333/1/4
f 333/1/4 332/1/4 334/1/4
f 334/1/4 332/1/4 335/1/4
f 335/1/4 332/1/4 336/1/4
f 337/3/4 338/3/4 339/3/4
f 339/3/4 338/3/4 340/3/4
f 341/3/4 342/3/4 343/3/4
f 343/3/4 342/3/4 344/3/4
f 344/3/4 342/3/4 345/3/4
f 345/3/4 346/3/4 347/3/4
f 344/3/4 345/3/4 347/3/4
f 347/3/4 346/3/4 348/3/4
f 348/3/4 346/3/4 349/3/4
f 349/3/4 346/3/4 350/3/4
f 350/3/4 346/3/4 351/3/4
f 351/3/4 346/3/4 352/3/4
f 352/3/4 346/3/4 355/3/4
f 355/3/4 346/3/4 356/3/4
f 353/3/4 354/3/4 358/3/4
f 358/3/4 354/3/4 359/3/4
f 357/3/4 358/3/4 363/3/4
f 363/3/4 358/3/4 364/3/4
f 359/3/4 360/3/4 365/3/4
f 365/3/4 360/3/4 366/3/4
f 361/3/4 362/3/4 367/3/4
f 367/3/4 362/3/4 368/3/4
f 364/3/4 365/3/4 369/3/4
f 369/3/4 365/3/4 370/3/4
f 371/3/4 372/3/4 373/3/4
f 373/3/4 374/3/4 375/3/4
f 375/3/4 376/3/4 377/3/4
f 371/3/4 373/3/4 379/3/4
f 377/3/4 378/3/4 379/3/4
f 375/3/4 377/3/4 379/3/4
f 373/3/4 375/3/4 379/3/4
f 379/3/4 378/3/4 380/3/4
f 380/3/4 378/3/4 381/3/4
f 371/3/4 379/3/4 383/3/4
f 383/3/4 379/3/4 384/3/4
f 381/3/4 382/3/4 385/3/4
f 380/3/4 381/3/4 385/3/4
f 385/3/4 382/3/4 386/3/4
f 371/3/4 383/3/4 387/3/4
f 384/3/4 385/3/4 388/3/4
f 388/3/4 385/3/4 389/3/4
f 386/3/4 382/3/4 390/3/4
f 390/3/4 382/3/4 391/3/4
f 387/3/4 388/3/4 393/3/4
f 391/3/4 392/3/4 394/3/4
f 390/3/4 391/3/4 394/3/4
f 389/3/4 390/3/4 394/3/4
f 387/3/4 393/3/4 395/3/4
f 393/3/4 394/3/4 395/3/4
f 371/3/4 387/3/4 395/3/4
f 394/3/4 392/3/4 396/3/4
f 395/3/4 394/3/4 396/3/4
f 397/4/4 398/4/4 399/4/4
f 399/4/4 398/4/4 400/4/4
f 401/4/4 402/4/4 403/4/4
f 403/4/4 402/4/4 404/4/4
f 405/2/4 406/2/4 407/2/4
f 407/2/4 406/2/4 408/2/4
f 413/4/5 410/4/5 409/4/5
f 414/4/5 410/4/5 413/4/5
f 415/4/5 412/4/5 411/4/5
f 416/4/5 412/4/5 415/4/5
f 421/4/5 418/4/5 417/4/5
f 422/4/5 418/4/5 421/4/5
f 423/4/5 420/4/5 419/4/5
f 424/4/5 420/4/5 423/4/5
f 427/2/5 426/2/5 425/2/5
f 428/2/5 426/2/5 427/2/5
f 429/2/5 426/2/5 428/2/5
f 430/2/5 426/2/5 429/2/5
f 431/2/5 427/2/5 425/2/5
f 432/2/5 429/2/5 428/2/5
f 433/2/5 429/2/5 432/2/5
f 434/2/5 426/2/5 430/2/5
f 435/2/5 433/2/5 432/2/5
f 435/2/5 434/2/5 433/2/5
f 435/2/5 431/2/5 425/2/5
f 435/2/5 432/2/5 431/2/5
f 436/2/5 434/2/5 435/2/5
f 437/2/5 434/2/5 436/2/5
f 438/2/5 426/2/5 434/2/5
f 438/2/5 434/2/5 437/2/5
f 439/2/5 435/2/5 425/2/5
f 440/2/5 437/2/5 436/2/5
f 441/2/5 437/2/5 440/2/5
f 442/2/5 426/2/5 438/2/5
f 443/2/5 439/2/5 425/2/5
f 443/2/5 442/2/5 441/2/5
f 443/2/5 441/2/5 440/2/5
f 443/2/5 440/2/5 439/2/5
f 444/2/5 426/2/5 442/2/5
f 444/2/5 442/2/5 443/2/5
f 447/1/5 446/1/5 445/1/5
f 448/1/5 446/1/5 447/1/5
f 451/3/5 450/3/5 449/3/5
f 452/3/5 450/3/5 451/3/5
f 455/3/5 454/3/5 453/3/5
f 456/3/5 454/3/5 455/3/5
f 461/3/5 458/3/5 457/3/5
f 462/3/5 458/3/5 461/3/5
f 463/3/5 460/3/5 459/3/5
f 464/3/5 460/3/5 463/3/5
f 469/3/5 466/3/5 465/3/5
f 470/3/5 466/3/5 469/3/5
f 471/3/5 468/3/5 467/3/5
f 472/3/5 468/3/5 471/3/5
f 475/3/5 474/3/5 473/3/5
f 476/3/5 474/3/5 475/3/5
f 479/3/5 478/3/5 477/3/5
f 480/3/5 478/3/5 479/3/5
f 483/3/5 482/3/5 481/3/5
f 484/3/5 482/3/5 483/3/5
f 487/3/5 486/3/5 485/3/5
f 488/3/5 486/3/5 487/3/5
f 489/2/6 490/2/6 491/2/6
f 491/2/6 490/2/6 492/2/6
f 492/2/6 490/2/6 493/2/6
f 493/2/6 490/2/6 494/2/6
f 492/2/6 493/2/6 497/2/6
f 497/2/6 493/2/6 498/2/6
f 495/2/6 496/2/6 499/2/6
f 492/2/6 497/2/6 500/2/6
f 500/2/6 497/2/6 501/2/6
f 499/2/6 500/2/6 501/2/6
f 501/2/6 502/2/6 503/2/6
f 494/2/6 490/2/6 504/2/6
f 501/2/6 503/2/6 505/2/6
f 503/2/6 504/2/6 505/2/6
f 499/2/6 501/2/6 505/2/6
f 495/2/6 499/2/6 505/2/6
f 504/2/6 490/2/6 506/2/6
f 505/2/6 504/2/6 506/2/6
f 507/1/6 508/1/6 509/1/6
f 509/1/6 508/1/6 510/1/6
f 510/1/6 508/1/6 515/1/6
f 515/1/6 508/1/6 516/1/6
f 513/3/6 514/3/6 517/3/6
f 517/3/6 514/3/6 518/3/6
f 511/3/6 512/3/6 521/3/6
f 521/3/6 512/3/6 522/3/6
f 519/3/6 520/3/6 523/3/6
f 523/3/6 520/3/6 524/3/6
f 525/3/6 526/3/6 527/3/6
f 527/3/6 526/3/6 528/3/6
f 529/3/6 530/3/6 533/3/6
f 533/3/6 530/3/6 534/3/6
f 531/3/6 532/3/6 535/3/6
f 535/3/6 532/3/6 536/3/6
f 537/3/6 538/3/6 541/3/6
f 541/3/6 538/3/6 542/3/6
f 539/3/6 540/3/6 543/3/6
f 543/3/6 540/3/6 544/3/6
f 545/1/6 546/1/6 547/1/6
f 547/1/6 546/1/6 548/1/6
f 549/3/6 550/3/6 551/3/6
f 551/3/6 550/3/6 552/3/6
f 553/3/6 554/3/6 557/3/6
f 557/3/6 554/3/6 558/3/6
f 555/3/6 556/3/6 559/3/6
f 559/3/6 556/3/6 560/3/6
f 561/3/6 562/3/6 563/3/6
f 563/3/6 562/3/6 564/3/6
f 565/3/6 566/3/6 567/3/6
f 567/3/6 566/3/6 568/3/6
f 569/3/6 570/3/6 571/3/6
f 571/3/6 570/3/6 572/3/6
f 573/3/6 574/3/6 575/3/6
f 575/3/6 574/3/6 576/3/6
f 577/3/6 578/3/6 579/3/6
f 579/3/6 578/3/6 580/3/6
f 581/3/6 582/3/6 585/3/6
f 585/3/6 582/3/6 586/3/6
f 583/3/6 584/3/6 587/3/6
f 587/3/6 584/3/6 588/3/6
f 589/3/6 590/3/6 591/3/6
f 591/3/6 590/3/6 592/3/6
f 593/3/6 594/3/6 596/3/6
f 596/3/6 594/3/6 597/3/6
f 597/3/6 594/3/6 598/3/6
f 595/3/6 596/3/6 599/3/6
f 596/3/6 597/3/6 599/3/6
f 599/3/6 597/3/6 600/3/6
f 601/3/6 602/3/6 603/3/6
f 603/3/6 602/3/6 604/3/6
f 604/3/6 602/3/6 605/3/6
f 604/3/6 605/3/6 607/3/6
f 605/3/6 606/3/6 607/3/6
f 607/3/6 606/3/6 608/3/6
f 609/3/6 610/3/6 612/3/6
f 611/3/6 612/3/6 614/3/6
f 613/3/6 614/3/6 615/3/6
f 614/3/6 612/3/6 616/3/6
f 615/3/6 614/3/6 616/3/6
f 616/3/6 612/3/6 617/3/6
f 612/3/6 610/3/6 618/3/6
f 617/3/6 612/3/6 618/3/6
f 618/3/6 610/3/6 619/3/6
f 619/3/6 610/3/6 620/3/6
