# MagicaVoxel @ Ephtracy

# group
o 

# material
mtllib BedroomandMainRoom-18.mtl
usemtl palette

# normals
vn -1 0 0
vn 1 0 0
vn 0 0 1
vn 0 0 -1
vn 0 -1 0
vn 0 1 0

# texcoords
vt 0.306641 0.5
vt 0.783203 0.5
vt 0.962891 0.5

# verts
v 13.3 0 6.5
v 13.3 0 -5.5
v 13.3 0.1 1.1
v 13.3 0.1 -0.8
v 13.3 3.2 1.1
v 13.3 3.2 -0.8
v 13.3 5 6.5
v 13.3 5 -5.5
v 20.2 0.1 6.4
v 20.2 0.1 -5.4
v 20.2 5 6.4
v 20.2 5 -5.4
v 13.5 0.1 6.4
v 13.5 0.1 1.1
v 13.5 0.1 -0.8
v 13.5 0.1 -5.4
v 13.5 3.2 1.1
v 13.5 3.2 -0.8
v 13.5 5 6.4
v 13.5 5 -5.4
v 20.3 0 6.5
v 20.3 0 -5.5
v 20.3 0.1 6.4
v 20.3 0.1 -5.4
v 20.3 5 6.5
v 20.3 5 6.4
v 20.3 5 -5.4
v 20.3 5 -5.5
v 13.3 0 6.5
v 13.3 5 6.5
v 13.4 0 6.5
v 13.4 5 6.5
v 13.5 0.1 6.5
v 13.5 5 6.5
v 20.2 0.1 6.5
v 20.2 5 6.5
v 20.3 0 6.5
v 20.3 5 6.5
v 13.3 0.1 -0.8
v 13.3 3.2 -0.8
v 13.4 0.1 -0.8
v 13.4 3.2 -0.8
v 13.5 0.1 -0.8
v 13.5 3.2 -0.8
v 13.5 0.1 -5.4
v 13.5 5 -5.4
v 20.2 0.1 -5.4
v 20.2 5 -5.4
v 13.5 0.1 6.4
v 13.5 5 6.4
v 20.2 0.1 6.4
v 20.2 5 6.4
v 13.3 0.1 1.1
v 13.3 3.2 1.1
v 13.4 0.1 1.1
v 13.4 3.2 1.1
v 13.5 0.1 1.1
v 13.5 3.2 1.1
v 13.3 0 -5.5
v 13.3 5 -5.5
v 13.4 0 -5.5
v 13.4 5 -5.5
v 13.5 0.1 -5.5
v 13.5 5 -5.5
v 20.2 0.1 -5.5
v 20.2 5 -5.5
v 20.3 0 -5.5
v 20.3 5 -5.5
v 13.3 0 6.5
v 13.4 0 6.5
v 20.3 0 6.5
v 13.3 0 -5.5
v 13.4 0 -5.5
v 20.3 0 -5.5
v 13.3 3.2 1.1
v 13.4 3.2 1.1
v 13.5 3.2 1.1
v 13.3 3.2 -0.8
v 13.4 3.2 -0.8
v 13.5 3.2 -0.8
v 13.5 0.1 6.4
v 20.2 0.1 6.4
v 13.3 0.1 1.1
v 13.4 0.1 1.1
v 13.5 0.1 1.1
v 13.3 0.1 -0.8
v 13.4 0.1 -0.8
v 13.5 0.1 -0.8
v 13.5 0.1 -5.4
v 20.2 0.1 -5.4
v 13.3 5 6.5
v 13.4 5 6.5
v 13.5 5 6.5
v 20.2 5 6.5
v 20.3 5 6.5
v 13.4 5 6.4
v 13.5 5 6.4
v 20.2 5 6.4
v 20.3 5 6.4
v 13.4 5 -5.4
v 13.5 5 -5.4
v 20.2 5 -5.4
v 20.3 5 -5.4
v 13.3 5 -5.5
v 13.4 5 -5.5
v 13.5 5 -5.5
v 20.2 5 -5.5
v 20.3 5 -5.5

# faces
f 3/2/1 2/2/1 1/2/1
f 4/2/1 2/2/1 3/2/1
f 5/2/1 3/2/1 1/2/1
f 6/2/1 2/2/1 4/2/1
f 7/2/1 5/2/1 1/2/1
f 7/2/1 6/2/1 5/2/1
f 8/2/1 2/2/1 6/2/1
f 8/2/1 6/2/1 7/2/1
f 11/3/1 10/3/1 9/3/1
f 12/3/1 10/3/1 11/3/1
f 13/3/2 14/3/2 17/3/2
f 15/3/2 16/3/2 18/3/2
f 13/3/2 17/3/2 19/3/2
f 17/3/2 18/3/2 19/3/2
f 18/3/2 16/3/2 20/3/2
f 19/3/2 18/3/2 20/3/2
f 21/1/2 22/1/2 23/1/2
f 23/1/2 22/1/2 24/1/2
f 21/1/2 23/1/2 25/1/2
f 23/3/2 24/3/2 26/3/2
f 25/1/2 23/1/2 26/1/2
f 24/1/2 22/1/2 27/1/2
f 26/3/2 24/3/2 27/3/2
f 27/1/2 22/1/2 28/1/2
f 31/2/3 30/2/3 29/2/3
f 32/2/3 30/2/3 31/2/3
f 33/1/3 32/1/3 31/1/3
f 34/1/3 32/1/3 33/1/3
f 35/1/3 33/1/3 31/1/3
f 35/3/3 34/3/3 33/3/3
f 36/3/3 34/3/3 35/3/3
f 37/1/3 35/1/3 31/1/3
f 37/1/3 36/1/3 35/1/3
f 38/1/3 36/1/3 37/1/3
f 41/2/3 40/2/3 39/2/3
f 42/2/3 40/2/3 41/2/3
f 43/3/3 42/3/3 41/3/3
f 44/3/3 42/3/3 43/3/3
f 47/3/3 46/3/3 45/3/3
f 48/3/3 46/3/3 47/3/3
f 49/3/4 50/3/4 51/3/4
f 51/3/4 50/3/4 52/3/4
f 53/2/4 54/2/4 55/2/4
f 55/2/4 54/2/4 56/2/4
f 55/3/4 56/3/4 57/3/4
f 57/3/4 56/3/4 58/3/4
f 59/2/4 60/2/4 61/2/4
f 61/2/4 60/2/4 62/2/4
f 61/1/4 62/1/4 63/1/4
f 63/1/4 62/1/4 64/1/4
f 61/1/4 63/1/4 65/1/4
f 63/3/4 64/3/4 65/3/4
f 65/3/4 64/3/4 66/3/4
f 61/1/4 65/1/4 67/1/4
f 65/1/4 66/1/4 67/1/4
f 67/1/4 66/1/4 68/1/4
f 72/2/5 70/2/5 69/2/5
f 73/1/5 71/1/5 70/1/5
f 73/2/5 70/2/5 72/2/5
f 74/1/5 71/1/5 73/1/5
f 78/2/5 76/2/5 75/2/5
f 79/3/5 77/3/5 76/3/5
f 79/2/5 76/2/5 78/2/5
f 80/3/5 77/3/5 79/3/5
f 81/1/6 82/1/6 85/1/6
f 83/2/6 84/2/6 86/2/6
f 84/1/6 85/1/6 87/1/6
f 86/2/6 84/2/6 87/2/6
f 85/1/6 82/1/6 88/1/6
f 87/1/6 85/1/6 88/1/6
f 88/1/6 82/1/6 89/1/6
f 89/1/6 82/1/6 90/1/6
f 91/2/6 92/2/6 96/2/6
f 92/1/6 93/1/6 96/1/6
f 93/3/6 94/3/6 97/3/6
f 96/1/6 93/1/6 97/1/6
f 94/1/6 95/1/6 98/1/6
f 97/3/6 94/3/6 98/3/6
f 98/1/6 95/1/6 99/1/6
f 96/3/6 97/3/6 100/3/6
f 91/2/6 96/2/6 100/2/6
f 100/3/6 97/3/6 101/3/6
f 98/3/6 99/3/6 102/3/6
f 102/3/6 99/3/6 103/3/6
f 91/2/6 100/2/6 104/2/6
f 100/1/6 101/1/6 105/1/6
f 104/2/6 100/2/6 105/2/6
f 101/3/6 102/3/6 106/3/6
f 105/1/6 101/1/6 106/1/6
f 102/1/6 103/1/6 107/1/6
f 106/3/6 102/3/6 107/3/6
f 107/1/6 103/1/6 108/1/6
