# MagicaVoxel @ Ephtracy

# group
o 

# material
mtllib BedroomandMainRoom-11.mtl
usemtl palette

# normals
vn -1 0 0
vn 1 0 0
vn 0 0 1
vn 0 0 -1
vn 0 -1 0
vn 0 1 0

# texcoords
vt 0.912109 0.5
vt 0.966797 0.5
vt 0.974609 0.5
vt 0.994141 0.5

# verts
v 18.2 0.1 -3.5
v 18.2 0.1 -3.6
v 18.2 0.2 -3.5
v 18.2 0.2 -3.6
v 18.2 1.1 -3.5
v 18.2 1.1 -3.6
v 18.2 1.9 -3.5
v 18.2 1.9 -3.6
v 18.3 0.2 -3.5
v 18.3 0.2 -3.6
v 18.3 0.3 -3.5
v 18.3 0.3 -3.6
v 18.3 1 -3.3
v 18.3 1 -3.8
v 18.3 1.1 -3.3
v 18.3 1.1 -3.4
v 18.3 1.1 -3.5
v 18.3 1.1 -3.6
v 18.3 1.1 -3.7
v 18.3 1.1 -3.8
v 18.3 1.2 -3.4
v 18.3 1.2 -3.5
v 18.3 1.2 -3.6
v 18.3 1.2 -3.7
v 18.3 1.4 -3.4
v 18.3 1.4 -3.5
v 18.3 1.4 -3.6
v 18.3 1.4 -3.7
v 18.3 1.5 -3.3
v 18.3 1.5 -3.4
v 18.3 1.5 -3.7
v 18.3 1.5 -3.8
v 18.3 1.6 -3.3
v 18.3 1.6 -3.5
v 18.3 1.6 -3.6
v 18.3 1.6 -3.8
v 18.3 1.7 -3.4
v 18.3 1.7 -3.5
v 18.3 1.7 -3.6
v 18.3 1.7 -3.7
v 18.3 1.9 -3.5
v 18.3 1.9 -3.6
v 18.3 2 -3.4
v 18.3 2 -3.7
v 18.4 1.1 -3.3
v 18.4 1.1 -3.4
v 18.4 1.1 -3.7
v 18.4 1.1 -3.8
v 18.4 1.2 -3.4
v 18.4 1.2 -3.5
v 18.4 1.2 -3.6
v 18.4 1.2 -3.7
v 18.4 1.4 -3.4
v 18.4 1.4 -3.5
v 18.4 1.4 -3.6
v 18.4 1.4 -3.7
v 18.4 1.5 -3.3
v 18.4 1.5 -3.4
v 18.4 1.5 -3.7
v 18.4 1.5 -3.8
v 18.5 0.3 -3.5
v 18.5 0.3 -3.6
v 18.5 0.4 -3.5
v 18.5 0.4 -3.6
v 18.5 0.7 -3.5
v 18.5 0.7 -3.6
v 18.5 0.9 -3.5
v 18.5 0.9 -3.6
v 18.5 1 -3.5
v 18.5 1 -3.6
v 18.6 0.1 -3.1
v 18.6 0.1 -3.3
v 18.6 0.1 -3.8
v 18.6 0.1 -4
v 18.6 0.2 -3.1
v 18.6 0.2 -3.2
v 18.6 0.2 -3.3
v 18.6 0.2 -3.5
v 18.6 0.2 -3.6
v 18.6 0.2 -3.8
v 18.6 0.2 -3.9
v 18.6 0.2 -4
v 18.6 0.3 -3.2
v 18.6 0.3 -3.4
v 18.6 0.3 -3.7
v 18.6 0.3 -3.9
v 18.6 0.4 -3.4
v 18.6 0.4 -3.5
v 18.6 0.4 -3.6
v 18.6 0.4 -3.7
v 18.6 0.7 -3.4
v 18.6 0.7 -3.5
v 18.6 0.7 -3.6
v 18.6 0.7 -3.7
v 18.6 0.9 -3.4
v 18.6 0.9 -3.5
v 18.6 0.9 -3.6
v 18.6 0.9 -3.7
v 18.6 1 -3.4
v 18.6 1 -3.5
v 18.6 1 -3.6
v 18.6 1 -3.7
v 18.8 1.2 -3.3
v 18.8 1.2 -3.4
v 18.8 1.2 -3.7
v 18.8 1.2 -3.8
v 18.8 1.3 -3.3
v 18.8 1.3 -3.4
v 18.8 1.3 -3.7
v 18.8 1.3 -3.8
v 18.9 0.1 -3.5
v 18.9 0.1 -3.6
v 18.9 0.2 -3.5
v 18.9 0.2 -3.6
v 18.4 0.1 -3.5
v 18.4 0.1 -3.6
v 18.4 0.2 -3.5
v 18.4 0.2 -3.6
v 18.4 1.5 -3.3
v 18.4 1.5 -3.4
v 18.4 1.5 -3.7
v 18.4 1.5 -3.8
v 18.4 1.6 -3.3
v 18.4 1.6 -3.4
v 18.4 1.6 -3.5
v 18.4 1.6 -3.6
v 18.4 1.6 -3.7
v 18.4 1.6 -3.8
v 18.4 1.7 -3.5
v 18.4 1.7 -3.6
v 18.5 1.2 -3.3
v 18.5 1.2 -3.4
v 18.5 1.2 -3.7
v 18.5 1.2 -3.8
v 18.5 1.3 -3.3
v 18.5 1.3 -3.4
v 18.5 1.3 -3.7
v 18.5 1.3 -3.8
v 18.5 1.4 -3.3
v 18.5 1.4 -3.4
v 18.5 1.4 -3.7
v 18.5 1.4 -3.8
v 18.5 1.5 -3.3
v 18.5 1.5 -3.4
v 18.5 1.5 -3.7
v 18.5 1.5 -3.8
v 18.5 1.6 -3.4
v 18.5 1.6 -3.7
v 18.5 1.7 -3.4
v 18.5 1.7 -3.7
v 18.5 2 -3.4
v 18.5 2 -3.7
v 18.7 0.1 -3.1
v 18.7 0.1 -3.3
v 18.7 0.1 -3.8
v 18.7 0.1 -4
v 18.7 0.2 -3.1
v 18.7 0.2 -3.2
v 18.7 0.2 -3.3
v 18.7 0.2 -3.5
v 18.7 0.2 -3.6
v 18.7 0.2 -3.8
v 18.7 0.2 -3.9
v 18.7 0.2 -4
v 18.7 0.3 -3.2
v 18.7 0.3 -3.4
v 18.7 0.3 -3.7
v 18.7 0.3 -3.9
v 18.7 0.4 -3.4
v 18.7 0.4 -3.5
v 18.7 0.4 -3.6
v 18.7 0.4 -3.7
v 18.7 0.7 -3.4
v 18.7 0.7 -3.5
v 18.7 0.7 -3.6
v 18.7 0.7 -3.7
v 18.7 0.9 -3.4
v 18.7 0.9 -3.5
v 18.7 0.9 -3.6
v 18.7 0.9 -3.7
v 18.7 1 -3.4
v 18.7 1 -3.5
v 18.7 1 -3.6
v 18.7 1 -3.7
v 18.8 0.3 -3.5
v 18.8 0.3 -3.6
v 18.8 0.4 -3.5
v 18.8 0.4 -3.6
v 18.8 0.8 -3.5
v 18.8 0.8 -3.6
v 18.8 0.9 -3.5
v 18.8 0.9 -3.6
v 18.8 1 -3.5
v 18.8 1 -3.6
v 18.9 0.7 -3.5
v 18.9 0.7 -3.6
v 18.9 0.8 -3.5
v 18.9 0.8 -3.6
v 18.9 1.1 -3.3
v 18.9 1.1 -3.4
v 18.9 1.1 -3.7
v 18.9 1.1 -3.8
v 18.9 1.2 -3.4
v 18.9 1.2 -3.7
v 18.9 1.4 -3.3
v 18.9 1.4 -3.4
v 18.9 1.4 -3.7
v 18.9 1.4 -3.8
v 19 0.2 -3.5
v 19 0.2 -3.6
v 19 0.3 -3.5
v 19 0.3 -3.6
v 19 1 -3.3
v 19 1 -3.8
v 19 1.1 -3.3
v 19 1.1 -3.8
v 19.1 0.1 -3.5
v 19.1 0.1 -3.6
v 19.1 0.2 -3.5
v 19.1 0.2 -3.6
v 18.6 0.1 -3.1
v 18.6 0.2 -3.1
v 18.7 0.1 -3.1
v 18.7 0.2 -3.1
v 18.6 0.2 -3.2
v 18.6 0.3 -3.2
v 18.7 0.2 -3.2
v 18.7 0.3 -3.2
v 18.3 1 -3.3
v 18.3 1.1 -3.3
v 18.3 1.5 -3.3
v 18.3 1.6 -3.3
v 18.4 1.1 -3.3
v 18.4 1.5 -3.3
v 18.4 1.6 -3.3
v 18.5 1.2 -3.3
v 18.5 1.3 -3.3
v 18.5 1.4 -3.3
v 18.5 1.5 -3.3
v 18.8 1.2 -3.3
v 18.8 1.3 -3.3
v 18.9 1.1 -3.3
v 18.9 1.4 -3.3
v 19 1 -3.3
v 19 1.1 -3.3
v 18.3 1.1 -3.4
v 18.3 1.2 -3.4
v 18.3 1.4 -3.4
v 18.3 1.5 -3.4
v 18.3 1.7 -3.4
v 18.3 2 -3.4
v 18.4 1.1 -3.4
v 18.4 1.2 -3.4
v 18.4 1.4 -3.4
v 18.4 1.5 -3.4
v 18.4 1.6 -3.4
v 18.4 1.7 -3.4
v 18.4 2 -3.4
v 18.5 1.5 -3.4
v 18.5 1.6 -3.4
v 18.5 1.7 -3.4
v 18.5 2 -3.4
v 18.6 0.3 -3.4
v 18.6 0.4 -3.4
v 18.6 0.7 -3.4
v 18.6 0.9 -3.4
v 18.6 1 -3.4
v 18.7 0.3 -3.4
v 18.7 0.4 -3.4
v 18.7 0.7 -3.4
v 18.7 0.9 -3.4
v 18.7 1 -3.4
v 18.2 0.1 -3.5
v 18.2 0.2 -3.5
v 18.2 1.1 -3.5
v 18.2 1.9 -3.5
v 18.3 0.2 -3.5
v 18.3 0.3 -3.5
v 18.3 1.1 -3.5
v 18.3 1.2 -3.5
v 18.3 1.4 -3.5
v 18.3 1.6 -3.5
v 18.3 1.7 -3.5
v 18.3 1.9 -3.5
v 18.4 0.1 -3.5
v 18.4 0.2 -3.5
v 18.4 1.2 -3.5
v 18.4 1.4 -3.5
v 18.4 1.6 -3.5
v 18.4 1.7 -3.5
v 18.5 0.3 -3.5
v 18.5 0.4 -3.5
v 18.5 0.7 -3.5
v 18.5 0.9 -3.5
v 18.5 1 -3.5
v 18.6 0.2 -3.5
v 18.6 0.4 -3.5
v 18.6 0.7 -3.5
v 18.6 0.9 -3.5
v 18.6 1 -3.5
v 18.7 0.2 -3.5
v 18.7 0.4 -3.5
v 18.7 0.7 -3.5
v 18.7 0.9 -3.5
v 18.7 1 -3.5
v 18.8 0.3 -3.5
v 18.8 0.4 -3.5
v 18.8 0.8 -3.5
v 18.8 0.9 -3.5
v 18.8 1 -3.5
v 18.9 0.1 -3.5
v 18.9 0.2 -3.5
v 18.9 0.7 -3.5
v 18.9 0.8 -3.5
v 19 0.2 -3.5
v 19 0.3 -3.5
v 19.1 0.1 -3.5
v 19.1 0.2 -3.5
v 18.5 1.3 -3.7
v 18.5 1.4 -3.7
v 18.8 1.2 -3.7
v 18.8 1.3 -3.7
v 18.9 1.2 -3.7
v 18.9 1.4 -3.7
v 18.6 0.1 -3.8
v 18.6 0.2 -3.8
v 18.7 0.1 -3.8
v 18.7 0.2 -3.8
v 18.6 0.1 -3.3
v 18.6 0.2 -3.3
v 18.7 0.1 -3.3
v 18.7 0.2 -3.3
v 18.5 1.3 -3.4
v 18.5 1.4 -3.4
v 18.8 1.2 -3.4
v 18.8 1.3 -3.4
v 18.9 1.2 -3.4
v 18.9 1.4 -3.4
v 18.2 0.1 -3.6
v 18.2 0.2 -3.6
v 18.2 1.1 -3.6
v 18.2 1.9 -3.6
v 18.3 0.2 -3.6
v 18.3 0.3 -3.6
v 18.3 1.1 -3.6
v 18.3 1.2 -3.6
v 18.3 1.4 -3.6
v 18.3 1.6 -3.6
v 18.3 1.7 -3.6
v 18.3 1.9 -3.6
v 18.4 0.1 -3.6
v 18.4 0.2 -3.6
v 18.4 1.2 -3.6
v 18.4 1.4 -3.6
v 18.4 1.6 -3.6
v 18.4 1.7 -3.6
v 18.5 0.3 -3.6
v 18.5 0.4 -3.6
v 18.5 0.7 -3.6
v 18.5 0.9 -3.6
v 18.5 1 -3.6
v 18.6 0.2 -3.6
v 18.6 0.4 -3.6
v 18.6 0.7 -3.6
v 18.6 0.9 -3.6
v 18.6 1 -3.6
v 18.7 0.2 -3.6
v 18.7 0.4 -3.6
v 18.7 0.7 -3.6
v 18.7 0.9 -3.6
v 18.7 1 -3.6
v 18.8 0.3 -3.6
v 18.8 0.4 -3.6
v 18.8 0.8 -3.6
v 18.8 0.9 -3.6
v 18.8 1 -3.6
v 18.9 0.1 -3.6
v 18.9 0.2 -3.6
v 18.9 0.7 -3.6
v 18.9 0.8 -3.6
v 19 0.2 -3.6
v 19 0.3 -3.6
v 19.1 0.1 -3.6
v 19.1 0.2 -3.6
v 18.3 1.1 -3.7
v 18.3 1.2 -3.7
v 18.3 1.4 -3.7
v 18.3 1.5 -3.7
v 18.3 1.7 -3.7
v 18.3 2 -3.7
v 18.4 1.1 -3.7
v 18.4 1.2 -3.7
v 18.4 1.4 -3.7
v 18.4 1.5 -3.7
v 18.4 1.6 -3.7
v 18.4 1.7 -3.7
v 18.4 2 -3.7
v 18.5 1.5 -3.7
v 18.5 1.6 -3.7
v 18.5 1.7 -3.7
v 18.5 2 -3.7
v 18.6 0.3 -3.7
v 18.6 0.4 -3.7
v 18.6 0.7 -3.7
v 18.6 0.9 -3.7
v 18.6 1 -3.7
v 18.7 0.3 -3.7
v 18.7 0.4 -3.7
v 18.7 0.7 -3.7
v 18.7 0.9 -3.7
v 18.7 1 -3.7
v 18.3 1 -3.8
v 18.3 1.1 -3.8
v 18.3 1.5 -3.8
v 18.3 1.6 -3.8
v 18.4 1.1 -3.8
v 18.4 1.5 -3.8
v 18.4 1.6 -3.8
v 18.5 1.2 -3.8
v 18.5 1.3 -3.8
v 18.5 1.4 -3.8
v 18.5 1.5 -3.8
v 18.8 1.2 -3.8
v 18.8 1.3 -3.8
v 18.9 1.1 -3.8
v 18.9 1.4 -3.8
v 19 1 -3.8
v 19 1.1 -3.8
v 18.6 0.2 -3.9
v 18.6 0.3 -3.9
v 18.7 0.2 -3.9
v 18.7 0.3 -3.9
v 18.6 0.1 -4
v 18.6 0.2 -4
v 18.7 0.1 -4
v 18.7 0.2 -4
v 18.6 0.1 -3.1
v 18.7 0.1 -3.1
v 18.6 0.1 -3.3
v 18.7 0.1 -3.3
v 18.2 0.1 -3.5
v 18.4 0.1 -3.5
v 18.9 0.1 -3.5
v 19.1 0.1 -3.5
v 18.2 0.1 -3.6
v 18.4 0.1 -3.6
v 18.9 0.1 -3.6
v 19.1 0.1 -3.6
v 18.6 0.1 -3.8
v 18.7 0.1 -3.8
v 18.6 0.1 -4
v 18.7 0.1 -4
v 18.6 0.2 -3.3
v 18.7 0.2 -3.3
v 18.4 0.2 -3.5
v 18.6 0.2 -3.5
v 18.7 0.2 -3.5
v 18.9 0.2 -3.5
v 18.4 0.2 -3.6
v 18.6 0.2 -3.6
v 18.7 0.2 -3.6
v 18.9 0.2 -3.6
v 18.6 0.2 -3.8
v 18.7 0.2 -3.8
v 18.6 0.7 -3.4
v 18.7 0.7 -3.4
v 18.5 0.7 -3.5
v 18.6 0.7 -3.5
v 18.7 0.7 -3.5
v 18.9 0.7 -3.5
v 18.5 0.7 -3.6
v 18.6 0.7 -3.6
v 18.7 0.7 -3.6
v 18.9 0.7 -3.6
v 18.6 0.7 -3.7
v 18.7 0.7 -3.7
v 18.3 1 -3.3
v 19 1 -3.3
v 18.6 1 -3.4
v 18.7 1 -3.4
v 18.5 1 -3.5
v 18.6 1 -3.5
v 18.7 1 -3.5
v 18.8 1 -3.5
v 18.5 1 -3.6
v 18.6 1 -3.6
v 18.7 1 -3.6
v 18.8 1 -3.6
v 18.6 1 -3.7
v 18.7 1 -3.7
v 18.3 1 -3.8
v 19 1 -3.8
v 18.2 1.1 -3.5
v 18.3 1.1 -3.5
v 18.2 1.1 -3.6
v 18.3 1.1 -3.6
v 18.5 1.3 -3.3
v 18.8 1.3 -3.3
v 18.5 1.3 -3.4
v 18.8 1.3 -3.4
v 18.5 1.3 -3.7
v 18.8 1.3 -3.7
v 18.5 1.3 -3.8
v 18.8 1.3 -3.8
v 18.3 1.4 -3.4
v 18.4 1.4 -3.4
v 18.3 1.4 -3.5
v 18.4 1.4 -3.5
v 18.3 1.4 -3.6
v 18.4 1.4 -3.6
v 18.3 1.4 -3.7
v 18.4 1.4 -3.7
v 18.3 1.5 -3.3
v 18.4 1.5 -3.3
v 18.3 1.5 -3.4
v 18.4 1.5 -3.4
v 18.3 1.5 -3.7
v 18.4 1.5 -3.7
v 18.3 1.5 -3.8
v 18.4 1.5 -3.8
v 18.3 1.7 -3.4
v 18.4 1.7 -3.4
v 18.5 1.7 -3.4
v 18.3 1.7 -3.5
v 18.4 1.7 -3.5
v 18.3 1.7 -3.6
v 18.4 1.7 -3.6
v 18.3 1.7 -3.7
v 18.4 1.7 -3.7
v 18.5 1.7 -3.7
v 18.6 0.2 -3.1
v 18.7 0.2 -3.1
v 18.6 0.2 -3.2
v 18.7 0.2 -3.2
v 18.2 0.2 -3.5
v 18.3 0.2 -3.5
v 19 0.2 -3.5
v 19.1 0.2 -3.5
v 18.2 0.2 -3.6
v 18.3 0.2 -3.6
v 19 0.2 -3.6
v 19.1 0.2 -3.6
v 18.6 0.2 -3.9
v 18.7 0.2 -3.9
v 18.6 0.2 -4
v 18.7 0.2 -4
v 18.6 0.3 -3.2
v 18.7 0.3 -3.2
v 18.6 0.3 -3.4
v 18.7 0.3 -3.4
v 18.3 0.3 -3.5
v 18.5 0.3 -3.5
v 18.8 0.3 -3.5
v 19 0.3 -3.5
v 18.3 0.3 -3.6
v 18.5 0.3 -3.6
v 18.8 0.3 -3.6
v 19 0.3 -3.6
v 18.6 0.3 -3.7
v 18.7 0.3 -3.7
v 18.6 0.3 -3.9
v 18.7 0.3 -3.9
v 18.6 0.4 -3.4
v 18.7 0.4 -3.4
v 18.5 0.4 -3.5
v 18.6 0.4 -3.5
v 18.7 0.4 -3.5
v 18.8 0.4 -3.5
v 18.5 0.4 -3.6
v 18.6 0.4 -3.6
v 18.7 0.4 -3.6
v 18.8 0.4 -3.6
v 18.6 0.4 -3.7
v 18.7 0.4 -3.7
v 18.8 0.8 -3.5
v 18.9 0.8 -3.5
v 18.8 0.8 -3.6
v 18.9 0.8 -3.6
v 18.3 1.1 -3.3
v 18.4 1.1 -3.3
v 18.9 1.1 -3.3
v 19 1.1 -3.3
v 18.3 1.1 -3.4
v 18.4 1.1 -3.4
v 18.9 1.1 -3.4
v 18.3 1.1 -3.7
v 18.4 1.1 -3.7
v 18.9 1.1 -3.7
v 18.3 1.1 -3.8
v 18.4 1.1 -3.8
v 18.9 1.1 -3.8
v 19 1.1 -3.8
v 18.5 1.2 -3.3
v 18.8 1.2 -3.3
v 18.3 1.2 -3.4
v 18.4 1.2 -3.4
v 18.5 1.2 -3.4
v 18.8 1.2 -3.4
v 18.9 1.2 -3.4
v 18.3 1.2 -3.5
v 18.4 1.2 -3.5
v 18.3 1.2 -3.6
v 18.4 1.2 -3.6
v 18.3 1.2 -3.7
v 18.4 1.2 -3.7
v 18.5 1.2 -3.7
v 18.8 1.2 -3.7
v 18.9 1.2 -3.7
v 18.5 1.2 -3.8
v 18.8 1.2 -3.8
v 18.5 1.4 -3.3
v 18.9 1.4 -3.3
v 18.5 1.4 -3.4
v 18.9 1.4 -3.4
v 18.5 1.4 -3.7
v 18.9 1.4 -3.7
v 18.5 1.4 -3.8
v 18.9 1.4 -3.8
v 18.4 1.5 -3.3
v 18.5 1.5 -3.3
v 18.4 1.5 -3.4
v 18.5 1.5 -3.4
v 18.4 1.5 -3.7
v 18.5 1.5 -3.7
v 18.4 1.5 -3.8
v 18.5 1.5 -3.8
v 18.3 1.6 -3.3
v 18.4 1.6 -3.3
v 18.4 1.6 -3.4
v 18.5 1.6 -3.4
v 18.3 1.6 -3.5
v 18.4 1.6 -3.5
v 18.3 1.6 -3.6
v 18.4 1.6 -3.6
v 18.4 1.6 -3.7
v 18.5 1.6 -3.7
v 18.3 1.6 -3.8
v 18.4 1.6 -3.8
v 18.2 1.9 -3.5
v 18.3 1.9 -3.5
v 18.2 1.9 -3.6
v 18.3 1.9 -3.6
v 18.3 2 -3.4
v 18.4 2 -3.4
v 18.5 2 -3.4
v 18.3 2 -3.7
v 18.4 2 -3.7
v 18.5 2 -3.7

# faces
f 3/2/1 2/2/1 1/2/1
f 4/2/1 2/2/1 3/2/1
f 7/2/1 6/2/1 5/2/1
f 8/2/1 6/2/1 7/2/1
f 11/4/1 10/4/1 9/4/1
f 12/4/1 10/4/1 11/4/1
f 15/2/1 14/2/1 13/2/1
f 16/2/1 14/2/1 15/2/1
f 17/2/1 14/2/1 16/2/1
f 18/2/1 14/2/1 17/2/1
f 19/2/1 14/2/1 18/2/1
f 20/2/1 14/2/1 19/2/1
f 21/2/1 17/2/1 16/2/1
f 22/2/1 17/2/1 21/2/1
f 23/2/1 19/2/1 18/2/1
f 24/2/1 19/2/1 23/2/1
f 30/2/1 26/2/1 25/2/1
f 31/2/1 28/2/1 27/2/1
f 33/2/1 30/2/1 29/2/1
f 34/2/1 26/2/1 30/2/1
f 34/2/1 30/2/1 33/2/1
f 35/2/1 31/2/1 27/2/1
f 35/2/1 32/2/1 31/2/1
f 36/2/1 32/2/1 35/2/1
f 41/2/1 38/2/1 37/2/1
f 42/2/1 40/2/1 39/2/1
f 43/2/1 41/2/1 37/2/1
f 43/2/1 42/2/1 41/2/1
f 44/2/1 40/2/1 42/2/1
f 44/2/1 42/2/1 43/2/1
f 49/2/1 46/2/1 45/2/1
f 52/2/1 48/2/1 47/2/1
f 53/3/1 50/3/1 49/3/1
f 53/2/1 49/2/1 45/2/1
f 54/3/1 50/3/1 53/3/1
f 55/3/1 52/3/1 51/3/1
f 56/2/1 48/2/1 52/2/1
f 56/3/1 52/3/1 55/3/1
f 57/2/1 53/2/1 45/2/1
f 58/2/1 53/2/1 57/2/1
f 59/2/1 48/2/1 56/2/1
f 60/2/1 48/2/1 59/2/1
f 63/4/1 62/4/1 61/4/1
f 64/4/1 62/4/1 63/4/1
f 67/4/1 66/4/1 65/4/1
f 68/4/1 66/4/1 67/4/1
f 69/2/1 68/2/1 67/2/1
f 70/2/1 68/2/1 69/2/1
f 75/2/1 72/2/1 71/2/1
f 76/2/1 72/2/1 75/2/1
f 77/2/1 72/2/1 76/2/1
f 80/2/1 74/2/1 73/2/1
f 81/2/1 74/2/1 80/2/1
f 82/2/1 74/2/1 81/2/1
f 83/4/1 78/4/1 77/4/1
f 83/4/1 77/4/1 76/4/1
f 84/4/1 78/4/1 83/4/1
f 85/4/1 81/4/1 80/4/1
f 85/4/1 80/4/1 79/4/1
f 86/4/1 81/4/1 85/4/1
f 87/4/1 78/4/1 84/4/1
f 88/4/1 78/4/1 87/4/1
f 89/4/1 85/4/1 79/4/1
f 90/4/1 85/4/1 89/4/1
f 92/2/1 89/2/1 88/2/1
f 93/2/1 89/2/1 92/2/1
f 95/4/1 92/4/1 91/4/1
f 96/4/1 92/4/1 95/4/1
f 97/4/1 94/4/1 93/4/1
f 98/4/1 94/4/1 97/4/1
f 99/2/1 96/2/1 95/2/1
f 100/2/1 96/2/1 99/2/1
f 101/2/1 98/2/1 97/2/1
f 102/2/1 98/2/1 101/2/1
f 107/2/1 104/2/1 103/2/1
f 108/2/1 104/2/1 107/2/1
f 109/2/1 106/2/1 105/2/1
f 110/2/1 106/2/1 109/2/1
f 113/2/1 112/2/1 111/2/1
f 114/2/1 112/2/1 113/2/1
f 115/2/2 116/2/2 117/2/2
f 117/2/2 116/2/2 118/2/2
f 119/2/2 120/2/2 123/2/2
f 123/2/2 120/2/2 124/2/2
f 121/2/2 122/2/2 127/2/2
f 127/2/2 122/2/2 128/2/2
f 125/2/2 126/2/2 129/2/2
f 129/2/2 126/2/2 130/2/2
f 131/2/2 132/2/2 135/2/2
f 132/3/2 133/3/2 136/3/2
f 135/2/2 132/2/2 136/2/2
f 133/2/2 134/2/2 137/2/2
f 136/3/2 133/3/2 137/3/2
f 137/2/2 134/2/2 138/2/2
f 136/3/2 137/3/2 140/3/2
f 140/3/2 137/3/2 141/3/2
f 139/2/2 140/2/2 143/2/2
f 140/3/2 141/3/2 144/3/2
f 143/2/2 140/2/2 144/2/2
f 141/2/2 142/2/2 145/2/2
f 144/3/2 141/3/2 145/3/2
f 145/2/2 142/2/2 146/2/2
f 144/3/2 145/3/2 147/3/2
f 147/3/2 145/3/2 148/3/2
f 149/1/2 150/1/2 151/1/2
f 151/1/2 150/1/2 152/1/2
f 153/2/2 154/2/2 157/2/2
f 157/2/2 154/2/2 158/2/2
f 158/2/2 154/2/2 159/2/2
f 155/2/2 156/2/2 162/2/2
f 162/2/2 156/2/2 163/2/2
f 163/2/2 156/2/2 164/2/2
f 159/4/2 160/4/2 165/4/2
f 158/4/2 159/4/2 165/4/2
f 165/4/2 160/4/2 166/4/2
f 162/4/2 163/4/2 167/4/2
f 161/4/2 162/4/2 167/4/2
f 167/4/2 163/4/2 168/4/2
f 166/4/2 160/4/2 169/4/2
f 169/4/2 160/4/2 170/4/2
f 161/4/2 167/4/2 171/4/2
f 171/4/2 167/4/2 172/4/2
f 170/2/2 171/2/2 174/2/2
f 174/2/2 171/2/2 175/2/2
f 173/4/2 174/4/2 177/4/2
f 177/4/2 174/4/2 178/4/2
f 175/4/2 176/4/2 179/4/2
f 179/4/2 176/4/2 180/4/2
f 177/2/2 178/2/2 181/2/2
f 181/2/2 178/2/2 182/2/2
f 179/2/2 180/2/2 183/2/2
f 183/2/2 180/2/2 184/2/2
f 185/4/2 186/4/2 187/4/2
f 187/4/2 186/4/2 188/4/2
f 189/4/2 190/4/2 191/4/2
f 191/4/2 190/4/2 192/4/2
f 191/2/2 192/2/2 193/2/2
f 193/2/2 192/2/2 194/2/2
f 195/4/2 196/4/2 197/4/2
f 197/4/2 196/4/2 198/4/2
f 199/2/2 200/2/2 203/2/2
f 200/1/2 201/1/2 203/1/2
f 201/2/2 202/2/2 204/2/2
f 203/1/2 201/1/2 204/1/2
f 199/2/2 203/2/2 205/2/2
f 205/2/2 203/2/2 206/2/2
f 204/2/2 202/2/2 207/2/2
f 207/2/2 202/2/2 208/2/2
f 209/4/2 210/4/2 211/4/2
f 211/4/2 210/4/2 212/4/2
f 213/2/2 214/2/2 215/2/2
f 215/2/2 214/2/2 216/2/2
f 217/2/2 218/2/2 219/2/2
f 219/2/2 218/2/2 220/2/2
f 223/2/3 222/2/3 221/2/3
f 224/2/3 222/2/3 223/2/3
f 227/4/3 226/4/3 225/4/3
f 228/4/3 226/4/3 227/4/3
f 233/2/3 230/2/3 229/2/3
f 234/2/3 232/2/3 231/2/3
f 235/2/3 232/2/3 234/2/3
f 236/2/3 234/2/3 233/2/3
f 237/2/3 234/2/3 236/2/3
f 238/2/3 234/2/3 237/2/3
f 239/2/3 234/2/3 238/2/3
f 240/2/3 236/2/3 233/2/3
f 241/2/3 238/2/3 237/2/3
f 242/2/3 233/2/3 229/2/3
f 242/2/3 241/2/3 240/2/3
f 242/2/3 240/2/3 233/2/3
f 243/2/3 238/2/3 241/2/3
f 243/2/3 241/2/3 242/2/3
f 244/2/3 242/2/3 229/2/3
f 245/2/3 242/2/3 244/2/3
f 252/2/3 247/2/3 246/2/3
f 253/2/3 247/2/3 252/2/3
f 254/2/3 249/2/3 248/2/3
f 255/2/3 249/2/3 254/2/3
f 257/2/3 251/2/3 250/2/3
f 258/2/3 251/2/3 257/2/3
f 259/3/3 256/3/3 255/3/3
f 260/3/3 256/3/3 259/3/3
f 261/1/3 258/1/3 257/1/3
f 262/1/3 258/1/3 261/1/3
f 268/4/3 264/4/3 263/4/3
f 269/4/3 264/4/3 268/4/3
f 270/4/3 266/4/3 265/4/3
f 271/2/3 267/2/3 266/2/3
f 271/4/3 266/4/3 270/4/3
f 272/2/3 267/2/3 271/2/3
f 277/2/3 274/2/3 273/2/3
f 279/2/3 276/2/3 275/2/3
f 280/2/3 276/2/3 279/2/3
f 281/2/3 276/2/3 280/2/3
f 282/2/3 276/2/3 281/2/3
f 283/2/3 276/2/3 282/2/3
f 284/2/3 276/2/3 283/2/3
f 285/2/3 277/2/3 273/2/3
f 286/4/3 278/4/3 277/4/3
f 286/2/3 277/2/3 285/2/3
f 287/2/3 281/2/3 280/2/3
f 288/2/3 281/2/3 287/2/3
f 289/2/3 283/2/3 282/2/3
f 290/2/3 283/2/3 289/2/3
f 291/4/3 278/4/3 286/4/3
f 296/4/3 291/4/3 286/4/3
f 296/4/3 292/4/3 291/4/3
f 297/4/3 292/4/3 296/4/3
f 298/4/3 294/4/3 293/4/3
f 299/2/3 295/2/3 294/2/3
f 299/4/3 294/4/3 298/4/3
f 300/2/3 295/2/3 299/2/3
f 302/2/3 298/2/3 297/2/3
f 303/2/3 298/2/3 302/2/3
f 306/4/3 302/4/3 301/4/3
f 307/4/3 302/4/3 306/4/3
f 308/4/3 304/4/3 303/4/3
f 309/2/3 305/2/3 304/2/3
f 309/4/3 304/4/3 308/4/3
f 310/2/3 305/2/3 309/2/3
f 312/4/3 306/4/3 301/4/3
f 313/4/3 308/4/3 303/4/3
f 314/4/3 308/4/3 313/4/3
f 315/2/3 312/2/3 311/2/3
f 315/4/3 306/4/3 312/4/3
f 316/4/3 306/4/3 315/4/3
f 317/2/3 315/2/3 311/2/3
f 318/2/3 315/2/3 317/2/3
f 322/2/3 320/2/3 319/2/3
f 323/2/3 322/2/3 321/2/3
f 324/2/3 320/2/3 322/2/3
f 324/2/3 322/2/3 323/2/3
f 327/2/3 326/2/3 325/2/3
f 328/2/3 326/2/3 327/2/3
f 329/2/4 330/2/4 331/2/4
f 331/2/4 330/2/4 332/2/4
f 333/2/4 334/2/4 336/2/4
f 335/2/4 336/2/4 337/2/4
f 336/2/4 334/2/4 338/2/4
f 337/2/4 336/2/4 338/2/4
f 339/2/4 340/2/4 343/2/4
f 341/2/4 342/2/4 345/2/4
f 345/2/4 342/2/4 346/2/4
f 346/2/4 342/2/4 347/2/4
f 347/2/4 342/2/4 348/2/4
f 348/2/4 342/2/4 349/2/4
f 349/2/4 342/2/4 350/2/4
f 339/2/4 343/2/4 351/2/4
f 343/4/4 344/4/4 352/4/4
f 351/2/4 343/2/4 352/2/4
f 346/2/4 347/2/4 353/2/4
f 353/2/4 347/2/4 354/2/4
f 348/2/4 349/2/4 355/2/4
f 355/2/4 349/2/4 356/2/4
f 352/4/4 344/4/4 357/4/4
f 352/4/4 357/4/4 362/4/4
f 357/4/4 358/4/4 362/4/4
f 362/4/4 358/4/4 363/4/4
f 359/4/4 360/4/4 364/4/4
f 360/2/4 361/2/4 365/2/4
f 364/4/4 360/4/4 365/4/4
f 365/2/4 361/2/4 366/2/4
f 363/2/4 364/2/4 368/2/4
f 368/2/4 364/2/4 369/2/4
f 367/4/4 368/4/4 372/4/4
f 372/4/4 368/4/4 373/4/4
f 369/4/4 370/4/4 374/4/4
f 370/2/4 371/2/4 375/2/4
f 374/4/4 370/4/4 375/4/4
f 375/2/4 371/2/4 376/2/4
f 367/4/4 372/4/4 378/4/4
f 369/4/4 374/4/4 379/4/4
f 379/4/4 374/4/4 380/4/4
f 377/2/4 378/2/4 381/2/4
f 378/4/4 372/4/4 381/4/4
f 381/4/4 372/4/4 382/4/4
f 377/2/4 381/2/4 383/2/4
f 383/2/4 381/2/4 384/2/4
f 385/2/4 386/2/4 391/2/4
f 391/2/4 386/2/4 392/2/4
f 387/2/4 388/2/4 393/2/4
f 393/2/4 388/2/4 394/2/4
f 389/2/4 390/2/4 396/2/4
f 396/2/4 390/2/4 397/2/4
f 394/3/4 395/3/4 398/3/4
f 398/3/4 395/3/4 399/3/4
f 396/1/4 397/1/4 400/1/4
f 400/1/4 397/1/4 401/1/4
f 402/4/4 403/4/4 407/4/4
f 407/4/4 403/4/4 408/4/4
f 404/4/4 405/4/4 409/4/4
f 405/2/4 406/2/4 410/2/4
f 409/4/4 405/4/4 410/4/4
f 410/2/4 406/2/4 411/2/4
f 412/2/4 413/2/4 416/2/4
f 414/2/4 415/2/4 417/2/4
f 417/2/4 415/2/4 418/2/4
f 416/2/4 417/2/4 419/2/4
f 419/2/4 417/2/4 420/2/4
f 420/2/4 417/2/4 421/2/4
f 421/2/4 417/2/4 422/2/4
f 416/2/4 419/2/4 423/2/4
f 420/2/4 421/2/4 424/2/4
f 412/2/4 416/2/4 425/2/4
f 423/2/4 424/2/4 425/2/4
f 416/2/4 423/2/4 425/2/4
f 424/2/4 421/2/4 426/2/4
f 425/2/4 424/2/4 426/2/4
f 412/2/4 425/2/4 427/2/4
f 427/2/4 425/2/4 428/2/4
f 429/4/4 430/4/4 431/4/4
f 431/4/4 430/4/4 432/4/4
f 433/2/4 434/2/4 435/2/4
f 435/2/4 434/2/4 436/2/4
f 439/2/5 438/2/5 437/2/5
f 440/2/5 438/2/5 439/2/5
f 445/2/5 442/2/5 441/2/5
f 446/2/5 442/2/5 445/2/5
f 447/2/5 444/2/5 443/2/5
f 448/2/5 444/2/5 447/2/5
f 451/2/5 450/2/5 449/2/5
f 452/2/5 450/2/5 451/2/5
f 456/4/5 454/4/5 453/4/5
f 457/4/5 454/4/5 456/4/5
f 459/4/5 456/4/5 455/4/5
f 460/2/5 457/2/5 456/2/5
f 460/4/5 456/4/5 459/4/5
f 461/4/5 458/4/5 457/4/5
f 461/2/5 457/2/5 460/2/5
f 462/4/5 458/4/5 461/4/5
f 463/4/5 461/4/5 460/4/5
f 464/4/5 461/4/5 463/4/5
f 468/4/5 466/4/5 465/4/5
f 469/4/5 466/4/5 468/4/5
f 471/4/5 468/4/5 467/4/5
f 472/4/5 468/4/5 471/4/5
f 473/4/5 470/4/5 469/4/5
f 474/4/5 470/4/5 473/4/5
f 475/4/5 473/4/5 472/4/5
f 476/4/5 473/4/5 475/4/5
f 479/2/5 478/2/5 477/2/5
f 480/2/5 478/2/5 479/2/5
f 481/2/5 479/2/5 477/2/5
f 482/2/5 479/2/5 481/2/5
f 483/2/5 478/2/5 480/2/5
f 484/2/5 478/2/5 483/2/5
f 485/2/5 481/2/5 477/2/5
f 488/2/5 478/2/5 484/2/5
f 489/2/5 486/2/5 485/2/5
f 490/2/5 488/2/5 487/2/5
f 491/2/5 489/2/5 485/2/5
f 491/2/5 490/2/5 489/2/5
f 491/2/5 485/2/5 477/2/5
f 492/2/5 488/2/5 490/2/5
f 492/2/5 490/2/5 491/2/5
f 492/2/5 478/2/5 488/2/5
f 495/2/5 494/2/5 493/2/5
f 496/2/5 494/2/5 495/2/5
f 499/2/5 498/2/5 497/2/5
f 500/2/5 498/2/5 499/2/5
f 503/2/5 502/2/5 501/2/5
f 504/2/5 502/2/5 503/2/5
f 507/2/5 506/2/5 505/2/5
f 508/2/5 506/2/5 507/2/5
f 511/2/5 510/2/5 509/2/5
f 512/2/5 510/2/5 511/2/5
f 515/2/5 514/2/5 513/2/5
f 516/2/5 514/2/5 515/2/5
f 519/2/5 518/2/5 517/2/5
f 520/2/5 518/2/5 519/2/5
f 524/2/5 522/2/5 521/2/5
f 525/1/5 523/1/5 522/1/5
f 525/2/5 522/2/5 524/2/5
f 527/1/5 523/1/5 525/1/5
f 528/2/5 527/2/5 526/2/5
f 529/1/5 523/1/5 527/1/5
f 529/2/5 527/2/5 528/2/5
f 530/1/5 523/1/5 529/1/5
f 531/2/6 532/2/6 533/2/6
f 533/2/6 532/2/6 534/2/6
f 535/2/6 536/2/6 539/2/6
f 539/2/6 536/2/6 540/2/6
f 537/2/6 538/2/6 541/2/6
f 541/2/6 538/2/6 542/2/6
f 543/2/6 544/2/6 545/2/6
f 545/2/6 544/2/6 546/2/6
f 547/4/6 548/4/6 549/4/6
f 549/4/6 548/4/6 550/4/6
f 551/4/6 552/4/6 555/4/6
f 555/4/6 552/4/6 556/4/6
f 553/4/6 554/4/6 557/4/6
f 557/4/6 554/4/6 558/4/6
f 559/4/6 560/4/6 561/4/6
f 561/4/6 560/4/6 562/4/6
f 563/4/6 564/4/6 566/4/6
f 566/4/6 564/4/6 567/4/6
f 565/4/6 566/4/6 569/4/6
f 569/4/6 566/4/6 570/4/6
f 567/4/6 568/4/6 571/4/6
f 571/4/6 568/4/6 572/4/6
f 570/4/6 571/4/6 573/4/6
f 573/4/6 571/4/6 574/4/6
f 575/4/6 576/4/6 577/4/6
f 577/4/6 576/4/6 578/4/6
f 579/2/6 580/2/6 583/2/6
f 583/2/6 580/2/6 584/2/6
f 581/2/6 582/2/6 585/2/6
f 585/2/6 582/2/6 588/2/6
f 586/2/6 587/2/6 589/2/6
f 589/2/6 587/2/6 590/2/6
f 588/2/6 582/2/6 591/2/6
f 591/2/6 582/2/6 592/2/6
f 593/2/6 594/2/6 597/2/6
f 597/2/6 594/2/6 598/2/6
f 595/2/6 596/2/6 600/2/6
f 600/2/6 596/2/6 601/2/6
f 602/2/6 603/2/6 604/2/6
f 604/2/6 603/2/6 605/2/6
f 598/1/6 599/1/6 606/1/6
f 597/1/6 598/1/6 606/1/6
f 606/1/6 599/1/6 607/1/6
f 607/1/6 599/1/6 608/1/6
f 606/2/6 607/2/6 609/2/6
f 609/2/6 607/2/6 610/2/6
f 611/2/6 612/2/6 613/2/6
f 613/2/6 612/2/6 614/2/6
f 615/2/6 616/2/6 617/2/6
f 617/2/6 616/2/6 618/2/6
f 619/2/6 620/2/6 621/2/6
f 621/2/6 620/2/6 622/2/6
f 623/2/6 624/2/6 625/2/6
f 625/2/6 624/2/6 626/2/6
f 627/2/6 628/2/6 629/2/6
f 627/2/6 629/2/6 631/2/6
f 629/3/6 630/3/6 632/3/6
f 631/2/6 629/2/6 632/2/6
f 632/3/6 630/3/6 634/3/6
f 634/3/6 630/3/6 635/3/6
f 633/2/6 634/2/6 635/2/6
f 635/3/6 630/3/6 636/3/6
f 633/2/6 635/2/6 637/2/6
f 637/2/6 635/2/6 638/2/6
f 639/2/6 640/2/6 641/2/6
f 641/2/6 640/2/6 642/2/6
f 643/2/6 644/2/6 646/2/6
f 644/1/6 645/1/6 647/1/6
f 646/2/6 644/2/6 647/2/6
f 647/1/6 645/1/6 648/1/6
