# MagicaVoxel @ Ephtracy

# group
o 

# material
mtllib KidsRoomStorage-15.mtl
usemtl palette

# normals
vn -1 0 0
vn 1 0 0
vn 0 0 1
vn 0 0 -1
vn 0 -1 0
vn 0 1 0

# texcoords
vt 0.814453 0.5
vt 0.982422 0.5

# verts
v 1.8 0.1 -2
v 1.8 0.1 -2.1
v 1.8 0.1 -2.2
v 1.8 0.1 -2.3
v 1.8 0.2 -2
v 1.8 0.2 -2.1
v 1.8 0.2 -2.2
v 1.8 0.2 -2.3
v 1.9 0.2 -2
v 1.9 0.2 -2.1
v 1.9 0.2 -2.2
v 1.9 0.2 -2.3
v 1.9 0.3 -2
v 1.9 0.3 -2.1
v 1.9 0.3 -2.2
v 1.9 0.3 -2.3
v 1.9 0.4 -1.9
v 1.9 0.4 -2
v 1.9 0.4 -2.3
v 1.9 0.4 -2.4
v 1.9 0.5 -1.9
v 1.9 0.5 -2
v 1.9 0.5 -2.1
v 1.9 0.5 -2.2
v 1.9 0.5 -2.3
v 1.9 0.5 -2.4
v 1.9 0.6 -2.1
v 1.9 0.6 -2.2
v 2 0.1 -2
v 2 0.1 -2.1
v 2 0.1 -2.2
v 2 0.1 -2.3
v 2 0.3 -2
v 2 0.3 -2.1
v 2 0.3 -2.2
v 2 0.3 -2.3
v 2 0.4 -1.9
v 2 0.4 -2
v 2 0.4 -2.3
v 2 0.4 -2.4
v 2 0.5 -1.9
v 2 0.5 -2
v 2 0.5 -2.1
v 2 0.5 -2.2
v 2 0.5 -2.3
v 2 0.5 -2.4
v 2 0.6 -2.1
v 2 0.6 -2.2
v 1.9 0.4 -1.9
v 1.9 0.5 -1.9
v 2 0.4 -1.9
v 2 0.5 -1.9
v 1.8 0.1 -2
v 1.8 0.2 -2
v 1.9 0.2 -2
v 1.9 0.3 -2
v 1.9 0.4 -2
v 2 0.1 -2
v 2 0.3 -2
v 2 0.4 -2
v 1.9 0.5 -2.1
v 1.9 0.6 -2.1
v 2 0.5 -2.1
v 2 0.6 -2.1
v 1.8 0.1 -2.2
v 1.8 0.2 -2.2
v 1.9 0.2 -2.2
v 1.9 0.3 -2.2
v 2 0.1 -2.2
v 2 0.3 -2.2
v 1.8 0.1 -2.1
v 1.8 0.2 -2.1
v 1.9 0.2 -2.1
v 1.9 0.3 -2.1
v 2 0.1 -2.1
v 2 0.3 -2.1
v 1.9 0.5 -2.2
v 1.9 0.6 -2.2
v 2 0.5 -2.2
v 2 0.6 -2.2
v 1.8 0.1 -2.3
v 1.8 0.2 -2.3
v 1.9 0.2 -2.3
v 1.9 0.3 -2.3
v 1.9 0.4 -2.3
v 2 0.1 -2.3
v 2 0.3 -2.3
v 2 0.4 -2.3
v 1.9 0.4 -2.4
v 1.9 0.5 -2.4
v 2 0.4 -2.4
v 2 0.5 -2.4
v 1.8 0.1 -2
v 2 0.1 -2
v 1.8 0.1 -2.1
v 2 0.1 -2.1
v 1.8 0.1 -2.2
v 2 0.1 -2.2
v 1.8 0.1 -2.3
v 2 0.1 -2.3
v 1.9 0.3 -2.1
v 2 0.3 -2.1
v 1.9 0.3 -2.2
v 2 0.3 -2.2
v 1.9 0.4 -1.9
v 2 0.4 -1.9
v 1.9 0.4 -2
v 2 0.4 -2
v 1.9 0.4 -2.3
v 2 0.4 -2.3
v 1.9 0.4 -2.4
v 2 0.4 -2.4
v 1.8 0.2 -2
v 1.9 0.2 -2
v 1.8 0.2 -2.1
v 1.9 0.2 -2.1
v 1.8 0.2 -2.2
v 1.9 0.2 -2.2
v 1.8 0.2 -2.3
v 1.9 0.2 -2.3
v 1.9 0.5 -1.9
v 2 0.5 -1.9
v 1.9 0.5 -2
v 2 0.5 -2
v 1.9 0.5 -2.1
v 2 0.5 -2.1
v 1.9 0.5 -2.2
v 2 0.5 -2.2
v 1.9 0.5 -2.3
v 2 0.5 -2.3
v 1.9 0.5 -2.4
v 2 0.5 -2.4
v 1.9 0.6 -2.1
v 2 0.6 -2.1
v 1.9 0.6 -2.2
v 2 0.6 -2.2

# faces
f 5/2/1 2/2/1 1/2/1
f 6/2/1 2/2/1 5/2/1
f 7/2/1 4/2/1 3/2/1
f 8/2/1 4/2/1 7/2/1
f 13/2/1 10/2/1 9/2/1
f 14/2/1 10/2/1 13/2/1
f 15/2/1 12/2/1 11/2/1
f 16/2/1 12/2/1 15/2/1
f 18/1/1 14/1/1 13/1/1
f 18/1/1 15/1/1 14/1/1
f 18/1/1 16/1/1 15/1/1
f 19/1/1 16/1/1 18/1/1
f 21/2/1 18/2/1 17/2/1
f 22/1/1 19/1/1 18/1/1
f 22/2/1 18/2/1 21/2/1
f 23/1/1 19/1/1 22/1/1
f 24/1/1 19/1/1 23/1/1
f 25/2/1 20/2/1 19/2/1
f 25/1/1 19/1/1 24/1/1
f 26/2/1 20/2/1 25/2/1
f 27/2/1 24/2/1 23/2/1
f 28/2/1 24/2/1 27/2/1
f 29/2/2 30/2/2 33/2/2
f 33/2/2 30/2/2 34/2/2
f 31/2/2 32/2/2 35/2/2
f 35/2/2 32/2/2 36/2/2
f 33/1/2 34/1/2 38/1/2
f 34/1/2 35/1/2 38/1/2
f 35/1/2 36/1/2 38/1/2
f 38/1/2 36/1/2 39/1/2
f 37/2/2 38/2/2 41/2/2
f 38/1/2 39/1/2 42/1/2
f 41/2/2 38/2/2 42/2/2
f 42/1/2 39/1/2 43/1/2
f 43/1/2 39/1/2 44/1/2
f 39/2/2 40/2/2 45/2/2
f 44/1/2 39/1/2 45/1/2
f 45/2/2 40/2/2 46/2/2
f 43/2/2 44/2/2 47/2/2
f 47/2/2 44/2/2 48/2/2
f 51/2/3 50/2/3 49/2/3
f 52/2/3 50/2/3 51/2/3
f 55/2/3 54/2/3 53/2/3
f 58/2/3 55/2/3 53/2/3
f 58/2/3 56/2/3 55/2/3
f 59/1/3 57/1/3 56/1/3
f 59/2/3 56/2/3 58/2/3
f 60/1/3 57/1/3 59/1/3
f 63/2/3 62/2/3 61/2/3
f 64/2/3 62/2/3 63/2/3
f 67/2/3 66/2/3 65/2/3
f 69/2/3 67/2/3 65/2/3
f 69/2/3 68/2/3 67/2/3
f 70/2/3 68/2/3 69/2/3
f 71/2/4 72/2/4 73/2/4
f 71/2/4 73/2/4 75/2/4
f 73/2/4 74/2/4 75/2/4
f 75/2/4 74/2/4 76/2/4
f 77/2/4 78/2/4 79/2/4
f 79/2/4 78/2/4 80/2/4
f 81/2/4 82/2/4 83/2/4
f 81/2/4 83/2/4 86/2/4
f 83/2/4 84/2/4 86/2/4
f 84/1/4 85/1/4 87/1/4
f 86/2/4 84/2/4 87/2/4
f 87/1/4 85/1/4 88/1/4
f 89/2/4 90/2/4 91/2/4
f 91/2/4 90/2/4 92/2/4
f 95/2/5 94/2/5 93/2/5
f 96/2/5 94/2/5 95/2/5
f 99/2/5 98/2/5 97/2/5
f 100/2/5 98/2/5 99/2/5
f 103/1/5 102/1/5 101/1/5
f 104/1/5 102/1/5 103/1/5
f 107/2/5 106/2/5 105/2/5
f 108/2/5 106/2/5 107/2/5
f 111/2/5 110/2/5 109/2/5
f 112/2/5 110/2/5 111/2/5
f 113/2/6 114/2/6 115/2/6
f 115/2/6 114/2/6 116/2/6
f 117/2/6 118/2/6 119/2/6
f 119/2/6 118/2/6 120/2/6
f 121/2/6 122/2/6 123/2/6
f 123/2/6 122/2/6 124/2/6
f 123/1/6 124/1/6 125/1/6
f 125/1/6 124/1/6 126/1/6
f 127/1/6 128/1/6 129/1/6
f 129/1/6 128/1/6 130/1/6
f 129/2/6 130/2/6 131/2/6
f 131/2/6 130/2/6 132/2/6
f 133/2/6 134/2/6 135/2/6
f 135/2/6 134/2/6 136/2/6
