# MagicaVoxel @ Ephtracy

# group
o 

# material
mtllib KidsRoom-11.mtl
usemtl palette

# normals
vn -1 0 0
vn 1 0 0
vn 0 0 1
vn 0 0 -1
vn 0 -1 0
vn 0 1 0

# texcoords
vt 0.908203 0.5
vt 0.943359 0.5
vt 0.966797 0.5
vt 0.970703 0.5
vt 0.974609 0.5
vt 0.986328 0.5

# verts
v 1.3 0.5 2.5
v 1.3 0.5 1.1
v 1.3 0.8 2.5
v 1.3 0.8 1.1
v 1.4 0.1 2.9
v 1.4 0.1 2.7
v 1.4 0.1 1.4
v 1.4 0.1 1.2
v 1.4 0.4 2.9
v 1.4 0.4 2.7
v 1.4 0.4 1.4
v 1.4 0.4 1.2
v 1.4 0.5 2.9
v 1.4 0.5 2.5
v 1.4 0.5 1.2
v 1.4 0.7 2.9
v 1.4 0.7 2.5
v 1.6 0.7 2.8
v 1.6 0.7 2.5
v 1.6 0.8 2.8
v 1.6 0.8 2.5
v 2.1 0.1 2.9
v 2.1 0.1 2.7
v 2.1 0.1 1.4
v 2.1 0.1 1.2
v 2.1 0.4 2.9
v 2.1 0.4 2.7
v 2.1 0.4 1.4
v 2.1 0.4 1.2
v 1.6 0.1 2.9
v 1.6 0.1 2.7
v 1.6 0.1 1.4
v 1.6 0.1 1.2
v 1.6 0.4 2.9
v 1.6 0.4 2.7
v 1.6 0.4 1.4
v 1.6 0.4 1.2
v 2.1 0.7 2.8
v 2.1 0.7 2.5
v 2.1 0.8 2.8
v 2.1 0.8 2.5
v 2.3 0.1 2.9
v 2.3 0.1 2.7
v 2.3 0.1 1.4
v 2.3 0.1 1.2
v 2.3 0.4 2.9
v 2.3 0.4 2.7
v 2.3 0.4 1.4
v 2.3 0.4 1.2
v 2.3 0.5 2.9
v 2.3 0.5 2.5
v 2.3 0.5 1.2
v 2.3 0.7 2.9
v 2.3 0.7 2.5
v 2.4 0.5 2.5
v 2.4 0.5 1.1
v 2.4 0.8 2.5
v 2.4 0.8 1.1
v 1.4 0.1 2.9
v 1.4 0.4 2.9
v 1.4 0.5 2.9
v 1.4 0.7 2.9
v 1.6 0.1 2.9
v 1.6 0.4 2.9
v 2.1 0.1 2.9
v 2.1 0.4 2.9
v 2.3 0.1 2.9
v 2.3 0.4 2.9
v 2.3 0.5 2.9
v 2.3 0.7 2.9
v 1.6 0.7 2.8
v 1.6 0.8 2.8
v 2.1 0.7 2.8
v 2.1 0.8 2.8
v 1.3 0.5 2.5
v 1.3 0.8 2.5
v 1.4 0.5 2.5
v 1.4 0.7 2.5
v 1.6 0.7 2.5
v 1.6 0.8 2.5
v 2.1 0.7 2.5
v 2.1 0.8 2.5
v 2.3 0.5 2.5
v 2.3 0.7 2.5
v 2.4 0.5 2.5
v 2.4 0.8 2.5
v 1.4 0.1 1.4
v 1.4 0.4 1.4
v 1.6 0.1 1.4
v 1.6 0.4 1.4
v 2.1 0.1 1.4
v 2.1 0.4 1.4
v 2.3 0.1 1.4
v 2.3 0.4 1.4
v 1.4 0.1 2.7
v 1.4 0.4 2.7
v 1.6 0.1 2.7
v 1.6 0.4 2.7
v 2.1 0.1 2.7
v 2.1 0.4 2.7
v 2.3 0.1 2.7
v 2.3 0.4 2.7
v 1.4 0.1 1.2
v 1.4 0.4 1.2
v 1.4 0.5 1.2
v 1.6 0.1 1.2
v 1.6 0.4 1.2
v 2.1 0.1 1.2
v 2.1 0.4 1.2
v 2.3 0.1 1.2
v 2.3 0.4 1.2
v 2.3 0.5 1.2
v 1.3 0.5 1.1
v 1.3 0.8 1.1
v 2.4 0.5 1.1
v 2.4 0.8 1.1
v 1.4 0.1 2.9
v 1.6 0.1 2.9
v 2.1 0.1 2.9
v 2.3 0.1 2.9
v 1.4 0.1 2.7
v 1.6 0.1 2.7
v 2.1 0.1 2.7
v 2.3 0.1 2.7
v 1.4 0.1 1.4
v 1.6 0.1 1.4
v 2.1 0.1 1.4
v 2.3 0.1 1.4
v 1.4 0.1 1.2
v 1.6 0.1 1.2
v 2.1 0.1 1.2
v 2.3 0.1 1.2
v 1.6 0.4 2.9
v 2.1 0.4 2.9
v 1.4 0.4 2.7
v 1.6 0.4 2.7
v 2.1 0.4 2.7
v 2.3 0.4 2.7
v 1.4 0.4 1.4
v 1.6 0.4 1.4
v 2.1 0.4 1.4
v 2.3 0.4 1.4
v 1.6 0.4 1.2
v 2.1 0.4 1.2
v 1.3 0.5 2.5
v 1.4 0.5 2.5
v 2.3 0.5 2.5
v 2.4 0.5 2.5
v 1.4 0.5 1.2
v 2.3 0.5 1.2
v 1.3 0.5 1.1
v 2.4 0.5 1.1
v 1.4 0.7 2.9
v 2.3 0.7 2.9
v 1.6 0.7 2.8
v 2.1 0.7 2.8
v 1.4 0.7 2.5
v 1.6 0.7 2.5
v 2.1 0.7 2.5
v 2.3 0.7 2.5
v 1.6 0.8 2.8
v 2.1 0.8 2.8
v 1.3 0.8 2.5
v 1.6 0.8 2.5
v 2.1 0.8 2.5
v 2.4 0.8 2.5
v 1.5 0.8 2.3
v 1.7 0.8 2.3
v 2 0.8 2.3
v 2.2 0.8 2.3
v 1.5 0.8 2
v 1.7 0.8 2
v 2 0.8 2
v 2.2 0.8 2
v 1.5 0.8 1.6
v 1.6 0.8 1.6
v 1.7 0.8 1.6
v 1.8 0.8 1.6
v 1.9 0.8 1.6
v 2 0.8 1.6
v 2.1 0.8 1.6
v 2.2 0.8 1.6
v 1.4 0.8 1.5
v 1.5 0.8 1.5
v 1.6 0.8 1.5
v 1.7 0.8 1.5
v 1.8 0.8 1.5
v 1.9 0.8 1.5
v 2 0.8 1.5
v 2.1 0.8 1.5
v 2.2 0.8 1.5
v 2.3 0.8 1.5
v 1.4 0.8 1.4
v 1.5 0.8 1.4
v 1.6 0.8 1.4
v 1.7 0.8 1.4
v 1.8 0.8 1.4
v 1.9 0.8 1.4
v 2 0.8 1.4
v 2.1 0.8 1.4
v 2.2 0.8 1.4
v 2.3 0.8 1.4
v 1.5 0.8 1.3
v 1.6 0.8 1.3
v 1.7 0.8 1.3
v 1.8 0.8 1.3
v 1.9 0.8 1.3
v 2 0.8 1.3
v 2.1 0.8 1.3
v 2.2 0.8 1.3
v 1.3 0.8 1.1
v 2.4 0.8 1.1

# faces
f 3/1/1 2/1/1 1/1/1
f 4/1/1 2/1/1 3/1/1
f 9/3/1 6/3/1 5/3/1
f 10/3/1 6/3/1 9/3/1
f 11/3/1 8/3/1 7/3/1
f 12/3/1 8/3/1 11/3/1
f 13/6/1 10/6/1 9/6/1
f 13/6/1 11/6/1 10/6/1
f 13/6/1 12/6/1 11/6/1
f 14/6/1 12/6/1 13/6/1
f 15/6/1 12/6/1 14/6/1
f 16/2/1 14/2/1 13/2/1
f 17/2/1 14/2/1 16/2/1
f 20/5/1 19/5/1 18/5/1
f 21/5/1 19/5/1 20/5/1
f 26/3/1 23/3/1 22/3/1
f 27/3/1 23/3/1 26/3/1
f 28/3/1 25/3/1 24/3/1
f 29/3/1 25/3/1 28/3/1
f 30/3/2 31/3/2 34/3/2
f 34/3/2 31/3/2 35/3/2
f 32/3/2 33/3/2 36/3/2
f 36/3/2 33/3/2 37/3/2
f 38/5/2 39/5/2 40/5/2
f 40/5/2 39/5/2 41/5/2
f 42/3/2 43/3/2 46/3/2
f 46/3/2 43/3/2 47/3/2
f 44/3/2 45/3/2 48/3/2
f 48/3/2 45/3/2 49/3/2
f 46/6/2 47/6/2 50/6/2
f 47/6/2 48/6/2 50/6/2
f 48/6/2 49/6/2 50/6/2
f 50/6/2 49/6/2 51/6/2
f 51/6/2 49/6/2 52/6/2
f 50/2/2 51/2/2 53/2/2
f 53/2/2 51/2/2 54/2/2
f 55/1/2 56/1/2 57/1/2
f 57/1/2 56/1/2 58/1/2
f 63/3/3 60/3/3 59/3/3
f 64/6/3 61/6/3 60/6/3
f 64/3/3 60/3/3 63/3/3
f 66/6/3 61/6/3 64/6/3
f 67/3/3 66/3/3 65/3/3
f 68/6/3 61/6/3 66/6/3
f 68/3/3 66/3/3 67/3/3
f 69/2/3 62/2/3 61/2/3
f 69/6/3 61/6/3 68/6/3
f 70/2/3 62/2/3 69/2/3
f 73/5/3 72/5/3 71/5/3
f 74/5/3 72/5/3 73/5/3
f 77/1/3 76/1/3 75/1/3
f 78/1/3 76/1/3 77/1/3
f 79/1/3 76/1/3 78/1/3
f 80/1/3 76/1/3 79/1/3
f 84/1/3 82/1/3 81/1/3
f 85/1/3 84/1/3 83/1/3
f 86/1/3 82/1/3 84/1/3
f 86/1/3 84/1/3 85/1/3
f 89/3/3 88/3/3 87/3/3
f 90/3/3 88/3/3 89/3/3
f 93/3/3 92/3/3 91/3/3
f 94/3/3 92/3/3 93/3/3
f 95/3/4 96/3/4 97/3/4
f 97/3/4 96/3/4 98/3/4
f 99/3/4 100/3/4 101/3/4
f 101/3/4 100/3/4 102/3/4
f 103/3/4 104/3/4 106/3/4
f 104/6/4 105/6/4 107/6/4
f 106/3/4 104/3/4 107/3/4
f 107/6/4 105/6/4 109/6/4
f 108/3/4 109/3/4 110/3/4
f 109/6/4 105/6/4 111/6/4
f 110/3/4 109/3/4 111/3/4
f 111/6/4 105/6/4 112/6/4
f 113/1/4 114/1/4 115/1/4
f 115/1/4 114/1/4 116/1/4
f 121/3/5 118/3/5 117/3/5
f 122/3/5 118/3/5 121/3/5
f 123/3/5 120/3/5 119/3/5
f 124/3/5 120/3/5 123/3/5
f 129/3/5 126/3/5 125/3/5
f 130/3/5 126/3/5 129/3/5
f 131/3/5 128/3/5 127/3/5
f 132/3/5 128/3/5 131/3/5
f 136/6/5 134/6/5 133/6/5
f 137/6/5 134/6/5 136/6/5
f 139/6/5 136/6/5 135/6/5
f 139/6/5 138/6/5 137/6/5
f 139/6/5 137/6/5 136/6/5
f 140/6/5 138/6/5 139/6/5
f 141/6/5 138/6/5 140/6/5
f 142/6/5 138/6/5 141/6/5
f 143/6/5 141/6/5 140/6/5
f 144/6/5 141/6/5 143/6/5
f 149/1/5 146/1/5 145/1/5
f 150/1/5 148/1/5 147/1/5
f 151/1/5 149/1/5 145/1/5
f 151/1/5 150/1/5 149/1/5
f 152/1/5 148/1/5 150/1/5
f 152/1/5 150/1/5 151/1/5
f 153/2/6 154/2/6 155/2/6
f 155/2/6 154/2/6 156/2/6
f 153/2/6 155/2/6 157/2/6
f 157/2/6 155/2/6 158/2/6
f 156/2/6 154/2/6 159/2/6
f 159/2/6 154/2/6 160/2/6
f 161/5/6 162/5/6 164/5/6
f 164/5/6 162/5/6 165/5/6
f 163/1/6 164/1/6 167/1/6
f 165/1/6 166/1/6 167/1/6
f 164/1/6 165/1/6 167/1/6
f 167/1/6 166/1/6 168/1/6
f 168/1/6 166/1/6 169/1/6
f 169/1/6 166/1/6 170/1/6
f 163/1/6 167/1/6 171/1/6
f 167/4/6 168/4/6 171/4/6
f 168/1/6 169/1/6 172/1/6
f 171/4/6 168/4/6 172/4/6
f 169/4/6 170/4/6 173/4/6
f 172/1/6 169/1/6 173/1/6
f 170/1/6 166/1/6 174/1/6
f 173/4/6 170/4/6 174/4/6
f 172/1/6 173/1/6 175/1/6
f 171/1/6 172/1/6 175/1/6
f 173/1/6 174/1/6 175/1/6
f 163/1/6 171/1/6 175/1/6
f 175/1/6 174/1/6 176/1/6
f 176/1/6 174/1/6 177/1/6
f 177/1/6 174/1/6 178/1/6
f 178/1/6 174/1/6 179/1/6
f 179/1/6 174/1/6 180/1/6
f 180/1/6 174/1/6 181/1/6
f 174/1/6 166/1/6 182/1/6
f 181/1/6 174/1/6 182/1/6
f 163/1/6 175/1/6 183/1/6
f 175/5/6 176/5/6 184/5/6
f 183/1/6 175/1/6 184/1/6
f 176/1/6 177/1/6 185/1/6
f 184/5/6 176/5/6 185/5/6
f 177/5/6 178/5/6 186/5/6
f 185/1/6 177/1/6 186/1/6
f 178/1/6 179/1/6 187/1/6
f 186/5/6 178/5/6 187/5/6
f 179/5/6 180/5/6 188/5/6
f 187/1/6 179/1/6 188/1/6
f 180/1/6 181/1/6 189/1/6
f 188/5/6 180/5/6 189/5/6
f 181/5/6 182/5/6 190/5/6
f 189/1/6 181/1/6 190/1/6
f 182/1/6 166/1/6 191/1/6
f 190/5/6 182/5/6 191/5/6
f 191/1/6 166/1/6 192/1/6
f 163/1/6 183/1/6 193/1/6
f 183/5/6 184/5/6 193/5/6
f 184/1/6 185/1/6 194/1/6
f 193/5/6 184/5/6 194/5/6
f 185/5/6 186/5/6 195/5/6
f 194/1/6 185/1/6 195/1/6
f 186/1/6 187/1/6 196/1/6
f 195/5/6 186/5/6 196/5/6
f 187/5/6 188/5/6 197/5/6
f 196/1/6 187/1/6 197/1/6
f 188/1/6 189/1/6 198/1/6
f 197/5/6 188/5/6 198/5/6
f 189/5/6 190/5/6 199/5/6
f 198/1/6 189/1/6 199/1/6
f 190/1/6 191/1/6 200/1/6
f 199/5/6 190/5/6 200/5/6
f 191/5/6 192/5/6 201/5/6
f 200/1/6 191/1/6 201/1/6
f 192/1/6 166/1/6 202/1/6
f 201/5/6 192/5/6 202/5/6
f 193/1/6 194/1/6 203/1/6
f 194/5/6 195/5/6 203/5/6
f 195/1/6 196/1/6 204/1/6
f 203/5/6 195/5/6 204/5/6
f 196/5/6 197/5/6 205/5/6
f 204/1/6 196/1/6 205/1/6
f 197/1/6 198/1/6 206/1/6
f 205/5/6 197/5/6 206/5/6
f 198/5/6 199/5/6 207/5/6
f 206/1/6 198/1/6 207/1/6
f 199/1/6 200/1/6 208/1/6
f 207/5/6 199/5/6 208/5/6
f 200/5/6 201/5/6 209/5/6
f 208/1/6 200/1/6 209/1/6
f 201/1/6 202/1/6 210/1/6
f 209/5/6 201/5/6 210/5/6
f 193/1/6 203/1/6 211/1/6
f 204/1/6 205/1/6 211/1/6
f 209/1/6 210/1/6 211/1/6
f 205/1/6 206/1/6 211/1/6
f 203/1/6 204/1/6 211/1/6
f 208/1/6 209/1/6 211/1/6
f 207/1/6 208/1/6 211/1/6
f 163/1/6 193/1/6 211/1/6
f 206/1/6 207/1/6 211/1/6
f 210/1/6 202/1/6 212/1/6
f 211/1/6 210/1/6 212/1/6
f 202/1/6 166/1/6 212/1/6
