# MagicaVoxel @ Ephtracy

# group
o 

# material
mtllib KidsRoom-4.mtl
usemtl palette

# normals
vn -1 0 0
vn 1 0 0
vn 0 0 1
vn 0 0 -1
vn 0 -1 0
vn 0 1 0

# texcoords
vt 0.0449219 0.5
vt 0.908203 0.5
vt 0.994141 0.5

# verts
v -1 0.1 -0.2
v -1 0.1 -0.3
v -1 0.1 -0.5
v -1 0.1 -0.6
v -1 0.2 -0.2
v -1 0.2 -0.3
v -1 0.2 -0.5
v -1 0.2 -0.6
v -1 0.3 -0.3
v -1 0.3 -0.5
v -0.9 0.2 -0.2
v -0.9 0.2 -0.3
v -0.9 0.2 -0.5
v -0.9 0.2 -0.6
v -0.9 0.3 -0.2
v -0.9 0.3 -0.3
v -0.9 0.3 -0.5
v -0.9 0.3 -0.6
v -0.9 0.4 -0.3
v -0.9 0.4 -0.5
v -0.8 0.1 -0.2
v -0.8 0.1 -0.3
v -0.8 0.1 -0.5
v -0.8 0.1 -0.6
v -0.8 0.2 -0.2
v -0.8 0.2 -0.3
v -0.8 0.2 -0.5
v -0.8 0.2 -0.6
v -0.9 0.1 -0.2
v -0.9 0.1 -0.3
v -0.9 0.1 -0.5
v -0.9 0.1 -0.6
v -0.9 0.2 -0.2
v -0.9 0.2 -0.3
v -0.9 0.2 -0.5
v -0.9 0.2 -0.6
v -0.8 0.2 -0.2
v -0.8 0.2 -0.3
v -0.8 0.2 -0.5
v -0.8 0.2 -0.6
v -0.8 0.3 -0.2
v -0.8 0.3 -0.3
v -0.8 0.3 -0.5
v -0.8 0.3 -0.6
v -0.8 0.4 -0.3
v -0.8 0.4 -0.5
v -0.7 0.1 -0.2
v -0.7 0.1 -0.3
v -0.7 0.1 -0.5
v -0.7 0.1 -0.6
v -0.7 0.2 -0.2
v -0.7 0.2 -0.3
v -0.7 0.2 -0.5
v -0.7 0.2 -0.6
v -0.7 0.3 -0.3
v -0.7 0.3 -0.5
v -1 0.1 -0.2
v -1 0.2 -0.2
v -0.9 0.1 -0.2
v -0.9 0.2 -0.2
v -0.9 0.3 -0.2
v -0.8 0.1 -0.2
v -0.8 0.2 -0.2
v -0.8 0.3 -0.2
v -0.7 0.1 -0.2
v -0.7 0.2 -0.2
v -1 0.2 -0.3
v -1 0.3 -0.3
v -0.9 0.2 -0.3
v -0.9 0.3 -0.3
v -0.9 0.4 -0.3
v -0.8 0.2 -0.3
v -0.8 0.3 -0.3
v -0.8 0.4 -0.3
v -0.7 0.2 -0.3
v -0.7 0.3 -0.3
v -1 0.1 -0.5
v -1 0.2 -0.5
v -0.9 0.1 -0.5
v -0.9 0.2 -0.5
v -0.8 0.1 -0.5
v -0.8 0.2 -0.5
v -0.7 0.1 -0.5
v -0.7 0.2 -0.5
v -1 0.1 -0.3
v -1 0.2 -0.3
v -0.9 0.1 -0.3
v -0.9 0.2 -0.3
v -0.8 0.1 -0.3
v -0.8 0.2 -0.3
v -0.7 0.1 -0.3
v -0.7 0.2 -0.3
v -1 0.2 -0.5
v -1 0.3 -0.5
v -0.9 0.2 -0.5
v -0.9 0.3 -0.5
v -0.9 0.4 -0.5
v -0.8 0.2 -0.5
v -0.8 0.3 -0.5
v -0.8 0.4 -0.5
v -0.7 0.2 -0.5
v -0.7 0.3 -0.5
v -1 0.1 -0.6
v -1 0.2 -0.6
v -0.9 0.1 -0.6
v -0.9 0.2 -0.6
v -0.9 0.3 -0.6
v -0.8 0.1 -0.6
v -0.8 0.2 -0.6
v -0.8 0.3 -0.6
v -0.7 0.1 -0.6
v -0.7 0.2 -0.6
v -1 0.1 -0.2
v -0.9 0.1 -0.2
v -0.8 0.1 -0.2
v -0.7 0.1 -0.2
v -1 0.1 -0.3
v -0.9 0.1 -0.3
v -0.8 0.1 -0.3
v -0.7 0.1 -0.3
v -1 0.1 -0.5
v -0.9 0.1 -0.5
v -0.8 0.1 -0.5
v -0.7 0.1 -0.5
v -1 0.1 -0.6
v -0.9 0.1 -0.6
v -0.8 0.1 -0.6
v -0.7 0.1 -0.6
v -0.9 0.2 -0.2
v -0.8 0.2 -0.2
v -1 0.2 -0.3
v -0.9 0.2 -0.3
v -0.8 0.2 -0.3
v -0.7 0.2 -0.3
v -1 0.2 -0.5
v -0.9 0.2 -0.5
v -0.8 0.2 -0.5
v -0.7 0.2 -0.5
v -0.9 0.2 -0.6
v -0.8 0.2 -0.6
v -1 0.2 -0.2
v -0.9 0.2 -0.2
v -0.8 0.2 -0.2
v -0.7 0.2 -0.2
v -1 0.2 -0.3
v -0.9 0.2 -0.3
v -0.8 0.2 -0.3
v -0.7 0.2 -0.3
v -1 0.2 -0.5
v -0.9 0.2 -0.5
v -0.8 0.2 -0.5
v -0.7 0.2 -0.5
v -1 0.2 -0.6
v -0.9 0.2 -0.6
v -0.8 0.2 -0.6
v -0.7 0.2 -0.6
v -0.9 0.3 -0.2
v -0.8 0.3 -0.2
v -1 0.3 -0.3
v -0.9 0.3 -0.3
v -0.8 0.3 -0.3
v -0.7 0.3 -0.3
v -1 0.3 -0.5
v -0.9 0.3 -0.5
v -0.8 0.3 -0.5
v -0.7 0.3 -0.5
v -0.9 0.3 -0.6
v -0.8 0.3 -0.6
v -0.9 0.4 -0.3
v -0.8 0.4 -0.3
v -0.9 0.4 -0.5
v -0.8 0.4 -0.5

# faces
f 5/3/1 2/3/1 1/3/1
f 6/3/1 2/3/1 5/3/1
f 7/3/1 4/3/1 3/3/1
f 8/3/1 4/3/1 7/3/1
f 9/1/1 7/1/1 6/1/1
f 10/1/1 7/1/1 9/1/1
f 15/1/1 12/1/1 11/1/1
f 16/1/1 12/1/1 15/1/1
f 17/1/1 14/1/1 13/1/1
f 18/1/1 14/1/1 17/1/1
f 19/2/1 17/2/1 16/2/1
f 20/2/1 17/2/1 19/2/1
f 25/3/1 22/3/1 21/3/1
f 26/3/1 22/3/1 25/3/1
f 27/3/1 24/3/1 23/3/1
f 28/3/1 24/3/1 27/3/1
f 29/3/2 30/3/2 33/3/2
f 33/3/2 30/3/2 34/3/2
f 31/3/2 32/3/2 35/3/2
f 35/3/2 32/3/2 36/3/2
f 37/1/2 38/1/2 41/1/2
f 41/1/2 38/1/2 42/1/2
f 39/1/2 40/1/2 43/1/2
f 43/1/2 40/1/2 44/1/2
f 42/2/2 43/2/2 45/2/2
f 45/2/2 43/2/2 46/2/2
f 47/3/2 48/3/2 51/3/2
f 51/3/2 48/3/2 52/3/2
f 49/3/2 50/3/2 53/3/2
f 53/3/2 50/3/2 54/3/2
f 52/1/2 53/1/2 55/1/2
f 55/1/2 53/1/2 56/1/2
f 59/3/3 58/3/3 57/3/3
f 60/3/3 58/3/3 59/3/3
f 63/1/3 61/1/3 60/1/3
f 64/1/3 61/1/3 63/1/3
f 65/3/3 63/3/3 62/3/3
f 66/3/3 63/3/3 65/3/3
f 69/1/3 68/1/3 67/1/3
f 70/1/3 68/1/3 69/1/3
f 73/2/3 71/2/3 70/2/3
f 74/2/3 71/2/3 73/2/3
f 75/1/3 73/1/3 72/1/3
f 76/1/3 73/1/3 75/1/3
f 79/3/3 78/3/3 77/3/3
f 80/3/3 78/3/3 79/3/3
f 83/3/3 82/3/3 81/3/3
f 84/3/3 82/3/3 83/3/3
f 85/3/4 86/3/4 87/3/4
f 87/3/4 86/3/4 88/3/4
f 89/3/4 90/3/4 91/3/4
f 91/3/4 90/3/4 92/3/4
f 93/1/4 94/1/4 95/1/4
f 95/1/4 94/1/4 96/1/4
f 96/2/4 97/2/4 99/2/4
f 99/2/4 97/2/4 100/2/4
f 98/1/4 99/1/4 101/1/4
f 101/1/4 99/1/4 102/1/4
f 103/3/4 104/3/4 105/3/4
f 105/3/4 104/3/4 106/3/4
f 106/1/4 107/1/4 109/1/4
f 109/1/4 107/1/4 110/1/4
f 108/3/4 109/3/4 111/3/4
f 111/3/4 109/3/4 112/3/4
f 117/3/5 114/3/5 113/3/5
f 118/3/5 114/3/5 117/3/5
f 119/3/5 116/3/5 115/3/5
f 120/3/5 116/3/5 119/3/5
f 125/3/5 122/3/5 121/3/5
f 126/3/5 122/3/5 125/3/5
f 127/3/5 124/3/5 123/3/5
f 128/3/5 124/3/5 127/3/5
f 132/1/5 130/1/5 129/1/5
f 133/1/5 130/1/5 132/1/5
f 135/1/5 132/1/5 131/1/5
f 135/1/5 134/1/5 133/1/5
f 135/1/5 133/1/5 132/1/5
f 136/1/5 134/1/5 135/1/5
f 137/1/5 134/1/5 136/1/5
f 138/1/5 134/1/5 137/1/5
f 139/1/5 137/1/5 136/1/5
f 140/1/5 137/1/5 139/1/5
f 141/3/6 142/3/6 145/3/6
f 145/3/6 142/3/6 146/3/6
f 143/3/6 144/3/6 147/3/6
f 147/3/6 144/3/6 148/3/6
f 149/3/6 150/3/6 153/3/6
f 153/3/6 150/3/6 154/3/6
f 151/3/6 152/3/6 155/3/6
f 155/3/6 152/3/6 156/3/6
f 157/1/6 158/1/6 160/1/6
f 160/1/6 158/1/6 161/1/6
f 159/1/6 160/1/6 163/1/6
f 163/1/6 160/1/6 164/1/6
f 161/1/6 162/1/6 165/1/6
f 165/1/6 162/1/6 166/1/6
f 164/1/6 165/1/6 167/1/6
f 167/1/6 165/1/6 168/1/6
f 169/2/6 170/2/6 171/2/6
f 171/2/6 170/2/6 172/2/6
