# MagicaVoxel @ Ephtracy

# group
o 

# material
mtllib KidsRoom-5.mtl
usemtl palette

# normals
vn -1 0 0
vn 1 0 0
vn 0 0 1
vn 0 0 -1
vn 0 -1 0
vn 0 1 0

# texcoords
vt 0.0917969 0.5
vt 0.994141 0.5

# verts
v -2.3 0.1 0.2
v -2.3 0.1 -1.6
v -2.3 1 0.2
v -2.3 1 -1.6
v -1.2 0.2 0.1
v -1.2 0.2 -1.5
v -1.2 1 0.1
v -1.2 1 -1.5
v -2.2 0.2 0.1
v -2.2 0.2 -1.5
v -2.2 1 0.1
v -2.2 1 -1.5
v -1.1 0.1 0.2
v -1.1 0.1 -1.6
v -1.1 0.7 -0.6
v -1.1 0.7 -0.8
v -1.1 0.8 -0.5
v -1.1 0.8 -0.6
v -1.1 0.8 -0.8
v -1.1 0.8 -0.9
v -1.1 0.9 -0.5
v -1.1 0.9 -0.6
v -1.1 0.9 -0.8
v -1.1 0.9 -0.9
v -1.1 1 0.2
v -1.1 1 -1.6
v -1 0.7 -0.6
v -1 0.7 -0.8
v -1 0.8 -0.5
v -1 0.8 -0.6
v -1 0.8 -0.8
v -1 0.8 -0.9
v -1 0.9 -0.5
v -1 0.9 -0.6
v -1 0.9 -0.8
v -1 0.9 -0.9
v -2.3 0.1 0.2
v -2.3 1 0.2
v -1.1 0.1 0.2
v -1.1 1 0.2
v -1.1 0.8 -0.5
v -1.1 0.9 -0.5
v -1 0.8 -0.5
v -1 0.9 -0.5
v -1.1 0.7 -0.6
v -1.1 0.8 -0.6
v -1 0.7 -0.6
v -1 0.8 -0.6
v -1.1 0.8 -0.8
v -1.1 0.9 -0.8
v -1 0.8 -0.8
v -1 0.9 -0.8
v -2.2 0.2 -1.5
v -2.2 1 -1.5
v -1.2 0.2 -1.5
v -1.2 1 -1.5
v -2.2 0.2 0.1
v -2.2 1 0.1
v -1.2 0.2 0.1
v -1.2 1 0.1
v -1.1 0.8 -0.6
v -1.1 0.9 -0.6
v -1 0.8 -0.6
v -1 0.9 -0.6
v -1.1 0.7 -0.8
v -1.1 0.8 -0.8
v -1 0.7 -0.8
v -1 0.8 -0.8
v -1.1 0.8 -0.9
v -1.1 0.9 -0.9
v -1 0.8 -0.9
v -1 0.9 -0.9
v -2.3 0.1 -1.6
v -2.3 1 -1.6
v -1.1 0.1 -1.6
v -1.1 1 -1.6
v -2.3 0.1 0.2
v -1.1 0.1 0.2
v -2.3 0.1 -1.6
v -1.1 0.1 -1.6
v -1.1 0.7 -0.6
v -1 0.7 -0.6
v -1.1 0.7 -0.8
v -1 0.7 -0.8
v -1.1 0.8 -0.5
v -1 0.8 -0.5
v -1.1 0.8 -0.6
v -1 0.8 -0.6
v -1.1 0.8 -0.8
v -1 0.8 -0.8
v -1.1 0.8 -0.9
v -1 0.8 -0.9
v -2.2 0.2 0.1
v -1.2 0.2 0.1
v -2.2 0.2 -1.5
v -1.2 0.2 -1.5
v -1.1 0.8 -0.6
v -1 0.8 -0.6
v -1.1 0.8 -0.8
v -1 0.8 -0.8
v -1.1 0.9 -0.5
v -1 0.9 -0.5
v -1.1 0.9 -0.6
v -1 0.9 -0.6
v -1.1 0.9 -0.8
v -1 0.9 -0.8
v -1.1 0.9 -0.9
v -1 0.9 -0.9
v -2.3 1 0.2
v -1.1 1 0.2
v -2.2 1 0.1
v -1.2 1 0.1
v -2.2 1 -1.5
v -1.2 1 -1.5
v -2.3 1 -1.6
v -1.1 1 -1.6

# faces
f 3/1/1 2/1/1 1/1/1
f 4/1/1 2/1/1 3/1/1
f 7/1/1 6/1/1 5/1/1
f 8/1/1 6/1/1 7/1/1
f 9/1/2 10/1/2 11/1/2
f 11/1/2 10/1/2 12/1/2
f 13/1/2 14/1/2 15/1/2
f 15/1/2 14/1/2 16/1/2
f 13/1/2 15/1/2 17/1/2
f 17/1/2 15/1/2 18/1/2
f 16/1/2 14/1/2 19/1/2
f 19/1/2 14/1/2 20/1/2
f 13/1/2 17/1/2 21/1/2
f 18/1/2 19/1/2 22/1/2
f 22/1/2 19/1/2 23/1/2
f 20/1/2 14/1/2 24/1/2
f 22/1/2 23/1/2 25/1/2
f 23/1/2 24/1/2 25/1/2
f 13/1/2 21/1/2 25/1/2
f 21/1/2 22/1/2 25/1/2
f 24/1/2 14/1/2 26/1/2
f 25/1/2 24/1/2 26/1/2
f 27/2/2 28/2/2 30/2/2
f 30/2/2 28/2/2 31/2/2
f 29/2/2 30/2/2 33/2/2
f 33/2/2 30/2/2 34/2/2
f 31/2/2 32/2/2 35/2/2
f 35/2/2 32/2/2 36/2/2
f 39/1/3 38/1/3 37/1/3
f 40/1/3 38/1/3 39/1/3
f 43/2/3 42/2/3 41/2/3
f 44/2/3 42/2/3 43/2/3
f 47/2/3 46/2/3 45/2/3
f 48/2/3 46/2/3 47/2/3
f 51/2/3 50/2/3 49/2/3
f 52/2/3 50/2/3 51/2/3
f 55/1/3 54/1/3 53/1/3
f 56/1/3 54/1/3 55/1/3
f 57/1/4 58/1/4 59/1/4
f 59/1/4 58/1/4 60/1/4
f 61/2/4 62/2/4 63/2/4
f 63/2/4 62/2/4 64/2/4
f 65/2/4 66/2/4 67/2/4
f 67/2/4 66/2/4 68/2/4
f 69/2/4 70/2/4 71/2/4
f 71/2/4 70/2/4 72/2/4
f 73/1/4 74/1/4 75/1/4
f 75/1/4 74/1/4 76/1/4
f 79/1/5 78/1/5 77/1/5
f 80/1/5 78/1/5 79/1/5
f 83/2/5 82/2/5 81/2/5
f 84/2/5 82/2/5 83/2/5
f 87/2/5 86/2/5 85/2/5
f 88/2/5 86/2/5 87/2/5
f 91/2/5 90/2/5 89/2/5
f 92/2/5 90/2/5 91/2/5
f 93/1/6 94/1/6 95/1/6
f 95/1/6 94/1/6 96/1/6
f 97/2/6 98/2/6 99/2/6
f 99/2/6 98/2/6 100/2/6
f 101/2/6 102/2/6 103/2/6
f 103/2/6 102/2/6 104/2/6
f 105/2/6 106/2/6 107/2/6
f 107/2/6 106/2/6 108/2/6
f 109/1/6 110/1/6 111/1/6
f 111/1/6 110/1/6 112/1/6
f 109/1/6 111/1/6 113/1/6
f 112/1/6 110/1/6 114/1/6
f 109/1/6 113/1/6 115/1/6
f 113/1/6 114/1/6 115/1/6
f 114/1/6 110/1/6 116/1/6
f 115/1/6 114/1/6 116/1/6
