# MagicaVoxel @ Ephtracy

# group
o 

# material
mtllib FamilyFrame.mtl
usemtl palette

# normals
vn -1 0 0
vn 1 0 0
vn 0 0 1
vn 0 0 -1
vn 0 -1 0
vn 0 1 0

# texcoords
vt 0.876953 0.5
vt 0.880859 0.5
vt 0.908203 0.5
vt 0.947266 0.5
vt 0.962891 0.5

# verts
v -0.5 0 0.3
v -0.5 0 0.2
v -0.5 0.6 0.3
v -0.5 0.6 0.2
v -0.4 0.1 0.2
v -0.4 0.1 0.1
v -0.4 0.5 0.2
v -0.4 0.5 0.1
v -0.3 0.3 0.1
v -0.3 0.3 -2.98023e-08
v -0.3 0.4 0.1
v -0.3 0.4 -2.98023e-08
v -0.2 0 -0.2
v -0.2 0 -0.3
v -0.2 0.2 -0.1
v -0.2 0.2 -0.2
v -0.2 0.3 -2.98023e-08
v -0.2 0.3 -0.1
v -0.2 0.3 -0.2
v -0.2 0.3 -0.3
v -0.2 0.4 -2.98023e-08
v -0.2 0.4 -0.2
v 0 0 -0.2
v 0 0 -0.3
v 0 0.2 -0.1
v 0 0.2 -0.2
v 0 0.3 -2.98023e-08
v 0 0.3 -0.1
v 0 0.3 -0.2
v 0 0.3 -0.3
v 0 0.4 -2.98023e-08
v 0 0.4 -0.2
v 0.1 0.3 0.1
v 0.1 0.3 -2.98023e-08
v 0.1 0.4 0.1
v 0.1 0.4 -2.98023e-08
v 0.2 0.1 0.2
v 0.2 0.1 0.1
v 0.2 0.5 0.2
v 0.2 0.5 0.1
v 0.3 0 0.3
v 0.3 0 0.2
v 0.3 0.6 0.3
v 0.3 0.6 0.2
v -0.5 0 0.3
v -0.5 0.6 0.3
v -0.4 0.1 0.3
v -0.4 0.3 0.3
v -0.4 0.4 0.3
v -0.4 0.5 0.3
v -0.3 0.1 0.3
v -0.3 0.3 0.3
v -0.3 0.4 0.3
v -0.3 0.5 0.3
v -0.2 0.1 0.3
v -0.2 0.3 0.3
v -0.2 0.4 0.3
v -0.2 0.5 0.3
v -0.1 0.3 0.3
v -0.1 0.4 0.3
v 0 0.1 0.3
v 0 0.3 0.3
v 0 0.4 0.3
v 0 0.5 0.3
v 0.1 0.1 0.3
v 0.1 0.3 0.3
v 0.1 0.4 0.3
v 0.1 0.5 0.3
v 0.2 0.1 0.3
v 0.2 0.3 0.3
v 0.2 0.4 0.3
v 0.2 0.5 0.3
v 0.3 0 0.3
v 0.3 0.6 0.3
v -0.2 0.2 -0.1
v -0.2 0.3 -0.1
v 0 0.2 -0.1
v 0 0.3 -0.1
v -0.2 0 -0.2
v -0.2 0.2 -0.2
v 0 0 -0.2
v 0 0.2 -0.2
v -0.5 0 0.2
v -0.5 0.6 0.2
v -0.4 0.1 0.2
v -0.4 0.5 0.2
v 0.2 0.1 0.2
v 0.2 0.5 0.2
v 0.3 0 0.2
v 0.3 0.6 0.2
v -0.4 0.1 0.1
v -0.4 0.5 0.1
v -0.3 0.3 0.1
v -0.3 0.4 0.1
v 0.1 0.3 0.1
v 0.1 0.4 0.1
v 0.2 0.1 0.1
v 0.2 0.5 0.1
v -0.3 0.3 -2.98023e-08
v -0.3 0.4 -2.98023e-08
v -0.2 0.3 -2.98023e-08
v -0.2 0.4 -2.98023e-08
v 0 0.3 -2.98023e-08
v 0 0.4 -2.98023e-08
v 0.1 0.3 -2.98023e-08
v 0.1 0.4 -2.98023e-08
v -0.2 0.3 -0.2
v -0.2 0.4 -0.2
v 0 0.3 -0.2
v 0 0.4 -0.2
v -0.2 0 -0.3
v -0.2 0.3 -0.3
v 0 0 -0.3
v 0 0.3 -0.3
v -0.5 0 0.3
v 0.3 0 0.3
v -0.5 0 0.2
v 0.3 0 0.2
v -0.2 0 -0.2
v 0 0 -0.2
v -0.2 0 -0.3
v 0 0 -0.3
v -0.4 0.1 0.2
v 0.2 0.1 0.2
v -0.4 0.1 0.1
v 0.2 0.1 0.1
v -0.2 0.2 -0.1
v 0 0.2 -0.1
v -0.2 0.2 -0.2
v 0 0.2 -0.2
v -0.3 0.3 0.1
v 0.1 0.3 0.1
v -0.3 0.3 -2.98023e-08
v -0.2 0.3 -2.98023e-08
v 0 0.3 -2.98023e-08
v 0.1 0.3 -2.98023e-08
v -0.2 0.3 -0.1
v 0 0.3 -0.1
v -0.2 0.3 -0.2
v 0 0.3 -0.2
v -0.2 0.3 -0.3
v 0 0.3 -0.3
v -0.3 0.4 0.1
v 0.1 0.4 0.1
v -0.3 0.4 -2.98023e-08
v -0.2 0.4 -2.98023e-08
v 0 0.4 -2.98023e-08
v 0.1 0.4 -2.98023e-08
v -0.2 0.4 -0.2
v 0 0.4 -0.2
v -0.4 0.5 0.2
v 0.2 0.5 0.2
v -0.4 0.5 0.1
v 0.2 0.5 0.1
v -0.5 0.6 0.3
v 0.3 0.6 0.3
v -0.5 0.6 0.2
v 0.3 0.6 0.2

# faces
f 3/3/1 2/3/1 1/3/1
f 4/3/1 2/3/1 3/3/1
f 7/4/1 6/4/1 5/4/1
f 8/4/1 6/4/1 7/4/1
f 11/4/1 10/4/1 9/4/1
f 12/4/1 10/4/1 11/4/1
f 16/4/1 14/4/1 13/4/1
f 18/4/1 16/4/1 15/4/1
f 19/4/1 14/4/1 16/4/1
f 19/4/1 16/4/1 18/4/1
f 20/4/1 14/4/1 19/4/1
f 21/4/1 18/4/1 17/4/1
f 21/4/1 19/4/1 18/4/1
f 22/4/1 19/4/1 21/4/1
f 23/4/2 24/4/2 26/4/2
f 25/4/2 26/4/2 28/4/2
f 26/4/2 24/4/2 29/4/2
f 28/4/2 26/4/2 29/4/2
f 29/4/2 24/4/2 30/4/2
f 27/4/2 28/4/2 31/4/2
f 28/4/2 29/4/2 31/4/2
f 31/4/2 29/4/2 32/4/2
f 33/4/2 34/4/2 35/4/2
f 35/4/2 34/4/2 36/4/2
f 37/4/2 38/4/2 39/4/2
f 39/4/2 38/4/2 40/4/2
f 41/3/2 42/3/2 43/3/2
f 43/3/2 42/3/2 44/3/2
f 47/3/3 46/3/3 45/3/3
f 48/3/3 46/3/3 47/3/3
f 49/3/3 46/3/3 48/3/3
f 50/3/3 46/3/3 49/3/3
f 51/3/3 47/3/3 45/3/3
f 51/5/3 48/5/3 47/5/3
f 52/1/3 49/1/3 48/1/3
f 52/5/3 48/5/3 51/5/3
f 53/4/3 50/4/3 49/4/3
f 53/1/3 49/1/3 52/1/3
f 54/3/3 46/3/3 50/3/3
f 54/4/3 50/4/3 53/4/3
f 55/1/3 53/1/3 52/1/3
f 55/1/3 52/1/3 51/1/3
f 55/1/3 54/1/3 53/1/3
f 55/3/3 51/3/3 45/3/3
f 56/1/3 54/1/3 55/1/3
f 57/1/3 54/1/3 56/1/3
f 58/3/3 46/3/3 54/3/3
f 58/1/3 54/1/3 57/1/3
f 59/1/3 57/1/3 56/1/3
f 59/5/3 56/5/3 55/5/3
f 60/4/3 58/4/3 57/4/3
f 60/1/3 57/1/3 59/1/3
f 61/3/3 55/3/3 45/3/3
f 61/5/3 59/5/3 55/5/3
f 62/2/3 60/2/3 59/2/3
f 62/5/3 59/5/3 61/5/3
f 63/4/3 58/4/3 60/4/3
f 63/2/3 60/2/3 62/2/3
f 64/3/3 46/3/3 58/3/3
f 64/4/3 58/4/3 63/4/3
f 65/2/3 63/2/3 62/2/3
f 65/2/3 62/2/3 61/2/3
f 65/2/3 64/2/3 63/2/3
f 65/3/3 61/3/3 45/3/3
f 66/2/3 64/2/3 65/2/3
f 67/2/3 64/2/3 66/2/3
f 68/3/3 46/3/3 64/3/3
f 68/2/3 64/2/3 67/2/3
f 69/3/3 65/3/3 45/3/3
f 69/5/3 66/5/3 65/5/3
f 70/2/3 67/2/3 66/2/3
f 70/5/3 66/5/3 69/5/3
f 71/4/3 68/4/3 67/4/3
f 71/2/3 67/2/3 70/2/3
f 72/3/3 46/3/3 68/3/3
f 72/4/3 68/4/3 71/4/3
f 73/3/3 69/3/3 45/3/3
f 73/3/3 71/3/3 70/3/3
f 73/3/3 72/3/3 71/3/3
f 73/3/3 70/3/3 69/3/3
f 74/3/3 46/3/3 72/3/3
f 74/3/3 72/3/3 73/3/3
f 77/4/3 76/4/3 75/4/3
f 78/4/3 76/4/3 77/4/3
f 81/4/3 80/4/3 79/4/3
f 82/4/3 80/4/3 81/4/3
f 83/3/4 84/3/4 85/3/4
f 85/3/4 84/3/4 86/3/4
f 83/3/4 85/3/4 87/3/4
f 86/3/4 84/3/4 88/3/4
f 83/3/4 87/3/4 89/3/4
f 87/3/4 88/3/4 89/3/4
f 88/3/4 84/3/4 90/3/4
f 89/3/4 88/3/4 90/3/4
f 91/4/4 92/4/4 93/4/4
f 93/4/4 92/4/4 94/4/4
f 91/4/4 93/4/4 95/4/4
f 94/4/4 92/4/4 96/4/4
f 91/4/4 95/4/4 97/4/4
f 95/4/4 96/4/4 97/4/4
f 96/4/4 92/4/4 98/4/4
f 97/4/4 96/4/4 98/4/4
f 99/4/4 100/4/4 101/4/4
f 101/4/4 100/4/4 102/4/4
f 103/4/4 104/4/4 105/4/4
f 105/4/4 104/4/4 106/4/4
f 107/4/4 108/4/4 109/4/4
f 109/4/4 108/4/4 110/4/4
f 111/4/4 112/4/4 113/4/4
f 113/4/4 112/4/4 114/4/4
f 117/3/5 116/3/5 115/3/5
f 118/3/5 116/3/5 117/3/5
f 121/4/5 120/4/5 119/4/5
f 122/4/5 120/4/5 121/4/5
f 125/4/5 124/4/5 123/4/5
f 126/4/5 124/4/5 125/4/5
f 129/4/5 128/4/5 127/4/5
f 130/4/5 128/4/5 129/4/5
f 133/4/5 132/4/5 131/4/5
f 134/4/5 132/4/5 133/4/5
f 135/4/5 132/4/5 134/4/5
f 136/4/5 132/4/5 135/4/5
f 137/4/5 135/4/5 134/4/5
f 138/4/5 135/4/5 137/4/5
f 139/4/6 140/4/6 141/4/6
f 141/4/6 140/4/6 142/4/6
f 143/4/6 144/4/6 145/4/6
f 145/4/6 144/4/6 146/4/6
f 146/4/6 144/4/6 147/4/6
f 147/4/6 144/4/6 148/4/6
f 146/4/6 147/4/6 149/4/6
f 149/4/6 147/4/6 150/4/6
f 151/4/6 152/4/6 153/4/6
f 153/4/6 152/4/6 154/4/6
f 155/3/6 156/3/6 157/3/6
f 157/3/6 156/3/6 158/3/6
